<svg xmlns="http://www.w3.org/2000/svg" xmlns:xlink="http://www.w3.org/1999/xlink" width="500" zoomAndPan="magnify" viewBox="0 0 375 374.999991" height="500" preserveAspectRatio="xMidYMid meet" version="1.0"><path fill="#294520" d="M 170.644531 164.789062 C 97.851562 86.46875 23.75 67.625 1.765625 69.761719 C 34.097656 91.1875 43.792969 145.792969 73.523438 194.035156 C 103.257812 242.277344 142.433594 284.214844 223.191406 295.257812 C 303.949219 306.304688 170.644531 164.789062 170.644531 164.789062 " fill-opacity="1" fill-rule="nonzero"/><path fill="#335e28" d="M -2.851562 -0.0117188 C -2.851562 -0.0117188 39.792969 69.175781 192.652344 175.257812 C 345.511719 281.339844 336.539062 338.242188 297.855469 347.660156 C 259.175781 357.078125 43.535156 133.773438 -2.851562 -0.0117188 " fill-opacity="1" fill-rule="nonzero"/><path fill="#468b34" d="M 23.691406 25.601562 C 23.691406 25.601562 57.34375 46.730469 142.644531 71.152344 C 227.941406 95.578125 246.316406 129.140625 283.546875 181.640625 C 320.773438 234.140625 255.066406 239.59375 248.804688 242.640625 C 242.542969 245.691406 138.25 155.632812 127.0625 143.226562 C 115.875 130.820312 23.691406 25.601562 23.691406 25.601562 " fill-opacity="1" fill-rule="nonzero"/><path fill="#335e28" d="M 23.691406 25.601562 C 23.691406 25.601562 33.863281 42.28125 117.921875 71.726562 C 201.980469 101.171875 240.84375 121.25 287.28125 198.105469 C 333.71875 274.964844 325.070312 313.804688 325.070312 313.804688 C 325.070312 313.804688 276.492188 365.988281 190.117188 280.074219 C 103.746094 194.15625 138.105469 145.742188 94.839844 105.726562 C 51.574219 65.714844 32.445312 49.1875 23.691406 25.601562 " fill-opacity="1" fill-rule="nonzero"/><path fill="#f4bc0f" d="M 66.96875 89.8125 C 56.964844 78.804688 43.644531 97.902344 48.496094 105.820312 C 53.347656 113.738281 57.859375 112.863281 64.449219 108.832031 C 71.035156 104.804688 72.695312 96.113281 66.96875 89.8125 " fill-opacity="1" fill-rule="nonzero"/><path fill="#e2851a" d="M 69.207031 93.132812 C 67.5625 93.511719 66.71875 97.332031 65.136719 99.195312 C 63.359375 101.285156 67.457031 107.601562 62.613281 107.421875 C 57.769531 107.242188 52.128906 99.675781 55.425781 95.542969 C 57.695312 92.703125 58.484375 90.308594 55.8125 87.75 C 49.703125 91.1875 45.402344 100.773438 48.496094 105.820312 C 53.347656 113.738281 57.859375 112.863281 64.449219 108.832031 C 69.9375 105.476562 71.984375 98.882812 69.207031 93.132812 " fill-opacity="1" fill-rule="nonzero"/><path fill="#f4cf45" d="M 61.617188 99.984375 C 59.417969 100.304688 59.589844 102.296875 60.246094 102.976562 C 60.898438 103.65625 63.683594 100.894531 61.617188 99.984375 " fill-opacity="1" fill-rule="nonzero"/><path fill="#f4bc0f" d="M 76.597656 100.890625 C 68.300781 97.851562 54.480469 111.558594 51.960938 119.925781 C 49.4375 128.292969 55.671875 138.625 68.390625 132.859375 C 81.109375 127.097656 91.925781 109.230469 76.597656 100.890625 " fill-opacity="1" fill-rule="nonzero"/><path fill="#e2851a" d="M 81.976562 105.4375 C 79.347656 104.808594 77.367188 109.292969 76.515625 112.175781 C 75.429688 115.84375 76.40625 120.335938 72.027344 125.070312 C 67.648438 129.800781 58.164062 131.808594 58.203125 123.785156 C 58.242188 115.757812 52.835938 117.691406 56.765625 112.140625 C 57.21875 111.5 57.519531 110.964844 57.695312 110.519531 C 54.933594 113.699219 52.804688 117.113281 51.960938 119.925781 C 49.4375 128.292969 55.671875 138.625 68.390625 132.859375 C 79.113281 128 88.480469 114.542969 81.976562 105.4375 " fill-opacity="1" fill-rule="nonzero"/><path fill="#f4cf45" d="M 70.382812 120.417969 C 68.175781 119.527344 68.207031 120.996094 66.398438 123.570312 C 64.59375 126.148438 66.375 127.75 68.851562 125.859375 C 71.328125 123.96875 73.359375 121.617188 70.382812 120.417969 " fill-opacity="1" fill-rule="nonzero"/><path fill="#f4bc0f" d="M 98.253906 118.941406 C 85.144531 108.863281 62.726562 135.140625 61.96875 143.511719 C 61.210938 151.882812 71.164062 158.648438 79.335938 153.285156 C 87.503906 147.921875 108.890625 130.457031 98.253906 118.941406 " fill-opacity="1" fill-rule="nonzero"/><path fill="#e2851a" d="M 79.335938 153.289062 C 86.394531 148.652344 103.292969 134.988281 100.914062 123.933594 C 97.9375 124.355469 93.457031 127.972656 90.636719 133.214844 C 86.710938 140.492188 83.375 143.941406 77.101562 146.496094 C 70.828125 149.046875 63.464844 143.90625 67.914062 136.542969 C 72.367188 129.183594 80.183594 125.648438 80.492188 121.867188 C 80.53125 121.40625 80.488281 120.992188 80.382812 120.609375 C 70.878906 126.75 62.429688 138.425781 61.96875 143.511719 C 61.210938 151.882812 71.164062 158.648438 79.335938 153.289062 " fill-opacity="1" fill-rule="nonzero"/><path fill="#f4cf45" d="M 83.238281 136.839844 C 80.1875 134.316406 80.804688 137.976562 77.566406 140.699219 C 74.332031 143.425781 78.945312 144 82.039062 141.335938 C 85.128906 138.667969 83.238281 136.839844 83.238281 136.839844 " fill-opacity="1" fill-rule="nonzero"/><path fill="#f4bc0f" d="M 102.453125 140.035156 C 90.15625 135.769531 82.691406 144.566406 74.390625 153.714844 C 66.089844 162.867188 79 178.191406 85.882812 176.039062 C 92.765625 173.886719 120.546875 151.726562 102.453125 140.035156 " fill-opacity="1" fill-rule="nonzero"/><path fill="#e2851a" d="M 107.179688 144.796875 C 106.925781 145.339844 106.785156 145.945312 106.808594 146.605469 C 106.984375 151.847656 101.257812 152.042969 92.214844 161.722656 C 83.171875 171.398438 85.199219 174.90625 80.078125 170.132812 C 75.632812 165.980469 74.222656 158.390625 75.722656 152.242188 C 75.28125 152.730469 74.839844 153.222656 74.390625 153.714844 C 66.089844 162.867188 79 178.191406 85.882812 176.039062 C 91.914062 174.152344 113.992188 156.90625 107.179688 144.796875 " fill-opacity="1" fill-rule="nonzero"/><path fill="#f4cf45" d="M 94.71875 157.457031 C 91.707031 159.625 87.824219 165.828125 84.8125 167.328125 C 81.800781 168.828125 84.351562 164.019531 87.921875 159.742188 C 91.496094 155.464844 98.300781 154.875 94.71875 157.457031 " fill-opacity="1" fill-rule="nonzero"/><path fill="#f4bc0f" d="M 118.621094 154.730469 C 108.371094 148.28125 98.824219 156.71875 88.871094 167.984375 C 78.917969 179.25 84.636719 193.789062 93.9375 194.777344 C 103.238281 195.761719 116.734375 184.28125 122.796875 172.535156 C 128.863281 160.789062 118.621094 154.730469 118.621094 154.730469 " fill-opacity="1" fill-rule="nonzero"/><path fill="#e2851a" d="M 118.621094 154.730469 C 115.167969 152.558594 111.792969 152.078125 108.457031 152.828125 C 105.746094 157.703125 111.0625 163.335938 114.191406 165.726562 C 117.351562 168.136719 116.632812 167.316406 106.425781 177.953125 C 96.21875 188.59375 99.3125 191.828125 92.65625 189.980469 C 86.007812 188.132812 83.957031 177.777344 84.914062 174.398438 C 81.136719 184.121094 86.339844 193.972656 93.9375 194.777344 C 103.238281 195.761719 116.734375 184.28125 122.796875 172.535156 C 128.863281 160.789062 118.621094 154.730469 118.621094 154.730469 " fill-opacity="1" fill-rule="nonzero"/><path fill="#f4cf45" d="M 107.046875 174.957031 C 101.160156 179.761719 100.457031 184.25 97.757812 186.015625 C 95.0625 187.777344 94.144531 184.648438 99.847656 178.449219 C 105.554688 172.253906 108.53125 173.652344 107.046875 174.957031 " fill-opacity="1" fill-rule="nonzero"/><path fill="#f4bc0f" d="M 131.539062 172.238281 C 114.773438 166.679688 115.839844 171.078125 106.335938 181.378906 C 96.835938 191.679688 85.132812 200.683594 95.84375 210.425781 C 106.550781 220.167969 117.042969 210.410156 122.773438 203.273438 C 128.507812 196.140625 147.300781 178.871094 131.539062 172.238281 " fill-opacity="1" fill-rule="nonzero"/><path fill="#e2851a" d="M 131.539062 172.238281 C 128.355469 171.179688 125.8125 170.488281 123.722656 170.125 C 123.542969 170.234375 123.371094 170.34375 123.210938 170.441406 C 116.160156 174.757812 132.566406 182.863281 124.886719 191.464844 C 117.207031 200.070312 114.234375 211.460938 105.640625 206.820312 C 97.039062 202.179688 96.835938 194.707031 103.585938 187.742188 C 105.941406 185.308594 106.316406 183.691406 105.207031 182.585938 C 95.949219 192.386719 85.554688 201.066406 95.84375 210.425781 C 106.550781 220.167969 117.042969 210.410156 122.773438 203.273438 C 128.507812 196.140625 147.300781 178.871094 131.539062 172.238281 " fill-opacity="1" fill-rule="nonzero"/><path fill="#f4cf45" d="M 117.976562 195.433594 C 116.6875 201.214844 113.847656 203.964844 110.578125 204.640625 C 107.308594 205.320312 106.5 203.25 111.054688 198.726562 C 115.613281 194.207031 118.902344 191.265625 117.976562 195.433594 " fill-opacity="1" fill-rule="nonzero"/><path fill="#f4bc0f" d="M 141.660156 191.519531 C 130.4375 185.839844 127.441406 193.632812 119.707031 202.179688 C 111.972656 210.726562 102.566406 224.390625 114.617188 231.976562 C 126.664062 239.5625 134.164062 229.917969 141.773438 221.507812 C 149.382812 213.097656 155.441406 199.730469 141.660156 191.519531 " fill-opacity="1" fill-rule="nonzero"/><path fill="#e2851a" d="M 141.777344 221.507812 C 149.382812 213.097656 155.441406 199.730469 141.660156 191.519531 C 139.25 190.296875 137.21875 189.703125 135.4375 189.601562 C 131.457031 193.050781 140.5 202.207031 141.210938 207.675781 C 142.046875 214.101562 133.882812 219.851562 130.859375 224.265625 C 127.839844 228.679688 118.46875 227.542969 114.171875 224.394531 C 112.34375 223.054688 110.675781 220.449219 109.792969 217.308594 C 107.921875 222.785156 108.542969 228.152344 114.617188 231.976562 C 126.664062 239.5625 134.164062 229.917969 141.777344 221.507812 " fill-opacity="1" fill-rule="nonzero"/><path fill="#f4cf45" d="M 131.917969 218.015625 C 127.503906 223.097656 125.058594 225.84375 121.320312 224.804688 C 117.578125 223.769531 118.839844 219.792969 122.429688 218.972656 C 126.015625 218.152344 125.277344 218.035156 128.359375 216.574219 C 131.4375 215.113281 133.269531 216.457031 131.917969 218.015625 " fill-opacity="1" fill-rule="nonzero"/><path fill="#f4bc0f" d="M 162.953125 209.113281 C 146.414062 204.527344 139.21875 217.269531 131.386719 225.992188 C 123.558594 234.710938 124.671875 244.257812 135.046875 249.902344 C 145.417969 255.550781 154.679688 249.5625 161.96875 237.574219 C 169.257812 225.589844 177.46875 215.59375 162.953125 209.113281 " fill-opacity="1" fill-rule="nonzero"/><path fill="#e2851a" d="M 161.96875 237.574219 C 169.257812 225.589844 177.46875 215.59375 162.953125 209.113281 C 158.046875 207.75 153.96875 207.925781 150.445312 209.054688 C 150.621094 209.3125 150.808594 209.574219 151.015625 209.839844 C 155.484375 215.488281 159.140625 221.609375 163.25 224.339844 C 167.367188 227.066406 159.769531 227.003906 153.363281 237.292969 C 146.949219 247.582031 141.273438 248.699219 135.160156 243.796875 C 131.519531 240.875 128.171875 237.953125 126.707031 234.175781 C 125.140625 240.242188 127.878906 246.003906 135.046875 249.902344 C 145.417969 255.550781 154.679688 249.5625 161.96875 237.574219 " fill-opacity="1" fill-rule="nonzero"/><path fill="#f4cf45" d="M 154.046875 233.128906 C 149.03125 239.902344 145.730469 245.183594 142.109375 244.839844 C 138.488281 244.496094 136.882812 241.152344 141.335938 239.511719 C 145.789062 237.871094 148.792969 234.390625 150.878906 231.898438 C 152.964844 229.40625 156.160156 230.273438 154.046875 233.128906 " fill-opacity="1" fill-rule="nonzero"/><path fill="#f4bc0f" d="M 184.855469 222 C 170.816406 220.402344 167.046875 226.046875 159.636719 235.398438 C 152.230469 244.753906 138.988281 252.574219 146.902344 258.824219 C 154.816406 265.074219 162.265625 269.125 171.652344 261.238281 C 181.039062 253.355469 202.8125 226.230469 184.855469 222 " fill-opacity="1" fill-rule="nonzero"/><path fill="#e2851a" d="M 171.652344 261.238281 C 181.039062 253.355469 202.8125 226.230469 184.855469 222 C 178.640625 221.292969 174.441406 222.007812 171.046875 223.832031 C 171.378906 226.46875 171.949219 228.960938 172.53125 230.726562 C 174.683594 237.242188 182.550781 236.945312 176.664062 243.625 C 170.773438 250.308594 166.675781 254.308594 161.558594 259.785156 C 156.441406 265.257812 155.238281 264.199219 148.890625 259.925781 C 147.78125 259.179688 146.84375 258.570312 146.035156 258.035156 C 146.292969 258.300781 146.574219 258.5625 146.902344 258.824219 C 154.816406 265.074219 162.265625 269.125 171.652344 261.238281 " fill-opacity="1" fill-rule="nonzero"/><path fill="#f4cf45" d="M 162.410156 255.414062 C 157.496094 260.765625 154.921875 262.011719 152.523438 260.890625 C 150.125 259.765625 150.277344 255.910156 152.902344 256.355469 C 155.53125 256.804688 155.164062 258.082031 158.542969 255.761719 C 161.921875 253.4375 163.960938 253.722656 162.410156 255.414062 " fill-opacity="1" fill-rule="nonzero"/><path fill="#f4bc0f" d="M 199.410156 240.863281 C 184.457031 238.761719 185.421875 240.164062 174.871094 250.371094 C 164.320312 260.578125 158.886719 267.738281 168.863281 275.027344 C 178.835938 282.316406 190.972656 280.398438 201.148438 268.839844 C 211.328125 257.273438 208.320312 241.863281 199.410156 240.863281 " fill-opacity="1" fill-rule="nonzero"/><path fill="#e2851a" d="M 196.785156 243.332031 C 193.035156 245.425781 193.003906 241.648438 196.886719 251.820312 C 200.769531 262 194.269531 267.1875 187.074219 272.429688 C 180.730469 277.050781 163.710938 271.535156 164.789062 262.359375 C 162.527344 266.914062 163.28125 270.949219 168.863281 275.027344 C 178.835938 282.316406 190.972656 280.398438 201.148438 268.839844 C 207.40625 261.730469 208.675781 253.171875 206.65625 247.394531 C 202.519531 244.550781 198.636719 242.296875 196.785156 243.332031 " fill-opacity="1" fill-rule="nonzero"/><path fill="#f4cf45" d="M 192 265.703125 C 186.90625 270.632812 182.679688 273.425781 179.898438 272.753906 C 177.117188 272.082031 176.214844 268.179688 179.039062 267.410156 C 181.859375 266.632812 183.136719 267.925781 186.949219 264.621094 C 190.761719 261.316406 195.929688 261.894531 192 265.703125 " fill-opacity="1" fill-rule="nonzero"/><path fill="#f4bc0f" d="M 220.300781 259.34375 C 206.125 253.699219 207.558594 257.796875 199.050781 266.628906 C 190.542969 275.460938 181.691406 279.589844 190.109375 286.355469 C 198.523438 293.117188 209.421875 293.472656 216.859375 283.757812 C 224.300781 274.046875 235.171875 266.03125 220.300781 259.34375 " fill-opacity="1" fill-rule="nonzero"/><path fill="#e2851a" d="M 220.300781 259.34375 C 217.269531 258.136719 214.960938 257.378906 213.109375 257.015625 C 212.945312 257.375 212.792969 257.75 212.664062 258.148438 C 210.511719 264.730469 217.5 269.609375 213.089844 274.75 C 208.679688 279.886719 207.707031 289.265625 201.109375 288.246094 C 196.488281 287.539062 189.320312 283.425781 186.949219 279.625 C 186.265625 281.757812 187.023438 283.878906 190.109375 286.355469 C 198.523438 293.117188 209.421875 293.472656 216.859375 283.757812 C 224.300781 274.046875 235.171875 266.03125 220.300781 259.34375 " fill-opacity="1" fill-rule="nonzero"/><path fill="#f4cf45" d="M 207.042969 281.21875 C 204.113281 284.828125 201.371094 287.238281 199.011719 285.722656 C 196.652344 284.207031 197.375 281.109375 201.273438 280.976562 C 205.171875 280.84375 209.261719 278.488281 207.042969 281.21875 " fill-opacity="1" fill-rule="nonzero"/><path fill="#f4bc0f" d="M 233.328125 268.980469 C 225.414062 266.507812 220.785156 271.089844 215.378906 280.351562 C 209.972656 289.609375 210.542969 292.210938 217.953125 299.105469 C 225.359375 306 231.644531 303.722656 239 291.671875 C 246.355469 279.617188 242.492188 269.753906 233.328125 268.980469 " fill-opacity="1" fill-rule="nonzero"/><path fill="#e2851a" d="M 241.339844 273.734375 C 242.039062 277.320312 239.921875 279.066406 236.792969 283.34375 C 232.417969 289.34375 232.480469 289.128906 229.308594 297.480469 C 226.136719 305.828125 226.78125 301.933594 221.976562 298.402344 C 217.179688 294.878906 211.945312 290.964844 212.730469 285.539062 C 210.558594 290.925781 212.152344 293.707031 217.953125 299.105469 C 225.359375 306 231.644531 303.722656 239 291.671875 C 243.449219 284.382812 243.789062 277.898438 241.339844 273.734375 " fill-opacity="1" fill-rule="nonzero"/><path fill="#f4cf45" d="M 233.257812 285.550781 C 230.628906 292.082031 228.59375 296.105469 226.839844 297.253906 C 225.089844 298.40625 224.046875 296.859375 226.917969 292.335938 C 229.789062 287.808594 234.230469 283.144531 233.257812 285.550781 " fill-opacity="1" fill-rule="nonzero"/><path fill="#f4bc0f" d="M 253.050781 282.714844 C 245.207031 280.441406 243.734375 281.746094 238.875 287.347656 C 234.019531 292.949219 226.664062 299.445312 236.207031 307.347656 C 245.753906 315.253906 252.203125 310.507812 256.140625 302.496094 C 260.082031 294.488281 263.257812 285.070312 253.050781 282.714844 " fill-opacity="1" fill-rule="nonzero"/><path fill="#e2851a" d="M 256.140625 302.496094 C 260.082031 294.488281 263.257812 285.070312 253.050781 282.714844 C 249.691406 281.738281 247.503906 281.429688 245.714844 281.824219 C 245.667969 282.710938 245.777344 283.796875 246.085938 285.105469 C 248.53125 295.558594 257.449219 292.75 253.050781 297.453125 C 248.648438 302.164062 247.96875 307.597656 245.53125 308.375 C 243.097656 309.152344 233.710938 306.136719 231.578125 299.855469 C 231.710938 302.207031 233.007812 304.699219 236.207031 307.347656 C 245.753906 315.253906 252.203125 310.507812 256.140625 302.496094 " fill-opacity="1" fill-rule="nonzero"/><path fill="#f4cf45" d="M 247.960938 300.5 C 246.242188 305.425781 245.234375 307.257812 242.234375 306.625 C 239.230469 305.992188 237.382812 304.632812 240.910156 302.714844 C 244.441406 300.804688 249.183594 296.976562 247.960938 300.5 " fill-opacity="1" fill-rule="nonzero"/><path fill="#f4bc0f" d="M 272.410156 297.269531 C 261.15625 292.675781 256.566406 295.828125 251.875 301.796875 C 247.1875 307.757812 247.140625 312.128906 253.003906 315.710938 C 258.871094 319.292969 266.890625 315.894531 271.023438 309.488281 C 275.152344 303.085938 276.15625 298.59375 272.410156 297.269531 " fill-opacity="1" fill-rule="nonzero"/><path fill="#e2851a" d="M 271.023438 309.488281 C 275.152344 303.085938 276.15625 298.59375 272.410156 297.269531 C 266.058594 294.679688 261.832031 294.554688 258.511719 296.007812 C 265.664062 294.019531 268.730469 300.34375 268.449219 303.617188 C 268.167969 306.890625 267.636719 312.320312 262.167969 313.714844 C 256.703125 315.105469 248.265625 310.914062 250.085938 304.386719 C 247.320312 309.058594 248.023438 312.667969 253.003906 315.710938 C 258.871094 319.292969 266.890625 315.894531 271.023438 309.488281 " fill-opacity="1" fill-rule="nonzero"/><path fill="#f4cf45" d="M 265.003906 309.832031 C 262.886719 311.867188 260.242188 313.78125 257.21875 312.148438 C 254.191406 310.511719 258.007812 307.71875 260.164062 308.496094 C 262.320312 309.269531 266.152344 308.726562 265.003906 309.832031 " fill-opacity="1" fill-rule="nonzero"/><path fill="#f4bc0f" d="M 108.417969 68.09375 C 101.105469 57.429688 89.621094 65.445312 84.847656 71.421875 C 80.074219 77.402344 87.074219 89.886719 99.101562 84.722656 C 111.125 79.554688 109.902344 70.25 108.417969 68.09375 " fill-opacity="1" fill-rule="nonzero"/><path fill="#e2851a" d="M 99.101562 84.722656 C 111.125 79.554688 109.902344 70.25 108.417969 68.09375 C 107.839844 67.242188 107.226562 66.523438 106.597656 65.898438 C 107.027344 67.660156 107.578125 69.863281 106.671875 70.773438 C 104.597656 72.847656 102.902344 73.757812 98.882812 72.523438 C 94.867188 71.289062 90.519531 74.316406 89.386719 71.902344 C 88.253906 69.492188 89.5625 66.847656 95.609375 63.542969 C 91.253906 64.976562 87.222656 68.449219 84.847656 71.421875 C 80.074219 77.402344 87.074219 89.886719 99.101562 84.722656 " fill-opacity="1" fill-rule="nonzero"/><path fill="#f4cf45" d="M 104.03125 65.355469 C 102.933594 64.082031 101.085938 64.46875 101.683594 65.613281 C 102.277344 66.757812 102.210938 69.195312 103.566406 69.15625 C 104.921875 69.125 105.539062 67.101562 104.03125 65.355469 " fill-opacity="1" fill-rule="nonzero"/><path fill="#f4bc0f" d="M 122.691406 73.632812 C 119.398438 68.753906 112.210938 66.121094 107.007812 71.890625 C 101.808594 77.664062 96.023438 80.9375 97.851562 86.46875 C 99.683594 92.003906 106.015625 93.136719 113.90625 89.480469 C 121.800781 85.824219 123.871094 75.382812 122.691406 73.632812 " fill-opacity="1" fill-rule="nonzero"/><path fill="#e2851a" d="M 122.691406 73.632812 C 121.996094 72.601562 121.117188 71.679688 120.132812 70.910156 C 121.179688 72.507812 120.425781 75.664062 117.226562 79.589844 C 114.011719 83.535156 112.046875 85.410156 110.757812 84.203125 C 109.460938 82.996094 107.65625 79.183594 106.628906 77.75 C 106.128906 77.050781 105.230469 75.640625 104.113281 74.867188 C 99.929688 78.953125 96.359375 81.964844 97.851562 86.46875 C 99.683594 92.003906 106.015625 93.136719 113.90625 89.480469 C 121.800781 85.824219 123.871094 75.382812 122.691406 73.632812 " fill-opacity="1" fill-rule="nonzero"/><path fill="#f4cf45" d="M 117.921875 71.726562 C 115.792969 69.433594 115.738281 71.425781 116.101562 73.148438 C 116.46875 74.867188 115.425781 78.5 117.046875 77.097656 C 118.667969 75.695312 119.347656 73.261719 117.921875 71.726562 " fill-opacity="1" fill-rule="nonzero"/><path fill="#f4bc0f" d="M 137.035156 82.160156 C 135.207031 69.972656 121.796875 73.964844 117.976562 79.925781 C 114.160156 85.882812 105.648438 91.777344 110.398438 96.757812 C 115.15625 101.734375 116.78125 104.269531 121.628906 101.265625 C 126.476562 98.257812 137.78125 87.132812 137.035156 82.160156 " fill-opacity="1" fill-rule="nonzero"/><path fill="#e2851a" d="M 137.035156 82.160156 C 136.542969 78.871094 135.203125 76.773438 133.445312 75.558594 C 133.472656 75.6875 133.507812 75.824219 133.554688 75.976562 C 134.90625 80.363281 136.640625 80.054688 132.472656 86.140625 C 128.308594 92.226562 124.6875 96.691406 123.910156 95.167969 C 123.136719 93.640625 120.796875 87.296875 118.378906 86.160156 C 117.082031 85.554688 114.363281 86.203125 111.945312 87.425781 C 109.320312 90.730469 107.667969 93.898438 110.398438 96.757812 C 115.15625 101.734375 116.78125 104.269531 121.628906 101.265625 C 126.476562 98.257812 137.78125 87.132812 137.035156 82.160156 " fill-opacity="1" fill-rule="nonzero"/><path fill="#f4cf45" d="M 133.351562 80.046875 C 131.976562 77.628906 130.996094 80.648438 130.703125 83.617188 C 130.40625 86.589844 128.402344 89.179688 129.515625 88.332031 C 130.628906 87.484375 134.792969 82.589844 133.351562 80.046875 " fill-opacity="1" fill-rule="nonzero"/><path fill="#f4bc0f" d="M 150.496094 82.28125 C 143.515625 78.324219 137.753906 81.855469 130.457031 91.957031 C 123.160156 102.058594 116.796875 103.203125 120.277344 108.449219 C 123.757812 113.691406 137.507812 114.425781 144.375 108.515625 C 151.242188 102.605469 161.113281 88.300781 150.496094 82.28125 " fill-opacity="1" fill-rule="nonzero"/><path fill="#e2851a" d="M 154.789062 87.324219 C 152.882812 94.085938 150.066406 95.640625 144.5625 102.820312 C 139.0625 109.996094 142.542969 103.371094 137.285156 100.140625 C 132.019531 96.90625 129.699219 96.476562 129.699219 96.476562 C 129.699219 96.476562 139.242188 90.738281 137.164062 85.800781 C 137.003906 85.425781 136.707031 85.183594 136.308594 85.03125 C 134.441406 86.8125 132.507812 89.113281 130.457031 91.957031 C 123.160156 102.058594 116.796875 103.203125 120.277344 108.449219 C 123.757812 113.691406 137.507812 114.425781 144.375 108.515625 C 149.71875 103.914062 156.882812 94.226562 154.789062 87.324219 " fill-opacity="1" fill-rule="nonzero"/><path fill="#f4cf45" d="M 152.34375 90.972656 C 153.183594 88.4375 151.097656 90.5625 149.386719 92.925781 C 147.679688 95.292969 143.316406 98.945312 144.328125 99.074219 C 145.34375 99.203125 148.5 96.496094 150.210938 94.132812 C 151.914062 91.765625 151.726562 92.847656 152.34375 90.972656 " fill-opacity="1" fill-rule="nonzero"/><path fill="#f4bc0f" d="M 169.058594 94.15625 C 164.445312 90.0625 154.1875 92.160156 146.84375 102.203125 C 139.503906 112.25 135.039062 113.527344 140.464844 119.5625 C 145.894531 125.597656 152.40625 128.15625 159.390625 126.328125 C 166.375 124.496094 181.816406 105.480469 169.058594 94.15625 " fill-opacity="1" fill-rule="nonzero"/><path fill="#e2851a" d="M 172.367188 98.3125 C 174.101562 104.476562 162.671875 118.964844 160.695312 119.605469 C 158.710938 120.246094 153.089844 113.417969 150.710938 112.667969 C 148.328125 111.917969 144.199219 112.128906 149.238281 106.738281 C 154.265625 101.363281 153.570312 96.460938 157.625 93.371094 C 153.960938 94.84375 150.113281 97.734375 146.84375 102.203125 C 139.503906 112.25 135.039062 113.527344 140.464844 119.5625 C 145.894531 125.597656 152.40625 128.15625 159.390625 126.328125 C 165.574219 124.707031 178.378906 109.609375 172.367188 98.3125 " fill-opacity="1" fill-rule="nonzero"/><path fill="#f4cf45" d="M 170.40625 102.8125 C 170.855469 99.320312 170.082031 100.113281 166.941406 105.875 C 163.808594 111.636719 160.816406 115.800781 162.820312 114.457031 C 164.828125 113.113281 169.792969 107.558594 170.40625 102.8125 " fill-opacity="1" fill-rule="nonzero"/><path fill="#f4bc0f" d="M 190.152344 108.769531 C 184.992188 104.921875 165.671875 116.085938 158.425781 126.546875 C 151.179688 137.007812 165.171875 147.703125 176.007812 144.191406 C 186.84375 140.679688 197.328125 127.144531 199.300781 121.40625 C 201.277344 115.667969 190.152344 108.769531 190.152344 108.769531 " fill-opacity="1" fill-rule="nonzero"/><path fill="#e2851a" d="M 176.007812 144.191406 C 186.84375 140.679688 197.328125 127.144531 199.300781 121.40625 C 199.941406 119.550781 199.207031 117.574219 197.925781 115.75 C 196.539062 119.488281 192.429688 123.617188 187.105469 129.207031 C 181.445312 135.152344 181.988281 132.257812 175.777344 126.546875 C 169.570312 120.832031 163.851562 124.300781 161.691406 123.195312 C 161.554688 123.125 161.433594 123.050781 161.332031 122.976562 C 160.234375 124.160156 159.246094 125.355469 158.425781 126.546875 C 151.179688 137.007812 165.171875 147.703125 176.007812 144.191406 " fill-opacity="1" fill-rule="nonzero"/><path fill="#f4cf45" d="M 194.757812 115.3125 C 193.886719 111.019531 189.871094 112.488281 188.835938 117.363281 C 187.796875 122.238281 183.929688 125.335938 185.234375 125.851562 C 186.539062 126.363281 187.253906 127.625 190.910156 123.195312 C 194.566406 118.761719 194.960938 116.3125 194.757812 115.3125 " fill-opacity="1" fill-rule="nonzero"/><path fill="#f4bc0f" d="M 210.136719 124.519531 C 202.339844 117.242188 195.324219 123.75 185.664062 133.96875 C 176.007812 144.191406 166.722656 149.671875 174.769531 153.988281 C 182.820312 158.304688 202.3125 150.0625 208.765625 141.117188 C 215.21875 132.175781 214.921875 128.984375 210.136719 124.519531 " fill-opacity="1" fill-rule="nonzero"/><path fill="#e2851a" d="M 212.800781 127.664062 C 213.089844 131.660156 210.691406 135.847656 205.503906 139.828125 C 200.316406 143.804688 198.5625 140.839844 193.644531 141.058594 C 189.671875 141.234375 184.714844 139.707031 183.929688 135.765625 C 174.953125 144.847656 167.207031 149.933594 174.769531 153.988281 C 182.820312 158.304688 202.3125 150.0625 208.765625 141.117188 C 213.644531 134.359375 214.660156 130.886719 212.800781 127.664062 " fill-opacity="1" fill-rule="nonzero"/><path fill="#f4cf45" d="M 210.253906 126.238281 C 206.773438 122.941406 204.710938 125.695312 204.996094 128.917969 C 205.28125 132.140625 202.714844 136.203125 203.792969 137.105469 C 204.867188 138.015625 208.855469 136.28125 210.828125 132.585938 C 212.804688 128.890625 210.253906 126.238281 210.253906 126.238281 " fill-opacity="1" fill-rule="nonzero"/><path fill="#f4bc0f" d="M 226.199219 138.535156 C 222.429688 133.722656 214.816406 132.1875 203.4375 143.53125 C 192.054688 154.875 190.59375 158.519531 195.992188 163.773438 C 201.390625 169.023438 212.121094 163.488281 220.382812 155.84375 C 228.640625 148.195312 230.722656 144.308594 226.199219 138.535156 " fill-opacity="1" fill-rule="nonzero"/><path fill="#e2851a" d="M 228.234375 142.207031 C 228.210938 142.457031 228.183594 142.703125 228.148438 142.933594 C 227.757812 145.488281 224.726562 148.96875 220.355469 151.863281 C 215.988281 154.757812 210.53125 154.316406 208.960938 153.628906 C 207.390625 152.9375 205.457031 148.667969 203.578125 146.265625 C 203.203125 145.789062 202.46875 145.542969 201.519531 145.46875 C 191.910156 155.308594 190.910156 158.832031 195.992188 163.773438 C 201.390625 169.023438 212.121094 163.488281 220.382812 155.84375 C 226.78125 149.917969 229.453125 146.246094 228.234375 142.207031 " fill-opacity="1" fill-rule="nonzero"/><path fill="#f4cf45" d="M 225.433594 138.792969 C 223.007812 136.265625 221.203125 138.621094 221.367188 141.238281 C 221.535156 143.859375 216.554688 151.035156 220.417969 149.167969 C 224.277344 147.304688 229.328125 143.328125 225.433594 138.792969 " fill-opacity="1" fill-rule="nonzero"/><path fill="#f4bc0f" d="M 240.242188 146 C 234.628906 139.511719 221.476562 152.929688 214.472656 160.117188 C 207.46875 167.308594 211.335938 175 216.089844 178.464844 C 220.84375 181.929688 228.523438 178.929688 236.03125 169.640625 C 243.539062 160.351562 246.328125 153.039062 240.242188 146 " fill-opacity="1" fill-rule="nonzero"/><path fill="#e2851a" d="M 242.453125 149.367188 C 242.433594 154.566406 243.558594 153.960938 236.570312 160.222656 C 229.5625 166.503906 226.222656 168.992188 224.019531 168.078125 C 221.816406 167.160156 220.21875 165.816406 219.746094 162.359375 C 219.5 160.558594 218.320312 158.726562 216.992188 157.554688 C 216.089844 158.460938 215.242188 159.328125 214.472656 160.117188 C 207.46875 167.308594 211.335938 175 216.089844 178.464844 C 220.84375 181.929688 228.523438 178.929688 236.03125 169.640625 C 242.351562 161.816406 245.304688 155.398438 242.453125 149.367188 " fill-opacity="1" fill-rule="nonzero"/><path fill="#f4cf45" d="M 240.199219 148.027344 C 238.875 147.078125 237.183594 148.433594 236.621094 151.855469 C 236.058594 155.277344 233.578125 158.136719 235.484375 158.230469 C 237.390625 158.328125 240.363281 156.292969 241.183594 153.472656 C 241.996094 150.652344 240.199219 148.027344 240.199219 148.027344 " fill-opacity="1" fill-rule="nonzero"/><path fill="#f4bc0f" d="M 251.253906 159.382812 C 245.324219 154.636719 237.175781 159.914062 228.105469 170.949219 C 219.035156 181.988281 224.601562 189.785156 230.839844 192.363281 C 237.078125 194.9375 245.511719 191.535156 249.269531 180.855469 C 253.03125 170.175781 257.148438 164.105469 251.253906 159.382812 " fill-opacity="1" fill-rule="nonzero"/><path fill="#e2851a" d="M 253.5625 169.125 C 249.917969 175.527344 245.316406 181.992188 242.152344 184.140625 C 238.988281 186.289062 237.445312 184.996094 237.4375 182.527344 C 237.429688 180.210938 233.476562 172.710938 227.859375 171.261719 C 219.148438 182.132812 224.660156 189.8125 230.839844 192.363281 C 237.078125 194.9375 245.511719 191.535156 249.269531 180.855469 C 250.929688 176.140625 252.65625 172.328125 253.5625 169.125 " fill-opacity="1" fill-rule="nonzero"/><path fill="#f4cf45" d="M 252.089844 163.046875 C 249.988281 160.230469 249.71875 160.542969 247.71875 167.5625 C 245.714844 174.582031 242.78125 178.597656 246 176.148438 C 249.210938 173.695312 254.550781 166.351562 252.089844 163.046875 " fill-opacity="1" fill-rule="nonzero"/><path fill="#f4bc0f" d="M 264.882812 175.601562 C 254.082031 165.910156 249.480469 179.175781 243.363281 186.554688 C 237.246094 193.925781 238.027344 195.738281 243.789062 200.582031 C 249.550781 205.429688 253.90625 206.363281 259.921875 200.511719 C 265.9375 194.65625 270.277344 180.441406 264.882812 175.601562 " fill-opacity="1" fill-rule="nonzero"/><path fill="#e2851a" d="M 258.445312 193.640625 C 255.933594 195.511719 256.171875 191.011719 252.214844 188.921875 C 249.128906 187.292969 247.101562 184.242188 246.28125 182.582031 C 245.328125 183.976562 244.363281 185.34375 243.363281 186.554688 C 237.246094 193.925781 238.027344 195.738281 243.789062 200.582031 C 249.550781 205.429688 253.90625 206.363281 259.921875 200.511719 C 263.738281 196.796875 266.878906 189.714844 267.285156 183.796875 C 264.265625 189.125 260.953125 191.765625 258.445312 193.640625 " fill-opacity="1" fill-rule="nonzero"/><path fill="#f4cf45" d="M 265.734375 180.042969 C 265.316406 177.597656 262.632812 177.539062 262.167969 182.25 C 261.703125 186.964844 259.523438 189.019531 261.898438 187.921875 C 264.269531 186.820312 266.082031 182.058594 265.734375 180.042969 " fill-opacity="1" fill-rule="nonzero"/><path fill="#f4bc0f" d="M 275.832031 189.898438 C 270.207031 184.976562 266.117188 187.636719 258.859375 195.632812 C 251.601562 203.628906 245.980469 210.589844 251.679688 215.734375 C 257.378906 220.878906 267.023438 214.007812 273.996094 206.488281 C 280.96875 198.964844 279.144531 192.796875 275.832031 189.898438 " fill-opacity="1" fill-rule="nonzero"/><path fill="#e2851a" d="M 267.863281 205.273438 C 264.480469 202.964844 257.660156 205.679688 257.851562 202.75 C 257.941406 201.414062 257.453125 199.910156 256.429688 198.359375 C 250.457031 205.214844 246.636719 211.183594 251.679688 215.734375 C 257.378906 220.878906 267.023438 214.007812 273.996094 206.488281 C 277.1875 203.042969 278.523438 199.890625 278.730469 197.199219 C 276.375 202.597656 271.234375 207.582031 267.863281 205.273438 " fill-opacity="1" fill-rule="nonzero"/><path fill="#f4cf45" d="M 276.515625 193.816406 C 275.921875 190.683594 272.222656 191.59375 271.867188 195.234375 C 271.507812 198.875 269.386719 201.207031 270.613281 201.957031 C 271.84375 202.707031 277.5 199.027344 276.515625 193.816406 " fill-opacity="1" fill-rule="nonzero"/><path fill="#f4bc0f" d="M 288.832031 205.332031 C 281.066406 198.851562 274.699219 202.761719 268.328125 211.039062 C 261.953125 219.3125 258.777344 229.183594 265.664062 232.207031 C 272.554688 235.230469 282.308594 232.644531 287.671875 226 C 293.03125 219.355469 294.734375 210.257812 288.832031 205.332031 " fill-opacity="1" fill-rule="nonzero"/><path fill="#e2851a" d="M 287.671875 226 C 293.03125 219.355469 294.734375 210.257812 288.832031 205.332031 C 286.519531 203.402344 284.332031 202.414062 282.230469 202.167969 C 282.546875 202.800781 283.113281 203.636719 283.992188 204.722656 C 288.640625 210.457031 292.046875 212.011719 289.558594 217.894531 C 287.078125 223.777344 283.601562 220.089844 281.320312 220.972656 C 279.042969 221.859375 275.484375 220.410156 275.335938 217.582031 C 275.203125 214.960938 273.65625 209.101562 270.660156 208.21875 C 269.882812 209.085938 269.101562 210.027344 268.328125 211.039062 C 261.953125 219.3125 258.777344 229.183594 265.664062 232.207031 C 272.554688 235.230469 282.308594 232.644531 287.671875 226 " fill-opacity="1" fill-rule="nonzero"/><path fill="#f4cf45" d="M 287.820312 213.632812 C 287.023438 211.816406 285.332031 212.460938 284.171875 214.820312 C 283.015625 217.179688 281.636719 217.714844 283.117188 218.660156 C 284.601562 219.601562 288.746094 215.746094 287.820312 213.632812 " fill-opacity="1" fill-rule="nonzero"/><path fill="#f4bc0f" d="M 298.574219 224.335938 C 288.105469 219.425781 289.996094 222.308594 282.097656 230.699219 C 274.195312 239.09375 276.269531 246.03125 282.007812 248.007812 C 287.746094 249.984375 298.398438 238.90625 300.945312 233.527344 C 303.492188 228.144531 298.574219 224.335938 298.574219 224.335938 " fill-opacity="1" fill-rule="nonzero"/><path fill="#e2851a" d="M 298.574219 224.335938 C 296.34375 223.289062 294.679688 222.601562 293.359375 222.238281 C 294.761719 224.203125 299.613281 226.558594 298.226562 231.851562 C 296.839844 237.144531 295.773438 238.921875 293.484375 238.828125 C 291.199219 238.734375 289.292969 239.855469 288.996094 236.289062 C 288.707031 232.71875 290.851562 230.507812 286.835938 226.890625 C 286.542969 226.628906 286.21875 226.4375 285.875 226.300781 C 284.890625 227.527344 283.695312 229 282.097656 230.699219 C 274.195312 239.09375 276.269531 246.03125 282.007812 248.007812 C 287.746094 249.984375 298.398438 238.90625 300.945312 233.527344 C 303.492188 228.144531 298.574219 224.335938 298.574219 224.335938 " fill-opacity="1" fill-rule="nonzero"/><path fill="#f4cf45" d="M 296.429688 231.179688 C 295.933594 229.273438 294.203125 231.859375 293.667969 233.839844 C 293.132812 235.820312 293.449219 237.15625 294.605469 236.152344 C 295.757812 235.148438 296.925781 233.078125 296.429688 231.179688 " fill-opacity="1" fill-rule="nonzero"/><path fill="#e2851a" d="M 309.574219 239.683594 C 302.476562 233.289062 295.878906 238.546875 291.441406 245.183594 C 287 251.820312 290.980469 262.339844 296.574219 262.597656 C 302.164062 262.859375 319.28125 248.429688 309.574219 239.683594 " fill-opacity="1" fill-rule="nonzero"/><path fill="#f4bc0f" d="M 88.257812 71.96875 C 79.445312 63.570312 67.742188 72.6875 66.195312 77.40625 C 64.648438 82.128906 70.074219 89.992188 78.050781 88.46875 C 86.027344 86.945312 95.214844 78.597656 88.257812 71.96875 " fill-opacity="1" fill-rule="nonzero"/><path fill="#e2851a" d="M 88.257812 71.96875 C 90.933594 74.398438 83.707031 81.140625 81.4375 81.722656 C 79.171875 82.304688 78.503906 78.957031 76.417969 75.375 C 74.339844 71.800781 68.4375 73.414062 73.21875 70.390625 C 69.625 72.296875 66.890625 75.292969 66.195312 77.40625 C 64.648438 82.128906 70.074219 89.992188 78.054688 88.46875 C 86.027344 86.945312 95.214844 78.597656 88.257812 71.96875 " fill-opacity="1" fill-rule="nonzero"/><path fill="#f4cf45" d="M 83.054688 69.738281 C 84.6875 70.523438 86.699219 72.324219 86.703125 74.140625 C 86.707031 75.953125 84.640625 78.675781 83.210938 79.375 C 81.78125 80.074219 81.550781 78.34375 83.015625 76.382812 C 84.476562 74.425781 81.941406 71.839844 81.917969 70.5625 C 81.894531 69.28125 83.054688 69.738281 83.054688 69.738281 " fill-opacity="1" fill-rule="nonzero"/><path fill="#f4bc0f" d="M 102.679688 74.621094 C 93.976562 69.722656 83.675781 81.203125 81.9375 86.820312 C 80.207031 92.445312 85.484375 98.9375 93.304688 98.460938 C 101.128906 97.988281 106.476562 88.066406 106.773438 83.027344 C 107.066406 77.988281 102.679688 74.621094 102.679688 74.621094 " fill-opacity="1" fill-rule="nonzero"/><path fill="#e2851a" d="M 106.636719 81.007812 C 107.230469 85.050781 103.070312 86.425781 100.5 87.589844 C 97.914062 88.757812 95.523438 92.628906 92.527344 94.925781 C 89.535156 97.230469 88.070312 94.199219 86.226562 91.234375 C 84.382812 88.269531 84.515625 87.445312 84.351562 85.597656 C 84.183594 83.753906 88.144531 77.710938 94.046875 74.273438 C 88.191406 76.566406 83.109375 83.027344 81.9375 86.820312 C 80.207031 92.445312 85.484375 98.9375 93.304688 98.460938 C 101.128906 97.988281 106.476562 88.066406 106.773438 83.027344 C 106.8125 82.320312 106.753906 81.648438 106.636719 81.007812 " fill-opacity="1" fill-rule="nonzero"/><path fill="#f4cf45" d="M 101.046875 75.285156 C 104.460938 76.894531 106.25 80.082031 104.957031 82.53125 C 103.664062 84.976562 101.523438 84.847656 99.539062 86.515625 C 97.558594 88.191406 96.632812 84.203125 98.972656 82.21875 C 101.316406 80.230469 98.898438 74.269531 101.046875 75.285156 " fill-opacity="1" fill-rule="nonzero"/><path fill="#f4bc0f" d="M 118.28125 89.132812 C 112.488281 84.277344 103.359375 86.46875 97.074219 93.34375 C 90.789062 100.214844 88.816406 105.226562 95.058594 111.394531 C 101.304688 117.5625 110.816406 113.835938 117.59375 106.738281 C 124.367188 99.632812 124.355469 94.222656 118.28125 89.132812 " fill-opacity="1" fill-rule="nonzero"/><path fill="#e2851a" d="M 117.59375 106.734375 C 122.925781 101.148438 124.035156 96.605469 121.3125 92.445312 C 122.539062 95.175781 122.21875 96.882812 117.238281 100.167969 C 112.214844 103.480469 109.679688 108.90625 104.921875 103.042969 C 100.195312 97.21875 94.167969 96.933594 95.207031 95.503906 C 90.46875 101.304688 89.488281 105.894531 95.058594 111.394531 C 101.304688 117.5625 110.820312 113.835938 117.59375 106.734375 " fill-opacity="1" fill-rule="nonzero"/><path fill="#f4cf45" d="M 117.375 89.902344 C 114.304688 87.507812 111.523438 89.226562 111.988281 92.003906 C 112.457031 94.777344 113.074219 95.851562 111.523438 98.761719 C 109.96875 101.679688 112.828125 100.929688 115.640625 99.414062 C 118.453125 97.898438 122.992188 93.910156 117.375 89.902344 " fill-opacity="1" fill-rule="nonzero"/><path fill="#f4bc0f" d="M 135.960938 100.726562 C 127.144531 93.535156 118.238281 101.792969 110.957031 110.167969 C 103.679688 118.542969 105.535156 126.730469 115.875 130.820312 C 126.210938 134.910156 135.488281 124.253906 139.351562 117.039062 C 143.21875 109.824219 140.628906 104.53125 135.960938 100.726562 " fill-opacity="1" fill-rule="nonzero"/><path fill="#e2851a" d="M 140.375 106.273438 C 141.121094 107.761719 140.375 109.402344 138.375 112.71875 C 136.363281 116.058594 130.355469 119.945312 124.3125 115.230469 C 118.289062 110.53125 110.628906 114.027344 110.347656 110.925781 C 103.824219 119.03125 105.847656 126.851562 115.875 130.820312 C 126.210938 134.910156 135.488281 124.253906 139.351562 117.039062 C 141.613281 112.824219 141.65625 109.265625 140.375 106.273438 " fill-opacity="1" fill-rule="nonzero"/><path fill="#f4cf45" d="M 136.101562 102.617188 C 132.617188 99.230469 131.761719 101.234375 132.320312 106.664062 C 132.875 112.097656 131.519531 115.039062 133.296875 114.871094 C 135.070312 114.707031 140.167969 110.90625 139.433594 107.484375 C 138.703125 104.0625 136.101562 102.617188 136.101562 102.617188 " fill-opacity="1" fill-rule="nonzero"/><path fill="#f4bc0f" d="M 151.300781 114.082031 C 141.222656 110.613281 131.074219 121.644531 126.910156 128.300781 C 122.738281 134.957031 130.289062 144.921875 138.835938 146.78125 C 147.378906 148.636719 158.941406 134.359375 160.507812 127.328125 C 162.078125 120.300781 151.300781 114.082031 151.300781 114.082031 " fill-opacity="1" fill-rule="nonzero"/><path fill="#e2851a" d="M 160.507812 127.328125 C 161.109375 124.636719 159.898438 122.0625 158.171875 119.910156 C 158.171875 119.910156 159.769531 124.335938 156.734375 127.753906 C 153.703125 131.175781 145.328125 138.234375 142.605469 133.042969 C 139.882812 127.847656 135.800781 127.734375 131.183594 126.464844 C 130.277344 126.21875 129.359375 126.09375 128.492188 125.972656 C 127.902344 126.785156 127.367188 127.570312 126.910156 128.300781 C 122.738281 134.957031 130.289062 144.921875 138.835938 146.78125 C 147.378906 148.636719 158.941406 134.359375 160.507812 127.328125 " fill-opacity="1" fill-rule="nonzero"/><path fill="#f4cf45" d="M 154.449219 118.152344 C 150.25 115.40625 151.878906 119.648438 151.953125 123.371094 C 152.03125 127.089844 150.816406 131.257812 153.441406 129.277344 C 156.070312 127.300781 159.054688 121.820312 154.449219 118.152344 " fill-opacity="1" fill-rule="nonzero"/><path fill="#f4bc0f" d="M 174.28125 127.945312 C 163.976562 121.070312 149.578125 135.875 145.644531 146.386719 C 141.710938 156.90625 155.1875 165.046875 165.398438 162.273438 C 175.609375 159.5 194.375 141.355469 174.28125 127.945312 " fill-opacity="1" fill-rule="nonzero"/><path fill="#e2851a" d="M 180.21875 133.347656 C 182.394531 138.171875 182.898438 142.054688 176.699219 149.328125 C 170.203125 156.960938 164.085938 155.773438 157.964844 150.414062 C 152.277344 145.429688 148.316406 147.390625 145.617188 146.46875 C 141.785156 156.945312 155.214844 165.039062 165.398438 162.273438 C 174.289062 159.859375 189.648438 145.792969 180.21875 133.347656 " fill-opacity="1" fill-rule="nonzero"/><path fill="#f4cf45" d="M 176.492188 131.5625 C 171.363281 127.609375 167.308594 130.644531 168.921875 135.921875 C 170.539062 141.199219 170.027344 143.050781 168.601562 146.652344 C 167.175781 150.257812 171.097656 150.289062 176.007812 144.191406 C 180.917969 138.09375 178.730469 134.09375 176.492188 131.5625 " fill-opacity="1" fill-rule="nonzero"/><path fill="#f4bc0f" d="M 193.746094 142.59375 C 185.386719 140.683594 168.527344 153.4375 163.675781 164.9375 C 158.820312 176.433594 172.144531 186.675781 184.730469 181.570312 C 197.316406 176.464844 216.054688 146.148438 193.746094 142.59375 " fill-opacity="1" fill-rule="nonzero"/><path fill="#e2851a" d="M 201.855469 146.539062 C 202.234375 147.503906 202.429688 148.570312 202.273438 149.730469 C 201.582031 154.765625 192.191406 157.648438 186.011719 166.519531 C 179.828125 175.386719 180.273438 170.875 175.0625 166.214844 C 169.855469 161.558594 166.898438 163.917969 165.402344 161.582031 C 164.726562 162.703125 164.144531 163.828125 163.675781 164.9375 C 158.820312 176.433594 172.144531 186.675781 184.730469 181.570312 C 195.152344 177.34375 209.792969 155.832031 201.855469 146.539062 " fill-opacity="1" fill-rule="nonzero"/><path fill="#f4cf45" d="M 198.21875 145.101562 C 194.851562 143.511719 190.363281 143.804688 190.355469 146.457031 C 190.355469 149.109375 192.675781 151.914062 190.105469 155.648438 C 187.53125 159.378906 193.140625 157.289062 197.339844 153.339844 C 201.542969 149.386719 200.59375 146.582031 198.21875 145.101562 " fill-opacity="1" fill-rule="nonzero"/><path fill="#f4bc0f" d="M 217.632812 161.183594 C 215.105469 155.675781 204.691406 151.710938 193.191406 163.714844 C 181.695312 175.722656 179.421875 188.757812 187.734375 194.488281 C 196.046875 200.214844 226.210938 179.867188 217.632812 161.183594 " fill-opacity="1" fill-rule="nonzero"/><path fill="#e2851a" d="M 218.742188 164.472656 C 219.359375 168.132812 211.296875 173.777344 205.125 182.902344 C 198.691406 192.421875 196.710938 188.160156 191.574219 182.558594 C 186.441406 176.953125 184.988281 180.71875 184.171875 177.359375 C 181.496094 184.554688 182.574219 190.933594 187.734375 194.488281 C 195.558594 199.882812 222.746094 182.160156 218.742188 164.472656 " fill-opacity="1" fill-rule="nonzero"/><path fill="#f4cf45" d="M 211.011719 158.816406 C 214.132812 159.375 221.019531 161.992188 214.8125 168.632812 C 208.605469 175.273438 206.726562 178.769531 205.582031 178.503906 C 204.4375 178.238281 205.882812 172.304688 208.753906 168.5 C 211.625 164.699219 208.464844 159.015625 211.011719 158.816406 " fill-opacity="1" fill-rule="nonzero"/><path fill="#f4bc0f" d="M 228.105469 170.949219 C 219.222656 165.820312 213.964844 176.828125 205.550781 187.160156 C 197.132812 197.492188 190.007812 201.148438 197.261719 210.109375 C 204.515625 219.066406 215.496094 214.796875 224.691406 203.789062 C 233.882812 192.777344 239.675781 177.640625 228.105469 170.949219 " fill-opacity="1" fill-rule="nonzero"/><path fill="#e2851a" d="M 232.464844 174.894531 C 234.519531 180.054688 233.660156 186.5 227.261719 193.613281 C 220.382812 201.257812 216.492188 202.820312 209.25 198.042969 C 202.003906 193.265625 198.667969 196.449219 201.429688 191.917969 L 201.429688 191.914062 C 195.125 198.886719 191.242188 202.675781 197.261719 210.109375 C 204.515625 219.066406 215.496094 214.796875 224.691406 203.789062 C 232.371094 194.59375 237.664062 182.519531 232.464844 174.894531 " fill-opacity="1" fill-rule="nonzero"/><path fill="#f4cf45" d="M 228.410156 172.960938 C 223.59375 168.902344 221.082031 173.90625 222.261719 182.261719 C 223.4375 190.621094 223.894531 192.691406 228.957031 187.839844 C 234.019531 182.984375 232.558594 176.457031 228.410156 172.960938 " fill-opacity="1" fill-rule="nonzero"/><path fill="#f4bc0f" d="M 251.703125 190.738281 C 245.070312 185.324219 238.8125 184.90625 229.019531 195.496094 C 219.230469 206.085938 207.085938 214.003906 209.683594 221.210938 C 212.285156 228.417969 220.402344 238.253906 233.292969 230.644531 C 246.183594 223.035156 265.363281 201.886719 251.703125 190.738281 " fill-opacity="1" fill-rule="nonzero"/><path fill="#e2851a" d="M 255.464844 195.609375 C 257.035156 200.730469 251.777344 204.117188 247.546875 211.039062 C 243.296875 217.996094 236.277344 222.777344 229.011719 216.957031 C 221.738281 211.136719 221.382812 214.382812 213.777344 217.035156 C 212.277344 217.554688 210.875 217.570312 209.636719 217.175781 C 209.234375 218.554688 209.210938 219.894531 209.683594 221.210938 C 212.285156 228.417969 220.402344 238.253906 233.292969 230.644531 C 244.488281 224.039062 260.410156 207.222656 255.464844 195.609375 " fill-opacity="1" fill-rule="nonzero"/><path fill="#f4cf45" d="M 250.574219 192.03125 C 246.652344 187.347656 241.238281 189.644531 243.582031 193.742188 C 245.925781 197.839844 248.578125 197.746094 246.21875 203.253906 C 243.859375 208.761719 249.429688 206.972656 253.105469 201.800781 C 256.785156 196.632812 250.574219 192.03125 250.574219 192.03125 " fill-opacity="1" fill-rule="nonzero"/><path fill="#f4bc0f" d="M 270.59375 210.316406 C 262.277344 201.886719 253.800781 209.578125 245.441406 218.289062 C 237.078125 227 230.414062 231.027344 231.984375 237.957031 C 233.550781 244.886719 246.199219 248.894531 256.089844 242.792969 C 265.976562 236.695312 280.75 222.328125 270.59375 210.316406 " fill-opacity="1" fill-rule="nonzero"/><path fill="#e2851a" d="M 273.121094 214.488281 C 272.996094 215.222656 272.878906 215.976562 272.773438 216.722656 C 271.75 224.015625 266.238281 223.742188 259.226562 232.402344 C 252.214844 241.0625 252.902344 234.824219 247.121094 229.429688 C 243.796875 226.332031 239.351562 227 237.476562 226.132812 C 233.394531 230.222656 230.972656 233.488281 231.984375 237.957031 C 232.167969 238.765625 232.511719 239.527344 232.976562 240.246094 C 233.984375 241.230469 235.050781 242.265625 236.089844 243.246094 C 240.976562 246.378906 249.199219 247.046875 256.089844 242.792969 C 264.855469 237.386719 277.441406 225.484375 273.121094 214.488281 " fill-opacity="1" fill-rule="nonzero"/><path fill="#f4cf45" d="M 269.332031 211.652344 C 266.351562 208.816406 261.042969 209.578125 262.617188 214.660156 C 264.191406 219.742188 262.425781 221.550781 258.84375 226.109375 C 255.261719 230.667969 259.054688 229.992188 265.070312 224.925781 C 271.089844 219.855469 273.015625 214.621094 269.332031 211.652344 " fill-opacity="1" fill-rule="nonzero"/><path fill="#f4bc0f" d="M 284.035156 225.386719 C 275.277344 219.1875 269.902344 222.246094 263.480469 230.078125 C 257.058594 237.90625 246.667969 243.835938 248.550781 249.894531 C 250.429688 255.953125 255.941406 263.1875 263.527344 260.78125 C 271.109375 258.371094 298.300781 237.800781 284.035156 225.386719 " fill-opacity="1" fill-rule="nonzero"/><path fill="#e2851a" d="M 286.078125 227.605469 C 288.859375 233.484375 280.984375 244.554688 272.296875 248.546875 C 263.589844 252.546875 267.476562 248.746094 262.214844 242.761719 C 260.222656 240.496094 258.082031 238.75 255.925781 237.738281 C 251.261719 242.101562 247.332031 245.972656 248.550781 249.894531 C 250.429688 255.953125 255.941406 263.1875 263.527344 260.78125 C 270.675781 258.511719 295.226562 240.105469 286.078125 227.605469 " fill-opacity="1" fill-rule="nonzero"/><path fill="#f4cf45" d="M 284.632812 231.167969 C 283.730469 228.359375 280.300781 234.828125 276.984375 239.347656 C 273.667969 243.871094 272.425781 248.179688 277.445312 243.09375 C 282.46875 238.007812 285.738281 234.597656 284.632812 231.167969 " fill-opacity="1" fill-rule="nonzero"/><path fill="#f4bc0f" d="M 296.511719 242.410156 C 289.882812 236.042969 282.699219 241.050781 275.558594 249.691406 C 268.417969 258.339844 259.691406 262.003906 263.085938 268.171875 C 266.480469 274.339844 277.925781 275.550781 287.722656 269.683594 C 297.519531 263.8125 303.378906 247.742188 296.511719 242.410156 " fill-opacity="1" fill-rule="nonzero"/><path fill="#e2851a" d="M 287.722656 269.683594 C 297.519531 263.8125 303.378906 247.742188 296.511719 242.410156 C 296.289062 242.195312 296.066406 242.027344 295.84375 241.84375 C 298.855469 245.632812 299.46875 246.636719 294.304688 254.804688 C 288.976562 263.230469 285.445312 268.183594 282.386719 263.832031 C 279.324219 259.480469 274.117188 257.421875 273.511719 256.980469 C 273.199219 256.753906 272.378906 255.363281 270.902344 254.621094 C 265.242188 260.015625 260.414062 263.320312 263.085938 268.171875 C 266.480469 274.339844 277.925781 275.550781 287.722656 269.683594 " fill-opacity="1" fill-rule="nonzero"/><path fill="#f4cf45" d="M 295.164062 249.421875 C 295.359375 247.140625 292.617188 248.40625 290.828125 251.980469 C 289.042969 255.558594 285.898438 258.453125 285.054688 260.238281 C 284.210938 262.027344 286.71875 262.617188 289.699219 258.597656 C 292.679688 254.578125 294.914062 252.394531 295.164062 249.421875 " fill-opacity="1" fill-rule="nonzero"/><path fill="#f4bc0f" d="M 306.972656 252.132812 C 298.554688 250.601562 294.675781 257.210938 287.476562 266.46875 C 280.277344 275.726562 274.789062 278.597656 281.492188 284.265625 C 288.195312 289.9375 300.109375 286.726562 307.015625 277.453125 C 313.925781 268.171875 316.1875 255.375 306.972656 252.132812 " fill-opacity="1" fill-rule="nonzero"/><path fill="#e2851a" d="M 307.015625 277.453125 C 313.925781 268.171875 316.1875 255.375 306.972656 252.132812 C 306.335938 252.015625 305.738281 251.960938 305.148438 251.9375 C 307.101562 255.382812 306.628906 256.710938 306.675781 262.488281 C 306.726562 268.613281 307.628906 271.988281 303.332031 276.148438 C 299.039062 280.3125 297.878906 275.046875 293.683594 273.460938 C 289.484375 271.875 287.886719 275.753906 287.910156 273.34375 C 287.929688 271.28125 286.386719 271.199219 285.425781 269.003906 C 279.320312 276.3125 275.445312 279.152344 281.492188 284.265625 C 288.195312 289.9375 300.109375 286.726562 307.015625 277.453125 " fill-opacity="1" fill-rule="nonzero"/><path fill="#f4cf45" d="M 303.777344 264.386719 C 303.886719 262.621094 301.972656 263.96875 302.011719 265.859375 C 302.050781 267.75 298.738281 270.507812 300.636719 272.132812 C 302.535156 273.753906 303.324219 273.90625 304.289062 270.46875 C 305.257812 267.03125 303.679688 265.949219 303.777344 264.386719 " fill-opacity="1" fill-rule="nonzero"/><path fill="#e2851a" d="M 321.398438 270.417969 C 303.96875 274.019531 293.097656 286.765625 294.375 294.582031 C 295.652344 302.394531 304.414062 308.140625 313.085938 299.378906 C 321.753906 290.613281 332.539062 274.828125 321.398438 270.417969 " fill-opacity="1" fill-rule="nonzero"/><path fill="#f4bc0f" d="M 246.746094 231.046875 C 240.894531 225.558594 232.503906 231 223.085938 242.429688 C 213.667969 253.859375 211.351562 262.648438 217.730469 267.546875 C 224.113281 272.449219 239.605469 263.316406 248.046875 252.03125 C 256.488281 240.742188 252.113281 236.082031 246.746094 231.046875 " fill-opacity="1" fill-rule="nonzero"/><path fill="#e2851a" d="M 214.1875 259.566406 C 214.757812 258.789062 215.488281 257.980469 216.394531 257.152344 C 221.019531 252.941406 227.703125 245.917969 232.066406 239.226562 C 235.722656 233.617188 237.046875 229.601562 240.914062 228.941406 C 235.828125 229.332031 229.714844 234.386719 223.085938 242.429688 C 217.554688 249.140625 214.5 254.929688 214.1875 259.566406 " fill-opacity="1" fill-rule="nonzero"/><path fill="#e2851a" d="M 248.046875 252.03125 C 254.386719 243.554688 253.5 238.816406 250.390625 234.847656 C 253.253906 240.191406 250.199219 240.253906 242.542969 245.691406 C 234.886719 251.132812 231.148438 258.464844 228.835938 262.671875 C 226.53125 266.878906 224.191406 270.109375 219.566406 267.820312 C 218.402344 267.246094 217.714844 267.097656 217.285156 267.15625 C 217.4375 267.285156 217.570312 267.425781 217.730469 267.546875 C 224.113281 272.449219 239.605469 263.316406 248.046875 252.03125 " fill-opacity="1" fill-rule="nonzero"/><path fill="#f4cf45" d="M 247.675781 234.644531 C 250.609375 236.878906 249.921875 239.410156 246.644531 241.027344 C 243.363281 242.644531 239.882812 246.636719 239.128906 246.183594 C 238.375 245.730469 238.421875 243.589844 241.042969 241.742188 C 243.660156 239.898438 246.578125 238.753906 245.84375 236.300781 C 245.105469 233.847656 246.265625 233.148438 247.675781 234.644531 " fill-opacity="1" fill-rule="nonzero"/><path fill="#f4cf45" d="M 228.492188 259.632812 C 226.273438 263.453125 224.046875 266.824219 221.5 266.390625 C 218.957031 265.960938 220.972656 262.457031 223 261.996094 C 225.03125 261.535156 225.015625 260.175781 226.964844 258.550781 C 228.921875 256.925781 229.792969 258.15625 228.492188 259.632812 " fill-opacity="1" fill-rule="nonzero"/><path fill="#f4bc0f" d="M 228.566406 218.527344 C 215.578125 208.066406 205.925781 219.066406 199.773438 226.78125 C 193.617188 234.492188 191.789062 244.113281 198.035156 251.183594 C 204.289062 258.257812 212.601562 259.285156 222.050781 250.75 C 231.5 242.21875 240.179688 230.003906 228.566406 218.527344 " fill-opacity="1" fill-rule="nonzero"/><path fill="#e2851a" d="M 233.632812 226.679688 C 233.15625 228.101562 232.363281 229.773438 231.121094 231.753906 C 227.054688 238.246094 219.074219 244.105469 217.132812 249.574219 C 215.191406 255.039062 208.054688 256.777344 201.96875 250.820312 C 195.882812 244.859375 195.074219 242.148438 199.8125 237.613281 C 204.554688 233.078125 211.332031 225.824219 213.234375 221.296875 C 214.820312 217.507812 218.878906 215.304688 222.789062 215.125 C 212.683594 211.386719 204.976562 220.257812 199.773438 226.78125 C 193.617188 234.492188 191.789062 244.113281 198.035156 251.183594 C 204.289062 258.257812 212.601562 259.285156 222.050781 250.75 C 229.28125 244.222656 236.046875 235.539062 233.632812 226.679688 " fill-opacity="1" fill-rule="nonzero"/><path fill="#f4cf45" d="M 230.246094 222.085938 C 228.152344 220.179688 229.1875 222.8125 228.679688 225.988281 C 228.164062 229.167969 227.398438 232.820312 224.507812 235.914062 C 221.609375 239.011719 226.5 237.21875 229.066406 233.261719 C 231.632812 229.300781 233.085938 225.320312 230.246094 222.085938 " fill-opacity="1" fill-rule="nonzero"/><path fill="#f4cf45" d="M 217.34375 244.25 C 214.214844 247.417969 215.496094 249.398438 212.023438 251.75 C 208.550781 254.105469 203.167969 250.308594 202.457031 248.8125 C 201.742188 247.324219 204.25 247.613281 207.335938 248.011719 C 210.421875 248.410156 212.101562 246.863281 214.078125 243.542969 C 216.054688 240.21875 220.121094 242.453125 217.34375 244.25 " fill-opacity="1" fill-rule="nonzero"/><path fill="#f4bc0f" d="M 211.457031 202.324219 C 202.5625 192.414062 195.691406 196.417969 187.78125 205.328125 C 179.871094 214.242188 171.390625 226.925781 174.640625 232.019531 C 177.890625 237.109375 187.8125 244.308594 195.535156 236.722656 C 203.261719 229.136719 214.351562 216.140625 214.941406 211.226562 C 215.53125 206.3125 213.523438 204.628906 211.457031 202.324219 " fill-opacity="1" fill-rule="nonzero"/><path fill="#e2851a" d="M 211.457031 202.324219 C 213.328125 206.136719 213.851562 211.292969 205.660156 216.207031 C 197.464844 221.117188 194.308594 232.585938 190.199219 236.59375 C 186.09375 240.597656 173.808594 234.097656 175.136719 227.46875 C 176.472656 220.839844 185.40625 212.4375 190.050781 207.46875 C 194.214844 203.015625 197.554688 196.828125 201.425781 196.535156 C 196.816406 196.472656 192.480469 200.035156 187.78125 205.328125 C 179.871094 214.242188 171.390625 226.925781 174.640625 232.019531 C 177.890625 237.109375 187.8125 244.308594 195.535156 236.722656 C 203.261719 229.136719 214.351562 216.140625 214.941406 211.226562 C 215.53125 206.3125 213.523438 204.628906 211.457031 202.324219 " fill-opacity="1" fill-rule="nonzero"/><path fill="#e2851a" d="M 202.941406 196.6875 C 202.898438 196.679688 202.859375 196.671875 202.816406 196.664062 C 202.859375 196.675781 202.898438 196.675781 202.941406 196.6875 " fill-opacity="1" fill-rule="nonzero"/><path fill="#f4cf45" d="M 209.105469 202.4375 C 206.5 198.992188 209.308594 206.207031 205.886719 210.457031 C 202.460938 214.703125 203.226562 217.574219 206.671875 214.386719 C 210.117188 211.203125 213.085938 206.332031 209.105469 202.4375 " fill-opacity="1" fill-rule="nonzero"/><path fill="#f4bc0f" d="M 186.707031 181.007812 C 174.546875 173.355469 170.714844 189.207031 160.894531 196.664062 C 151.078125 204.121094 152.386719 210.21875 159.410156 216.773438 C 166.433594 223.328125 176.078125 220.042969 182.367188 213.085938 C 188.652344 206.125 206.984375 193.769531 186.707031 181.007812 " fill-opacity="1" fill-rule="nonzero"/><path fill="#e2851a" d="M 182.324219 213.125 C 187.289062 207.632812 199.738281 198.773438 194.796875 189.011719 C 196.058594 191.898438 195.886719 192.945312 193.828125 197.074219 C 191.738281 201.269531 187.359375 203.070312 182.316406 210.316406 C 177.273438 217.5625 172.089844 219.007812 168.019531 218.863281 C 163.949219 218.71875 159.578125 216.507812 157.078125 211.222656 C 154.578125 205.929688 158.398438 204.804688 163.820312 200.988281 C 169.238281 197.175781 172.226562 191.601562 177.976562 185.445312 C 183.726562 179.296875 179.800781 179.0625 184.648438 179.964844 C 174.046875 175.203125 170.109375 189.679688 160.855469 196.707031 C 151.035156 204.160156 152.347656 210.265625 159.371094 216.816406 C 166.390625 223.371094 176.039062 220.085938 182.324219 213.125 " fill-opacity="1" fill-rule="nonzero"/><path fill="#f4cf45" d="M 192.339844 188.085938 C 189.9375 185.210938 187.382812 187.738281 187.253906 192.605469 C 187.125 197.46875 185.347656 199.058594 182.539062 202.058594 C 179.734375 205.0625 182.09375 207.265625 186 203.703125 C 189.90625 200.144531 196.347656 194.082031 192.339844 188.085938 " fill-opacity="1" fill-rule="nonzero"/><path fill="#f4cf45" d="M 175.359375 209.847656 C 171.921875 211.46875 171 214.40625 167.039062 214.433594 C 163.074219 214.460938 162.683594 216.625 165.773438 217.53125 C 168.867188 218.4375 173.585938 217.535156 175.253906 215.527344 C 176.921875 213.519531 179.144531 208.46875 175.359375 209.847656 " fill-opacity="1" fill-rule="nonzero"/><path fill="#f4bc0f" d="M 165.742188 163.1875 C 157.242188 163.175781 155.53125 171.761719 147.535156 178.554688 C 139.539062 185.34375 132.777344 188.765625 138.335938 197.792969 C 143.886719 206.824219 154.359375 209.128906 160.019531 202.195312 C 165.679688 195.257812 177.457031 186.5625 180.488281 180.339844 C 183.519531 174.121094 172.488281 163.601562 165.742188 163.1875 " fill-opacity="1" fill-rule="nonzero"/><path fill="#e2851a" d="M 138.335938 197.792969 C 143.886719 206.824219 154.359375 209.128906 160.019531 202.195312 C 165.679688 195.257812 177.457031 186.5625 180.488281 180.339844 C 181.300781 178.667969 181.09375 176.683594 180.230469 174.667969 C 182.242188 181.117188 169.566406 191.53125 162.816406 198.121094 C 155.605469 205.15625 148.875 206.804688 143.472656 200.40625 C 138.066406 194.007812 144.957031 190.425781 150.960938 186.4375 C 156.96875 182.445312 161.832031 175.617188 163.535156 170.007812 C 165.234375 164.402344 168.003906 163.644531 170.644531 164.789062 C 168.933594 163.867188 167.234375 163.28125 165.742188 163.1875 C 157.242188 163.175781 155.53125 171.761719 147.535156 178.554688 C 139.539062 185.34375 132.777344 188.765625 138.335938 197.792969 " fill-opacity="1" fill-rule="nonzero"/><path fill="#e2851a" d="M 179.59375 173.382812 C 179.472656 173.164062 179.347656 172.949219 179.214844 172.730469 C 179.320312 172.949219 179.445312 173.164062 179.59375 173.382812 " fill-opacity="1" fill-rule="nonzero"/><path fill="#f4cf45" d="M 176.457031 170.703125 C 173.355469 167.445312 170.121094 171.871094 171.75 175.738281 C 173.382812 179.605469 172.421875 180.957031 170.652344 184.039062 C 168.875 187.125 172.554688 188.476562 175.851562 183.65625 C 179.148438 178.832031 181.179688 175.988281 176.457031 170.703125 " fill-opacity="1" fill-rule="nonzero"/><path fill="#f4cf45" d="M 160.710938 194.886719 C 156.238281 193.953125 156.640625 199.566406 153.003906 200.328125 C 149.367188 201.09375 149.5 203.214844 152.574219 202.839844 C 155.644531 202.464844 159.773438 199.664062 161.355469 197.976562 C 162.929688 196.289062 162.082031 195.578125 160.710938 194.886719 " fill-opacity="1" fill-rule="nonzero"/><path fill="#f4bc0f" d="M 66.167969 72.820312 C 50.625 74.234375 48.78125 89.222656 53.460938 93.386719 C 58.136719 97.550781 63.652344 99.714844 73.425781 90.730469 C 83.195312 81.746094 75.988281 72.039062 66.167969 72.820312 " fill-opacity="1" fill-rule="nonzero"/><path fill="#e2851a" d="M 73.425781 90.730469 C 78.777344 85.808594 79.027344 80.675781 76.550781 77.164062 C 79.203125 83.003906 72.089844 90.1875 66.980469 92.632812 C 61.867188 95.078125 52.355469 92.011719 54.128906 83.9375 C 55.898438 75.859375 62.417969 73.484375 67.675781 72.792969 C 67.183594 72.773438 66.683594 72.785156 66.167969 72.820312 C 50.625 74.234375 48.78125 89.222656 53.460938 93.386719 C 58.136719 97.550781 63.652344 99.714844 73.425781 90.730469 " fill-opacity="1" fill-rule="nonzero"/><path fill="#f4cf45" d="M 74.074219 75.960938 C 71.925781 74.242188 69.269531 73.535156 67.859375 75.710938 C 66.453125 77.886719 67.371094 81.789062 68.773438 83.453125 C 70.171875 85.117188 73.0625 84.230469 74.535156 81.3125 C 76.011719 78.390625 74.933594 76.648438 74.074219 75.960938 " fill-opacity="1" fill-rule="nonzero"/><path fill="#e2851a" d="M 317.25 293.226562 C 313.507812 285.53125 305.507812 290.90625 298.8125 298.976562 C 292.109375 307.046875 282.722656 316.1875 290.230469 322.136719 C 297.734375 328.085938 311.90625 312.25 315.753906 306.78125 C 319.597656 301.3125 319.125 297.082031 317.25 293.226562 " fill-opacity="1" fill-rule="nonzero"/><path fill="#59b22c" d="M 342.585938 320.667969 C 353.199219 317.628906 354.085938 324.445312 359.085938 327.871094 C 364.085938 331.296875 371.679688 342.847656 373.402344 348.183594 C 375.128906 353.519531 363.746094 370.214844 360.695312 371.089844 C 357.640625 371.964844 357.226562 363.628906 352.871094 360.3125 C 348.515625 356.992188 336.019531 344.839844 334.257812 342.203125 C 332.496094 339.566406 342.585938 320.667969 342.585938 320.667969 " fill-opacity="1" fill-rule="nonzero"/><path fill="#4b9735" d="M 373.402344 348.183594 C 372.777344 346.246094 371.371094 343.484375 369.601562 340.59375 C 371.476562 349.285156 367.132812 351.0625 366.617188 347.421875 C 366.101562 343.78125 363.554688 333.121094 363.382812 341.691406 C 363.207031 350.265625 357.308594 355.605469 357.925781 346.238281 C 358.273438 340.953125 359.765625 333.621094 358.242188 327.230469 C 353.949219 323.675781 352.570312 317.808594 342.585938 320.667969 C 342.585938 320.667969 332.496094 339.566406 334.257812 342.203125 C 336.019531 344.839844 348.515625 356.992188 352.871094 360.3125 C 357.226562 363.628906 357.640625 371.964844 360.695312 371.089844 C 363.746094 370.214844 375.128906 353.519531 373.402344 348.183594 " fill-opacity="1" fill-rule="nonzero"/><path fill="#59b22c" d="M 345.035156 284.089844 C 345.035156 284.089844 363.78125 307.570312 346.15625 336.296875 C 328.53125 365.023438 292.066406 359.117188 284.804688 356.027344 C 277.542969 352.941406 345.035156 284.089844 345.035156 284.089844 " fill-opacity="1" fill-rule="nonzero"/><path fill="#4b9735" d="M 288.882812 357.261719 C 301.015625 360.058594 330.765625 361.378906 346.15625 336.296875 C 356.742188 319.042969 354.207031 303.691406 350.496094 294.171875 C 355.238281 310.230469 345.765625 326.371094 336.304688 336.492188 C 345.828125 319.691406 345.984375 311.414062 345.984375 311.414062 C 345.984375 311.414062 329.117188 353.503906 301.816406 353.851562 C 296.585938 353.921875 292.292969 355.230469 288.882812 357.261719 " fill-opacity="1" fill-rule="nonzero"/><path fill="#62c331" d="M 313.996094 300.335938 C 313.996094 300.335938 282.226562 331.46875 233.746094 306.945312 C 172.433594 275.925781 123.804688 257.164062 76.28125 270.613281 C 118.285156 278.207031 141.9375 294.875 176.125 320.117188 C 210.3125 345.367188 221.707031 359.230469 250.28125 361.234375 C 278.851562 363.234375 312.449219 324.25 313.996094 300.335938 " fill-opacity="1" fill-rule="nonzero"/><path fill="#59b22c" d="M 305.792969 306.414062 C 293.015625 329.183594 266.339844 345.722656 242.824219 338.402344 C 182.96875 319.761719 152.121094 276.066406 170.109375 278.492188 C 136.476562 266.441406 106.160156 262.160156 76.28125 270.613281 C 118.285156 278.207031 141.9375 294.875 176.125 320.117188 C 210.3125 345.367188 221.707031 359.230469 250.28125 361.234375 C 278.851562 363.234375 312.449219 324.25 313.996094 300.335938 C 313.996094 300.335938 311.125 303.144531 305.792969 306.414062 " fill-opacity="1" fill-rule="nonzero"/><path fill="#8ed23b" d="M 190.761719 290.941406 C 190.761719 290.941406 208.027344 296.832031 231.890625 309.347656 C 255.753906 321.859375 277.839844 321.105469 294.445312 314.777344 C 267.628906 331.777344 251.292969 321.410156 237.726562 314.789062 C 224.160156 308.167969 205.71875 296.070312 190.761719 290.941406 " fill-opacity="1" fill-rule="nonzero"/><path fill="#62c331" d="M 226.160156 86.285156 C 229.066406 104.691406 236.847656 132.675781 269.988281 179.925781 C 303.128906 227.171875 318.996094 264.09375 303.949219 306.304688 C 293.5 335.621094 248.394531 365.738281 217.621094 349.582031 C 262.25 371.757812 310.449219 370.265625 336.859375 325.203125 C 363.265625 280.144531 345.394531 237.09375 311.421875 194.09375 C 277.453125 151.09375 244.570312 130.464844 226.160156 86.285156 " fill-opacity="1" fill-rule="nonzero"/><path fill="#59b22c" d="M 343.941406 249.417969 C 346.417969 257.808594 345.230469 282.109375 334.8125 288.214844 C 323.976562 294.570312 322.050781 265.179688 301.65625 221.226562 C 281.265625 177.277344 269.136719 152.609375 282.9375 161.707031 C 259.878906 137.417969 239.324219 117.863281 226.160156 86.285156 C 229.066406 104.691406 236.847656 132.675781 269.988281 179.925781 C 303.128906 227.171875 318.996094 264.09375 303.949219 306.304688 C 293.703125 335.054688 250.128906 364.566406 219.421875 350.460938 C 263.542969 371.707031 310.808594 369.660156 336.859375 325.203125 C 351.976562 299.40625 352.566406 274.265625 343.941406 249.417969 " fill-opacity="1" fill-rule="nonzero"/><path fill="#59b22c" d="M 219.421875 350.460938 C 218.820312 350.171875 218.21875 349.878906 217.621094 349.582031 C 218.214844 349.894531 218.816406 350.179688 219.421875 350.460938 " fill-opacity="1" fill-rule="nonzero"/><path fill="#8ed23b" d="M 305.144531 189.972656 C 305.144531 189.972656 341.222656 231.894531 341.605469 266.152344 C 330.378906 240.46875 316.453125 204.867188 305.144531 189.972656 " fill-opacity="1" fill-rule="nonzero"/><path fill="#4b9735" d="M 336.859375 325.203125 C 345.6875 310.140625 349.554688 295.304688 349.53125 280.617188 C 345.652344 299.859375 326.609375 330.113281 301.015625 342.765625 C 288.503906 348.945312 276.722656 348.132812 267.585938 345.425781 C 251.984375 353.914062 234.210938 357.257812 219.421875 350.460938 C 263.542969 371.707031 310.808594 369.660156 336.859375 325.203125 " fill-opacity="1" fill-rule="nonzero"/><path fill="#4b9735" d="M 216.984375 350.445312 C 172.992188 316.734375 145.332031 269.898438 112.652344 266.296875 C 100.335938 265.910156 88.273438 267.21875 76.28125 270.613281 C 118.285156 278.207031 141.9375 294.875 176.125 320.117188 C 194.117188 333.402344 205.792969 343.535156 216.984375 350.445312 " fill-opacity="1" fill-rule="nonzero"/><path fill="#f4bc0f" d="M 85.484375 85.496094 C 77.664062 81.417969 65.226562 94.097656 65.457031 100.773438 C 65.683594 107.449219 73.523438 113.863281 80.660156 110.648438 C 87.792969 107.4375 93.910156 98.78125 92.621094 93.8125 C 91.339844 88.847656 85.484375 85.496094 85.484375 85.496094 " fill-opacity="1" fill-rule="nonzero"/><path fill="#e2851a" d="M 80.660156 110.648438 C 87.792969 107.4375 93.910156 98.78125 92.621094 93.8125 C 91.339844 88.847656 85.484375 85.496094 85.484375 85.496094 C 83.945312 84.695312 82.222656 84.550781 80.457031 84.875 C 84.277344 84.824219 93.238281 90.398438 88.484375 95.632812 C 86.339844 97.988281 81.875 100.441406 79.886719 104.351562 C 77.902344 108.265625 73.167969 109.917969 70.382812 106.5625 C 67.675781 103.296875 64.347656 98.566406 69.289062 92.347656 C 66.917969 95.230469 65.375 98.386719 65.457031 100.773438 C 65.683594 107.449219 73.523438 113.863281 80.660156 110.648438 " fill-opacity="1" fill-rule="nonzero"/><path fill="#f4cf45" d="M 86.976562 89.785156 C 84.03125 87.246094 80.273438 86.863281 79.179688 90.308594 C 78.089844 93.757812 79.554688 97.042969 78.144531 99.277344 C 76.738281 101.507812 78.515625 103.09375 82.8125 98.878906 C 87.113281 94.660156 89.640625 92.621094 86.976562 89.785156 " fill-opacity="1" fill-rule="nonzero"/><path fill="#f4bc0f" d="M 106.433594 105.050781 C 99.765625 96.273438 89.953125 96.796875 84.148438 103.003906 C 78.347656 109.210938 72.65625 116.585938 78.359375 124.0625 C 84.066406 131.542969 90.789062 132.550781 97.402344 126.753906 C 104.019531 120.957031 112.128906 112.539062 106.433594 105.050781 " fill-opacity="1" fill-rule="nonzero"/><path fill="#e2851a" d="M 107.582031 107.015625 C 107.835938 110.191406 106.96875 112.960938 100.964844 115.984375 C 94.914062 119.035156 96.199219 123.683594 92.941406 125.253906 C 89.6875 126.816406 83.472656 127.03125 80.132812 122.253906 C 76.792969 117.46875 78.550781 110.929688 81.929688 107.046875 C 85.289062 103.175781 87.554688 99.671875 93.238281 98.453125 C 89.847656 98.746094 86.632812 100.351562 84.148438 103.003906 C 78.347656 109.210938 72.65625 116.585938 78.359375 124.0625 C 84.066406 131.542969 90.789062 132.550781 97.402344 126.753906 C 103.445312 121.460938 110.703125 113.980469 107.582031 107.015625 " fill-opacity="1" fill-rule="nonzero"/><path fill="#f4cf45" d="M 100.753906 101.214844 C 96.417969 98.558594 93.980469 100.636719 93.757812 102.726562 C 93.53125 104.8125 96.347656 109.265625 94.011719 112.203125 C 91.675781 115.144531 94.203125 119.46875 97.304688 117.113281 C 100.410156 114.761719 105.113281 113.242188 106.21875 109.511719 C 107.324219 105.785156 100.753906 101.214844 100.753906 101.214844 " fill-opacity="1" fill-rule="nonzero"/><path fill="#f4bc0f" d="M 124.414062 117.078125 C 119.9375 112.898438 111.25 111.171875 102.574219 118.40625 C 93.898438 125.636719 87.75 137.847656 94.0625 144.933594 C 100.371094 152.023438 111.136719 148.964844 119.601562 140.675781 C 128.070312 132.386719 132.136719 126.5 124.414062 117.078125 " fill-opacity="1" fill-rule="nonzero"/><path fill="#e2851a" d="M 124.414062 117.078125 C 127.339844 123.332031 127.066406 125.039062 123.625 128.464844 C 120.1875 131.890625 114.625 132.632812 111.789062 137.957031 C 108.953125 143.273438 102.371094 145.617188 99.304688 144.074219 C 96.238281 142.535156 92.8125 140.613281 94.234375 133.757812 C 95.648438 126.945312 100.261719 119.601562 107.027344 115.453125 C 105.554688 116.199219 104.066406 117.160156 102.574219 118.40625 C 93.898438 125.636719 87.75 137.847656 94.0625 144.933594 C 100.371094 152.023438 111.136719 148.964844 119.601562 140.675781 C 128.070312 132.386719 132.136719 126.5 124.414062 117.078125 " fill-opacity="1" fill-rule="nonzero"/><path fill="#f4cf45" d="M 117.816406 115.074219 C 120.363281 115.609375 123.5 119.21875 123.964844 121.546875 C 124.429688 123.878906 123.613281 126.640625 118.585938 129.265625 C 113.558594 131.886719 109.351562 136.023438 109.238281 130.632812 C 109.121094 125.246094 115.984375 124.941406 114.773438 120.355469 C 113.566406 115.773438 115.832031 114.65625 117.816406 115.074219 " fill-opacity="1" fill-rule="nonzero"/><path fill="#f4bc0f" d="M 142.03125 134.242188 C 135.816406 123.914062 126.710938 128.804688 120.097656 134.757812 C 113.488281 140.710938 104.535156 154.207031 111.140625 160.945312 C 117.746094 167.683594 126.5 167.273438 133.1875 161.425781 C 139.875 155.574219 149.59375 147.046875 142.03125 134.242188 " fill-opacity="1" fill-rule="nonzero"/><path fill="#e2851a" d="M 144.777344 143.03125 C 144.222656 144.144531 142.976562 147.417969 139.550781 151.242188 C 133.8125 157.640625 120.753906 165.832031 114.160156 157.9375 C 108.253906 150.863281 112.351562 144.152344 115.222656 140.101562 C 110.105469 146.757812 106.105469 155.8125 111.140625 160.945312 C 117.746094 167.683594 126.5 167.273438 133.1875 161.425781 C 138.210938 157.03125 144.941406 151.125 144.777344 143.03125 " fill-opacity="1" fill-rule="nonzero"/><path fill="#e2851a" d="M 144.351562 139.800781 C 144.320312 139.671875 144.28125 139.539062 144.246094 139.410156 C 144.269531 139.539062 144.304688 139.667969 144.351562 139.800781 " fill-opacity="1" fill-rule="nonzero"/><path fill="#f4cf45" d="M 136.808594 130.476562 C 133.132812 129.320312 130.464844 129.855469 128.59375 132.324219 C 126.71875 134.792969 132.90625 139.050781 130.457031 142.714844 C 128.007812 146.375 128.140625 152.921875 131.46875 153.078125 C 134.796875 153.234375 140.976562 146.207031 142.804688 143.742188 C 144.632812 141.269531 142.285156 133.644531 136.808594 130.476562 " fill-opacity="1" fill-rule="nonzero"/><path fill="#f4bc0f" d="M 157.449219 151.503906 C 150.414062 145.386719 142.863281 146.925781 135.550781 154.175781 C 128.238281 161.421875 118.695312 172.207031 124.28125 179.496094 C 129.863281 186.78125 140.121094 191.761719 147.589844 185.691406 C 155.054688 179.628906 170.863281 161.949219 157.449219 151.503906 " fill-opacity="1" fill-rule="nonzero"/><path fill="#e2851a" d="M 147.589844 185.691406 C 153.851562 180.605469 165.984375 167.339844 161.804688 157.035156 C 163.160156 163.992188 158.785156 171.023438 154.511719 176.363281 C 150.238281 181.707031 142.433594 188.164062 138.601562 186.34375 C 134.769531 184.519531 131.503906 184.066406 126.613281 179.304688 C 121.722656 174.539062 123.984375 168.941406 129.074219 163.089844 C 134.15625 157.246094 140.433594 149.609375 147.71875 147.730469 C 143.675781 147.9375 139.578125 150.183594 135.550781 154.175781 C 128.238281 161.421875 118.695312 172.207031 124.28125 179.496094 C 129.863281 186.78125 140.121094 191.761719 147.589844 185.691406 " fill-opacity="1" fill-rule="nonzero"/><path fill="#f4cf45" d="M 158.101562 153.5625 C 155.515625 151.140625 147.800781 149.734375 147.992188 153.566406 C 148.179688 157.402344 153.015625 163.578125 147.808594 170.105469 C 142.601562 176.636719 148.253906 179.816406 152.222656 176.292969 C 156.195312 172.765625 163.746094 160.503906 158.101562 153.5625 " fill-opacity="1" fill-rule="nonzero"/><path fill="#f4bc0f" d="M 260.394531 243.78125 C 256.984375 240.367188 246.4375 244.84375 240.683594 251.058594 C 234.929688 257.269531 224.554688 266.335938 233.253906 275.292969 C 241.957031 284.253906 252.269531 273.898438 257.242188 269.253906 C 262.210938 264.617188 266.925781 250.324219 260.394531 243.78125 " fill-opacity="1" fill-rule="nonzero"/><path fill="#e2851a" d="M 260.394531 243.78125 C 259.492188 242.878906 258.082031 242.53125 256.398438 242.621094 C 258.476562 243.832031 261.527344 244.640625 261.558594 249.972656 C 261.589844 255.609375 260.691406 259.460938 254.15625 267.003906 C 247.625 274.550781 242.949219 277.769531 238.96875 277.582031 C 234.992188 277.394531 232.203125 273.515625 230.523438 271.191406 C 231.046875 272.554688 231.925781 273.925781 233.253906 275.292969 C 241.957031 284.253906 252.269531 273.898438 257.242188 269.253906 C 262.210938 264.617188 266.925781 250.324219 260.394531 243.78125 " fill-opacity="1" fill-rule="nonzero"/><path fill="#f4cf45" d="M 257.574219 246.566406 C 259.695312 249.636719 260.03125 254.050781 257.285156 258.652344 C 254.542969 263.257812 251.792969 267.644531 250.105469 267.003906 C 248.417969 266.363281 248.566406 260.167969 251.984375 256.921875 C 255.398438 253.671875 256.789062 251.855469 256.574219 248.746094 C 256.359375 245.644531 256.613281 245.175781 257.574219 246.566406 " fill-opacity="1" fill-rule="nonzero"/><path fill="#f4bc0f" d="M 279.023438 262.191406 C 273.75 257.742188 266.035156 255.335938 258.074219 264.757812 C 250.113281 274.175781 240.195312 284.558594 252.832031 293.589844 C 265.472656 302.617188 275.28125 291.304688 279.070312 286.648438 C 282.859375 281.984375 293.164062 274.121094 279.023438 262.191406 " fill-opacity="1" fill-rule="nonzero"/><path fill="#e2851a" d="M 279.023438 262.191406 C 277.523438 260.929688 275.824219 259.84375 273.984375 259.132812 C 278.34375 262.40625 281.734375 264.902344 280.617188 269.082031 C 279.496094 273.273438 278.535156 272.808594 277.582031 276.984375 C 276.632812 281.164062 275.734375 285.617188 267.972656 288.929688 C 260.210938 292.246094 259.976562 299.164062 251.996094 292.808594 C 251.558594 292.457031 251.117188 292.136719 250.675781 291.835938 C 251.3125 292.425781 252.023438 293.011719 252.832031 293.589844 C 265.472656 302.617188 275.28125 291.304688 279.070312 286.648438 C 282.859375 281.984375 293.164062 274.121094 279.023438 262.191406 " fill-opacity="1" fill-rule="nonzero"/><path fill="#f4cf45" d="M 274.09375 263.078125 C 279.734375 263.652344 280.246094 267.816406 277.734375 271.921875 C 275.21875 276.023438 276.980469 277.964844 274.417969 278.617188 C 271.851562 279.269531 268.796875 276.644531 271.664062 272.042969 C 274.527344 267.445312 271.175781 262.773438 274.09375 263.078125 " fill-opacity="1" fill-rule="nonzero"/><path fill="#f4bc0f" d="M 300.148438 279.507812 C 291.070312 271.574219 281.378906 281.542969 275.355469 289.5625 C 269.332031 297.585938 267.480469 307.027344 273.4375 312.8125 C 279.394531 318.597656 289.902344 315.042969 297.207031 305.875 C 304.507812 296.710938 308.613281 286.90625 300.148438 279.507812 " fill-opacity="1" fill-rule="nonzero"/><path fill="#e2851a" d="M 303.390625 283.429688 C 305.109375 291.582031 297.746094 297.160156 292.496094 302.777344 C 287.246094 308.394531 285.132812 314.847656 276.191406 309.921875 C 267.25 305 271.046875 297.34375 277.042969 291.316406 C 283.035156 285.289062 285.085938 278.835938 290.3125 276.980469 C 284.574219 278.503906 279.210938 284.429688 275.355469 289.5625 C 269.332031 297.585938 267.480469 307.027344 273.4375 312.8125 C 279.394531 318.597656 289.902344 315.042969 297.207031 305.878906 C 303.28125 298.253906 307.136719 290.1875 303.390625 283.429688 " fill-opacity="1" fill-rule="nonzero"/><path fill="#f4cf45" d="M 300.074219 281.042969 C 297.421875 278.574219 293.742188 281.113281 295.359375 286.082031 C 296.980469 291.050781 295.839844 293.085938 293.394531 295.703125 C 290.949219 298.316406 293.289062 300.824219 297.648438 295.808594 C 302.007812 290.796875 304.585938 285.53125 300.074219 281.042969 " fill-opacity="1" fill-rule="nonzero"/></svg>