<svg xmlns="http://www.w3.org/2000/svg" xmlns:xlink="http://www.w3.org/1999/xlink" width="500" zoomAndPan="magnify" viewBox="0 0 375 374.999991" height="500" preserveAspectRatio="xMidYMid meet" version="1.0"><defs><clipPath id="69fd1db179"><path d="M 0 329 L 375 329 L 375 357.953125 L 0 357.953125 Z M 0 329 " clip-rule="nonzero"/></clipPath><clipPath id="342b904cfd"><path d="M 276 16.703125 L 316 16.703125 L 316 55 L 276 55 Z M 276 16.703125 " clip-rule="nonzero"/></clipPath></defs><path fill="#7ecd50" d="M 94.8125 258.996094 L 32.765625 258.996094 L 32.765625 337.527344 L 94.8125 337.527344 L 94.8125 258.996094 " fill-opacity="1" fill-rule="nonzero"/><path fill="#040505" d="M 94.8125 258.996094 L 94.8125 255.039062 L 32.765625 255.039062 C 31.71875 255.039062 30.707031 255.46875 29.960938 256.210938 C 29.234375 256.9375 28.804688 257.953125 28.804688 258.996094 L 28.804688 337.527344 C 28.804688 338.574219 29.234375 339.601562 29.960938 340.328125 C 30.707031 341.070312 31.71875 341.484375 32.765625 341.484375 L 94.8125 341.484375 C 95.855469 341.484375 96.886719 341.070312 97.613281 340.328125 C 98.359375 339.601562 98.769531 338.574219 98.769531 337.527344 L 98.769531 258.996094 C 98.769531 257.953125 98.359375 256.9375 97.613281 256.210938 C 96.886719 255.46875 95.855469 255.039062 94.8125 255.039062 L 94.8125 258.996094 L 90.851562 258.996094 L 90.851562 333.574219 L 36.722656 333.574219 L 36.722656 262.949219 L 94.8125 262.949219 L 94.8125 258.996094 L 90.851562 258.996094 L 94.8125 258.996094 " fill-opacity="1" fill-rule="nonzero"/><path fill="#7ecd50" d="M 179.234375 216.835938 L 117.15625 216.835938 L 117.15625 337.527344 L 179.234375 337.527344 L 179.234375 216.835938 " fill-opacity="1" fill-rule="nonzero"/><path fill="#040505" d="M 179.234375 216.835938 L 179.234375 212.878906 L 117.15625 212.878906 C 116.125 212.878906 115.097656 213.304688 114.367188 214.035156 C 113.625 214.777344 113.195312 215.804688 113.195312 216.835938 L 113.195312 337.527344 C 113.195312 338.574219 113.625 339.601562 114.367188 340.328125 C 115.097656 341.070312 116.125 341.484375 117.15625 341.484375 L 179.234375 341.484375 C 180.261719 341.484375 181.292969 341.070312 182.019531 340.328125 C 182.765625 339.601562 183.191406 338.574219 183.191406 337.527344 L 183.191406 216.835938 C 183.191406 215.804688 182.765625 214.777344 182.019531 214.035156 C 181.292969 213.304688 180.261719 212.878906 179.234375 212.878906 L 179.234375 216.835938 L 175.257812 216.835938 L 175.257812 333.574219 L 121.113281 333.574219 L 121.113281 220.789062 L 179.234375 220.789062 L 179.234375 216.835938 L 175.257812 216.835938 L 179.234375 216.835938 " fill-opacity="1" fill-rule="nonzero"/><path fill="#7ecd50" d="M 342.234375 105.300781 L 280.171875 105.300781 L 280.171875 337.527344 L 342.234375 337.527344 L 342.234375 105.300781 " fill-opacity="1" fill-rule="nonzero"/><path fill="#040505" d="M 342.234375 105.300781 L 342.234375 101.34375 L 280.171875 101.34375 C 279.128906 101.34375 278.113281 101.773438 277.371094 102.5 C 276.640625 103.242188 276.214844 104.273438 276.214844 105.300781 L 276.214844 337.527344 C 276.214844 338.574219 276.640625 339.601562 277.371094 340.328125 C 278.113281 341.070312 279.128906 341.484375 280.171875 341.484375 L 342.234375 341.484375 C 343.28125 341.484375 344.292969 341.070312 345.023438 340.328125 C 345.765625 339.601562 346.195312 338.574219 346.195312 337.527344 L 346.195312 105.300781 C 346.195312 104.273438 345.765625 103.242188 345.023438 102.5 C 344.292969 101.773438 343.28125 101.34375 342.234375 101.34375 L 342.234375 105.300781 L 338.277344 105.300781 L 338.277344 333.574219 L 284.132812 333.574219 L 284.132812 109.257812 L 342.234375 109.257812 L 342.234375 105.300781 L 338.277344 105.300781 L 342.234375 105.300781 " fill-opacity="1" fill-rule="nonzero"/><path fill="#7ecd50" d="M 261.550781 154.851562 L 199.503906 154.851562 L 199.503906 337.527344 L 261.550781 337.527344 L 261.550781 154.851562 " fill-opacity="1" fill-rule="nonzero"/><path fill="#040505" d="M 261.550781 154.851562 L 261.550781 150.894531 L 199.503906 150.894531 C 198.457031 150.894531 197.429688 151.304688 196.699219 152.050781 C 195.957031 152.777344 195.542969 153.804688 195.542969 154.851562 L 195.542969 337.527344 C 195.542969 338.574219 195.957031 339.601562 196.699219 340.328125 C 197.429688 341.070312 198.457031 341.484375 199.503906 341.484375 L 261.550781 341.484375 C 262.59375 341.484375 263.609375 341.070312 264.351562 340.328125 C 265.097656 339.601562 265.507812 338.574219 265.507812 337.527344 L 265.507812 154.851562 C 265.507812 153.804688 265.097656 152.777344 264.351562 152.050781 C 263.609375 151.304688 262.59375 150.894531 261.550781 150.894531 L 261.550781 154.851562 L 257.589844 154.851562 L 257.589844 333.574219 L 203.460938 333.574219 L 203.460938 158.789062 L 261.550781 158.789062 L 261.550781 154.851562 L 257.589844 154.851562 L 261.550781 154.851562 " fill-opacity="1" fill-rule="nonzero"/><path fill="#97bfdc" d="M 7.933594 353.886719 C 5.75 353.886719 3.976562 352.113281 3.976562 349.929688 L 3.976562 337.527344 C 3.976562 335.34375 5.75 333.574219 7.933594 333.574219 L 367.050781 333.574219 C 369.253906 333.574219 371.011719 335.34375 371.011719 337.527344 L 371.011719 349.929688 C 371.011719 352.113281 369.253906 353.886719 367.050781 353.886719 L 7.933594 353.886719 " fill-opacity="1" fill-rule="nonzero"/><g clip-path="url(#69fd1db179)"><path fill="#040505" d="M 367.050781 329.617188 L 7.933594 329.617188 C 3.566406 329.617188 0.015625 333.160156 0.015625 337.527344 L 0.015625 349.929688 C 0.015625 354.296875 3.566406 357.839844 7.933594 357.839844 L 367.050781 357.839844 C 371.4375 357.839844 374.96875 354.296875 374.96875 349.929688 L 374.96875 337.527344 C 374.96875 333.160156 371.4375 329.617188 367.050781 329.617188 Z M 367.050781 337.527344 L 367.050781 349.929688 L 7.933594 349.929688 L 7.933594 337.527344 L 367.050781 337.527344 " fill-opacity="1" fill-rule="nonzero"/></g><path fill="#040505" d="M 9.484375 235.503906 C 9.597656 235.472656 58.167969 214.839844 119.894531 178.867188 C 181.609375 142.859375 256.480469 91.570312 309.25 29.820312 C 310.671875 28.160156 310.46875 25.660156 308.804688 24.253906 C 307.140625 22.828125 304.640625 23.035156 303.230469 24.695312 C 251.476562 85.289062 177.191406 136.308594 115.90625 172.03125 C 85.246094 189.890625 57.847656 203.957031 38.117188 213.542969 C 28.25 218.335938 20.300781 222.023438 14.839844 224.492188 C 12.097656 225.726562 9.976562 226.660156 8.546875 227.292969 C 7.835938 227.609375 7.292969 227.84375 6.925781 228.003906 C 6.5625 228.160156 6.386719 228.226562 6.386719 228.226562 C 4.378906 229.078125 3.4375 231.40625 4.292969 233.414062 C 5.152344 235.421875 7.472656 236.355469 9.484375 235.503906 " fill-opacity="1" fill-rule="nonzero"/><g clip-path="url(#342b904cfd)"><path fill="#040505" d="M 280.964844 31.136719 L 306.351562 25.960938 L 302.328125 49.804688 C 301.980469 51.953125 303.421875 53.996094 305.574219 54.359375 C 307.742188 54.722656 309.785156 53.265625 310.152344 51.117188 L 315.109375 21.578125 C 315.328125 20.296875 314.902344 18.984375 313.953125 18.082031 C 313.015625 17.179688 311.703125 16.785156 310.40625 17.054688 L 279.382812 23.382812 C 277.242188 23.824219 275.851562 25.914062 276.292969 28.050781 C 276.738281 30.1875 278.828125 31.5625 280.964844 31.136719 " fill-opacity="1" fill-rule="nonzero"/></g></svg>