<svg xmlns="http://www.w3.org/2000/svg" xmlns:xlink="http://www.w3.org/1999/xlink" width="500" zoomAndPan="magnify" viewBox="0 0 375 374.999991" height="500" preserveAspectRatio="xMidYMid meet" version="1.0"><defs><clipPath id="e887a41242"><path d="M 180.078125 69.328125 L 337.445312 69.328125 L 337.445312 212.769531 L 180.078125 212.769531 Z M 180.078125 69.328125 " clip-rule="nonzero"/></clipPath><clipPath id="35ed4aa197"><path d="M 36.09375 56 L 183 56 L 183 170 L 36.09375 170 Z M 36.09375 56 " clip-rule="nonzero"/></clipPath></defs><g clip-path="url(#e887a41242)"><path fill="#4a9835" d="M 258.433594 121.597656 C 254.144531 89.882812 308.644531 82.949219 332.003906 83.574219 C 334.695312 83.65625 336.792969 83.820312 337.445312 84.117188 C 337.335938 84.835938 336.34375 86.667969 334.929688 88.960938 C 322.789062 108.671875 287.628906 149.949219 263.320312 130.0625 C 261.714844 128.746094 259.957031 127.554688 257.929688 128.855469 C 252.675781 132.179688 245.445312 136.777344 237.878906 141.960938 C 240.03125 142.394531 242.628906 143.222656 245.339844 144.253906 C 246.984375 144.875 247.871094 144.605469 248.917969 143.304688 C 265.785156 122.519531 293.78125 151.699219 303.597656 166.160156 C 304.726562 167.816406 305.539062 169.171875 305.636719 169.726562 C 305.175781 170.054688 303.648438 170.460938 301.6875 170.882812 C 284.445312 174.503906 243.570312 176.105469 246.46875 148.960938 C 246.644531 147.347656 246.765625 146.722656 244.753906 145.949219 C 241.203125 144.59375 237.894531 143.589844 235.675781 143.480469 C 227.304688 149.285156 218.703125 155.730469 212.058594 161.914062 C 204.394531 169.050781 197.847656 177.421875 192.855469 186.117188 C 187.777344 194.960938 184.304688 204.117188 182.875 212.675781 L 180.152344 212.214844 C 181.636719 203.359375 185.230469 193.859375 190.472656 184.746094 C 195.605469 175.820312 202.3125 167.234375 210.179688 159.910156 C 216.578125 153.953125 224.71875 147.792969 232.75 142.164062 C 233.539062 140.347656 234.179688 137.6875 234.707031 134.703125 C 235.214844 131.855469 234.613281 131.542969 232.300781 130.417969 C 208.644531 118.820312 230.324219 85.09375 242.046875 72.234375 C 243.40625 70.753906 244.523438 69.65625 245.039062 69.414062 C 245.476562 69.792969 246.238281 71.164062 247.09375 72.980469 C 254.582031 88.554688 265.539062 126.753906 240.074219 131.417969 C 237.242188 131.9375 236.96875 132.316406 236.4375 135.246094 C 236.097656 137.117188 235.703125 138.878906 235.253906 140.425781 C 243.242188 134.917969 250.933594 130.039062 256.445312 126.539062 C 257.996094 125.546875 258.679688 123.363281 258.433594 121.597656 " fill-opacity="1" fill-rule="evenodd"/></g><path fill="#9fd627" d="M 202.300781 112.511719 C 204.992188 114.683594 206.722656 117.148438 207.730469 120.109375 C 209.554688 125.453125 207.417969 128.683594 209.675781 132.695312 C 213.324219 139.195312 213.691406 141.285156 211.648438 148.539062 C 210.996094 150.847656 210.765625 151.28125 212.65625 154.699219 C 218.0625 164.480469 214.140625 171.464844 206.109375 178.003906 C 205.714844 178.332031 205.429688 178.546875 205.429688 178.535156 C 205.457031 178.261719 205.523438 177.882812 205.566406 177.527344 C 205.972656 174.207031 200.21875 168.699219 202.980469 157.640625 C 203.753906 154.578125 204.257812 154.457031 202.433594 151.390625 C 200.378906 147.945312 198.71875 145.597656 198.339844 142.261719 C 198.105469 140.226562 198.285156 137.511719 199.316406 135.042969 C 199.6875 134.132812 199.902344 134.050781 199.386719 133.265625 C 198.121094 131.339844 196.582031 129.535156 195.507812 127.390625 C 193.859375 124.109375 194.023438 121.464844 194.621094 118.535156 C 194.867188 115.769531 195.765625 112.429688 195.738281 110.058594 C 195.304688 104.832031 191.765625 104.003906 187.625 106.636719 C 185.734375 107.832031 184.007812 109.515625 183 110.722656 C 182.425781 111.414062 182.386719 111.875 181.882812 112.59375 C 181.707031 112.835938 181.039062 112.59375 180.863281 112.851562 C 180.042969 114.058594 179.828125 115.402344 179.296875 116.433594 L 178.492188 116.039062 C 179.5 114.085938 180.683594 110.953125 182.507812 108.769531 C 184.167969 106.785156 186.457031 104.617188 189.097656 103.734375 C 191.585938 102.894531 193.628906 103.300781 195.140625 104.425781 C 196.390625 105.363281 197.332031 106.773438 198.367188 108.292969 C 199.507812 109.976562 200.773438 111.183594 202.300781 112.511719 " fill-opacity="1" fill-rule="evenodd"/><path fill="#9fd627" d="M 180.929688 111.382812 C 181.351562 111.914062 181.652344 111.832031 182.265625 112.226562 C 184.320312 113.566406 185.21875 116.144531 186.703125 118.097656 C 187.84375 119.621094 188.949219 120.691406 189.941406 121.707031 C 193.765625 125.613281 194.9375 130.171875 193.984375 135.488281 C 193.601562 137.535156 192.648438 140.0625 193.546875 142.082031 C 193.820312 142.679688 194.214844 143.398438 194.785156 144.335938 C 200.75 154.128906 197.03125 161.46875 189.070312 168.546875 C 188.660156 168.902344 188.375 169.132812 188.375 169.117188 C 188.402344 168.832031 188.457031 168.441406 188.484375 168.074219 C 188.757812 164.644531 182.617188 159.269531 184.988281 147.792969 C 185.542969 145.09375 186.007812 144.578125 184.890625 142.597656 C 183.707031 140.511719 182.25 138.515625 181.296875 136.222656 C 179.28125 131.339844 180.753906 127.972656 182.128906 123.308594 C 182.820312 120.933594 183.53125 115.65625 181.542969 113.867188 C 181.136719 113.5 180.671875 113.367188 180.265625 113.1875 L 180.234375 113.175781 C 180.660156 112.835938 180.929688 112.238281 180.929688 111.546875 C 180.929688 111.492188 180.929688 111.4375 180.929688 111.382812 " fill-opacity="1" fill-rule="evenodd"/><path fill="#9fd627" d="M 176.589844 233.390625 C 172.464844 237.746094 166.175781 240.511719 161.519531 244.476562 C 156.90625 248.394531 154.332031 252.613281 153.3125 257.59375 C 151.789062 265 155.164062 268.933594 152.851562 274.644531 C 149.078125 283.894531 148.957031 286.742188 152.890625 296.035156 C 154.144531 299.007812 154.523438 299.535156 152.589844 304.390625 C 147.050781 318.285156 153.4375 326.910156 165.207031 334.261719 C 165.796875 334.628906 166.214844 334.875 166.214844 334.847656 C 166.121094 334.492188 165.972656 334.003906 165.847656 333.53125 C 164.761719 329.191406 171.46875 320.914062 165.929688 306.671875 C 164.40625 302.738281 163.710938 302.65625 165.617188 298.273438 C 167.769531 293.351562 169.566406 289.960938 169.523438 285.46875 C 169.496094 282.730469 168.789062 279.148438 167.003906 276.027344 C 165.085938 272.648438 165.742188 272.132812 167.851562 268.796875 C 172.84375 260.875 171.335938 257.414062 169.605469 249.441406 C 168.40625 243.902344 173.238281 238.34375 177.828125 235.875 C 178.03125 235.75 178.261719 235.65625 178.507812 235.574219 C 178.710938 235.507812 178.261719 234.488281 177.757812 233.894531 C 177.296875 233.363281 176.765625 233.203125 176.589844 233.390625 " fill-opacity="1" fill-rule="evenodd"/><path fill="#9fd627" d="M 182.957031 206.519531 C 187.015625 211.035156 193.273438 214.019531 197.863281 218.128906 C 202.421875 222.226562 204.898438 226.554688 205.796875 231.628906 C 207.117188 239.144531 203.59375 243.023438 205.785156 248.855469 C 209.308594 258.296875 209.363281 261.171875 205.132812 270.453125 C 203.78125 273.410156 203.386719 273.9375 205.199219 278.902344 C 210.398438 293.09375 203.714844 301.625 191.617188 308.71875 C 191.015625 309.070312 190.582031 309.304688 190.582031 309.277344 C 190.675781 308.921875 190.851562 308.433594 190.988281 307.960938 C 192.214844 303.605469 185.667969 295.058594 191.65625 280.828125 C 193.316406 276.910156 194.023438 276.839844 192.214844 272.363281 C 190.1875 267.332031 188.457031 263.84375 188.632812 259.316406 C 188.742188 256.546875 189.558594 252.953125 191.4375 249.847656 C 193.480469 246.496094 192.824219 245.953125 190.796875 242.535156 C 185.96875 234.394531 187.585938 230.9375 189.558594 222.917969 C 190.921875 217.371094 186.199219 211.617188 181.652344 209 C 181.433594 208.878906 181.214844 208.769531 180.972656 208.675781 C 180.753906 208.609375 181.242188 207.589844 181.773438 207.007812 C 182.25 206.476562 182.792969 206.328125 182.957031 206.519531 " fill-opacity="1" fill-rule="evenodd"/><path fill="#9fd627" d="M 192.5 185.371094 C 196.992188 188.460938 203.089844 189.738281 207.976562 192.355469 C 212.824219 194.960938 215.898438 198.214844 217.761719 202.449219 C 220.527344 208.742188 218.265625 212.867188 221.410156 217.492188 C 226.503906 224.992188 227.152344 227.488281 225.441406 236.484375 C 224.894531 239.347656 224.664062 239.902344 227.289062 243.835938 C 234.859375 255.125 230.828125 263.980469 221.777344 272.730469 C 221.328125 273.164062 221.003906 273.464844 221.003906 273.4375 C 221.003906 273.109375 221.058594 272.636719 221.070312 272.203125 C 221.21875 268.144531 213.679688 262.066406 215.882812 248.378906 C 216.496094 244.609375 217.09375 244.40625 214.578125 240.878906 C 211.734375 236.917969 209.488281 234.246094 208.671875 230.242188 C 208.164062 227.800781 208.125 224.492188 209.105469 221.398438 C 210.167969 218.035156 209.488281 217.695312 206.996094 215.144531 C 201.035156 209.054688 201.730469 205.691406 201.742188 198.285156 C 201.753906 193.15625 196.40625 189.128906 191.875 187.808594 C 191.65625 187.742188 191.4375 187.703125 191.207031 187.675781 C 191.015625 187.648438 191.222656 186.660156 191.5625 186.046875 C 191.863281 185.476562 192.308594 185.234375 192.5 185.371094 " fill-opacity="1" fill-rule="evenodd"/><path fill="#9fd627" d="M 187.613281 174.082031 C 182.644531 176.390625 178.535156 180.460938 173.265625 182.238281 C 168.027344 184 164.433594 186.714844 161.875 190.59375 C 158.078125 196.34375 159.617188 200.808594 155.722656 204.863281 C 149.417969 211.414062 148.34375 213.789062 148.535156 222.972656 C 148.589844 225.902344 148.726562 226.488281 145.460938 229.945312 C 136.082031 239.835938 138.558594 249.289062 146.042969 259.449219 C 146.410156 259.964844 146.699219 260.304688 146.699219 260.277344 C 146.738281 259.953125 146.78125 259.492188 146.835938 259.058594 C 147.378906 255 155.859375 250.265625 155.980469 236.347656 C 156.007812 232.507812 155.449219 232.210938 158.554688 229.144531 C 162.023438 225.699219 164.703125 223.433594 166.175781 219.609375 C 167.085938 217.289062 167.6875 214.019531 167.234375 210.777344 C 166.761719 207.277344 167.480469 207.0625 170.394531 204.945312 C 177.308594 199.925781 177.1875 196.480469 178.425781 189.15625 C 179.105469 185.097656 184.496094 176.1875 188.578125 176.40625 C 189.761719 176.472656 187.996094 173.90625 187.613281 174.082031 " fill-opacity="1" fill-rule="evenodd"/><path fill="#9fd627" d="M 175.007812 159.433594 C 174.777344 159.539062 174.015625 159.582031 173.28125 159.621094 C 167.875 159.933594 163.726562 164.941406 158.117188 166.785156 C 152.769531 168.535156 149.082031 171.261719 146.441406 175.183594 C 142.519531 181.015625 144.042969 185.574219 140.042969 189.667969 C 133.5625 196.304688 132.445312 198.703125 132.554688 208.050781 C 132.582031 211.035156 132.734375 211.632812 129.355469 215.132812 C 119.707031 225.128906 122.15625 234.773438 129.683594 245.207031 C 130.066406 245.722656 130.335938 246.074219 130.351562 246.046875 C 130.390625 245.722656 130.433594 245.246094 130.5 244.800781 C 131.085938 240.675781 139.769531 235.925781 140.015625 221.75 C 140.082031 217.84375 139.523438 217.535156 142.695312 214.425781 C 146.277344 210.953125 149.027344 208.660156 150.5625 204.796875 C 151.503906 202.421875 152.15625 199.097656 151.722656 195.800781 C 151.257812 192.234375 152.007812 192.015625 154.988281 189.886719 C 162.078125 184.828125 161.984375 181.328125 163.316406 173.867188 C 163.699219 171.695312 165.425781 168.15625 167.589844 165.332031 C 168.882812 163.640625 170.820312 162.472656 172.996094 162.089844 C 174.058594 161.902344 175.730469 162.0625 176.371094 162.105469 C 178.070312 162.390625 180.265625 161.25 175.007812 159.433594 " fill-opacity="1" fill-rule="evenodd"/><path fill="#4a9835" d="M 173.375 125.152344 C 179.921875 136.953125 172.082031 156.175781 185.230469 169.660156 C 185.4375 169.878906 185.84375 170.21875 186.347656 170.640625 C 189.207031 173.066406 194.445312 177.503906 193.601562 183.621094 C 193.332031 185.53125 192.730469 187.539062 191.914062 189.628906 C 191.140625 191.625 190.160156 193.726562 189.109375 195.882812 C 176.574219 221.886719 180.371094 254.484375 183.285156 285.222656 C 184.648438 299.589844 185.9375 314.199219 185.679688 327.492188 C 185.460938 339.363281 184.753906 352.507812 182.644531 366.847656 C 182.414062 368.40625 182.113281 371.433594 181.800781 375 L 175.1875 375 C 175.621094 371.921875 176.085938 368.855469 176.535156 365.804688 C 178.628906 351.546875 180.671875 337.707031 180.890625 326.191406 C 181.148438 313.128906 179.816406 299.101562 178.453125 284.84375 C 175.484375 253.5625 172.410156 221.15625 185.421875 194.132812 C 186.414062 192.070312 187.355469 190.0625 188.105469 188.164062 C 190.867188 181.070312 189.65625 178.804688 183.695312 173.757812 C 183.136719 173.269531 182.660156 172.875 182.304688 172.511719 C 167.835938 157.683594 175.730469 141.824219 171.0625 127.949219 C 169.578125 123.523438 166.816406 120.933594 165.289062 117.394531 C 163.140625 112.363281 164.488281 106.269531 166.9375 101.589844 C 167.714844 100.113281 168.175781 98.929688 167.699219 97.125 C 166.882812 93.953125 171.496094 89.367188 173.8125 87.441406 C 174.125 87.183594 174.371094 86.996094 174.464844 86.953125 C 174.503906 87.050781 174.546875 87.332031 174.574219 87.714844 C 174.777344 90.5625 174.449219 96.789062 171.539062 98.605469 C 169.972656 99.582031 168.9375 101.007812 168.339844 102.675781 C 166.296875 108.347656 165.847656 112.089844 168.746094 117.582031 C 169.972656 119.890625 171.6875 122.101562 173.375 125.152344 " fill-opacity="1" fill-rule="nonzero"/><g clip-path="url(#35ed4aa197)"><path fill="#4a9835" d="M 115.625 109.378906 C 120.046875 77.269531 65.125 70.921875 41.6875 71.816406 C 38.992188 71.925781 36.894531 72.113281 36.242188 72.425781 C 36.351562 73.132812 37.386719 74.964844 38.816406 77.230469 C 51.445312 97.222656 88.375 139.464844 112.453125 116.105469 C 113.621094 114.964844 114.042969 114.84375 115.488281 115.738281 C 115.746094 115.902344 116.003906 116.066406 116.277344 116.226562 C 121.558594 119.496094 128.839844 124.015625 136.476562 129.101562 C 134.230469 129.578125 131.492188 130.511719 128.664062 131.636719 C 127.382812 132.140625 126.6875 132.128906 125.84375 131.070312 C 108.777344 109.527344 80.765625 139.382812 71.03125 154.0625 C 69.929688 155.730469 69.140625 157.089844 69.03125 157.65625 C 69.507812 157.984375 71.03125 158.375 73.007812 158.757812 C 90.429688 162.214844 131.835938 163.328125 127.875 135.546875 C 127.640625 133.929688 127.847656 133.890625 129.453125 133.253906 C 133.058594 131.8125 136.433594 130.742188 138.695312 130.59375 C 147.132812 136.304688 155.804688 142.652344 162.515625 148.757812 C 169.292969 154.917969 175.214844 162.023438 180.003906 169.488281 C 180.726562 168.902344 181.515625 168.429688 182.371094 168.085938 C 177.445312 160.398438 171.347656 153.070312 164.378906 146.738281 C 157.914062 140.847656 149.707031 134.785156 141.605469 129.25 C 140.707031 127.214844 139.960938 124.136719 139.359375 120.730469 C 138.992188 118.628906 139.359375 118.695312 141.183594 117.855469 C 165.890625 106.3125 143.484375 72.289062 131.492188 59.429688 C 130.132812 57.964844 128.988281 56.878906 128.472656 56.648438 C 128.035156 57.03125 127.300781 58.414062 126.457031 60.230469 C 119.082031 76.0625 108.421875 114.980469 134.921875 118.710938 C 136.828125 118.980469 137.222656 118.902344 137.550781 120.773438 C 137.972656 123.242188 138.488281 125.574219 139.074219 127.542969 C 131.015625 122.128906 123.285156 117.328125 117.734375 113.894531 C 117.367188 113.664062 117 113.445312 116.65625 113.230469 C 114.804688 112.089844 115.351562 111.386719 115.625 109.378906 " fill-opacity="1" fill-rule="evenodd"/></g><path fill="#4a9835" d="M 194.367188 64.191406 C 217.613281 57.800781 205.554688 18.949219 197.972656 3.460938 C 197.101562 1.695312 196.351562 0.335938 195.957031 0 C 195.507812 0.285156 194.582031 1.519531 193.464844 3.144531 C 183.816406 17.429688 166.476562 54.234375 188.566406 63.785156 C 190.511719 64.625 190.445312 64.515625 190.144531 66.605469 C 189.503906 71.109375 188.636719 77.335938 187.464844 83.941406 C 186.511719 82.640625 185.136719 81.160156 183.597656 79.640625 C 182.386719 78.449219 182.660156 78.121094 183.324219 76.726562 C 191.710938 59.347656 163.835938 49.648438 151.214844 47.519531 C 149.761719 47.273438 148.605469 47.152344 148.210938 47.246094 C 148.128906 47.652344 148.316406 48.792969 148.632812 50.230469 C 151.433594 62.753906 162.691406 90.222656 179.828125 80.535156 C 181.351562 79.667969 181.71875 79.628906 183 80.890625 C 184.007812 81.90625 184.933594 82.898438 185.679688 83.804688 C 187.070312 85.5 187.203125 85.421875 186.824219 87.425781 C 185.519531 94.304688 183.910156 101.359375 181.925781 107.234375 C 179.5 114.421875 175.933594 121.246094 171.6875 127.175781 C 172.152344 127.691406 172.558594 128.300781 172.886719 128.964844 C 172.980469 128.84375 173.078125 128.707031 173.171875 128.570312 C 177.609375 122.425781 181.324219 115.34375 183.84375 107.871094 C 185.707031 102.335938 187.246094 95.796875 188.511719 89.339844 C 188.894531 87.375 188.660156 87.484375 190.253906 86.140625 C 191.289062 85.257812 192.566406 84.320312 193.96875 83.398438 C 194.976562 82.734375 195.492188 82.9375 196.351562 83.683594 C 211.488281 96.992188 227.847656 71.816406 232.964844 59.945312 C 233.550781 58.601562 233.945312 57.515625 233.945312 57.097656 C 233.566406 56.917969 232.40625 56.839844 230.925781 56.8125 C 218.0625 56.566406 188.621094 60.988281 194.011719 79.871094 C 194.308594 80.917969 194.664062 81.351562 193.507812 82.125 C 191.929688 83.167969 190.457031 84.226562 189.289062 85.230469 C 190.539062 78.230469 191.480469 71.625 192.160156 66.890625 C 192.460938 64.746094 192.242188 64.785156 194.367188 64.191406 " fill-opacity="1" fill-rule="evenodd"/></svg>