<svg xmlns="http://www.w3.org/2000/svg" xmlns:xlink="http://www.w3.org/1999/xlink" width="500" zoomAndPan="magnify" viewBox="0 0 375 374.999991" height="500" preserveAspectRatio="xMidYMid meet" version="1.0"><path fill="#d51f26" d="M 295.339844 172 C 311.359375 197.058594 318.53125 226.691406 323.253906 256.039062 C 325.625 270.769531 327.429688 285.871094 324.78125 300.546875 C 322.132812 315.234375 314.394531 329.628906 301.480469 337.140625 C 299.515625 338.289062 297.34375 339.292969 295.070312 339.253906 C 291.589844 339.199219 288.527344 336.6875 286.851562 333.652344 C 285.179688 330.605469 284.644531 327.078125 284.203125 323.640625 C 282.730469 312.214844 281.902344 300.695312 279.800781 289.359375 C 278.195312 280.644531 275.839844 272.078125 273.484375 263.523438 C 270.902344 254.117188 268.292969 244.667969 264.289062 235.75 C 257.128906 219.859375 245.648438 206.015625 239.945312 189.546875 C 236.359375 179.203125 235.207031 168.191406 232.265625 157.644531 C 228.464844 144 221.71875 131.273438 218.332031 117.523438 C 217.019531 112.175781 218.171875 104.71875 225.292969 104.972656 C 230.324219 105.160156 233.910156 111.265625 237.457031 114.207031 C 251.011719 125.527344 264.984375 135.992188 277.136719 148.902344 C 283.855469 156.054688 290.050781 163.710938 295.339844 172 " fill-opacity="1" fill-rule="nonzero"/><path fill="#80a431" d="M 209.433594 45.628906 C 209.460938 46.871094 208.992188 48.0625 208.628906 49.25 C 204.855469 61.414062 211.707031 74.179688 219.136719 84.550781 C 232.476562 103.207031 242.367188 115.652344 259.21875 131.222656 C 253.929688 142.382812 244.738281 145.882812 234.445312 151.121094 C 232.210938 152.257812 232.332031 156.84375 227.296875 152.273438 C 224.863281 145.9375 222.84375 132.890625 220.40625 126.554688 C 216.363281 116.023438 211.988281 110.597656 217.289062 100.640625 C 218.265625 98.785156 219.589844 96.964844 219.644531 94.855469 C 219.695312 92.570312 218.226562 90.5625 216.898438 88.691406 C 209.925781 78.894531 204.988281 67.65625 202.445312 55.90625 C 201.832031 53.074219 199.355469 46.660156 200.667969 43.8125 C 202.632812 39.574219 209.3125 41.046875 209.433594 45.628906 " fill-opacity="1" fill-rule="nonzero"/><path fill="#ee232b" d="M 266.445312 187.101562 C 267.941406 189.425781 269.457031 191.753906 270.578125 194.292969 C 271.972656 197.417969 272.734375 200.773438 273.605469 204.089844 C 281.675781 234.734375 299.328125 263.660156 298.308594 295.335938 C 298.082031 302.710938 296.808594 310.007812 295.644531 317.308594 C 295.152344 320.449219 294.75 323.988281 296.703125 326.503906 C 303.460938 304.277344 304.480469 280.351562 299.648438 257.628906 C 297.210938 246.242188 293.332031 235.042969 293.035156 223.402344 C 292.890625 217.335938 293.71875 211.28125 293.824219 205.210938 C 294.1875 184.121094 284.457031 162.109375 266.121094 151.617188 C 262.683594 149.652344 258.855469 147.96875 256.582031 144.734375 C 256.03125 143.929688 255.457031 142.984375 254.507812 142.808594 C 253.8125 142.675781 253.128906 143.023438 252.511719 143.34375 C 249.917969 144.71875 247.320312 146.082031 244.722656 147.445312 C 240.265625 149.800781 263.820312 183.039062 266.445312 187.101562 " fill-opacity="1" fill-rule="nonzero"/><path fill="#9e1b21" d="M 243.265625 178.347656 C 244.722656 183.785156 246.195312 189.238281 248.429688 194.398438 C 252.457031 203.742188 258.84375 211.828125 264.289062 220.40625 C 278.664062 243.050781 286.652344 269.6875 287.121094 296.496094 C 287.308594 307.457031 286.277344 318.5625 288.433594 329.324219 C 288.886719 331.621094 289.609375 334.054688 291.457031 335.496094 C 294.804688 338.117188 299.714844 336.070312 303.140625 333.558594 C 321.675781 319.953125 329.105469 293.128906 320.164062 271.957031 C 320.324219 280.847656 320.472656 289.816406 318.730469 298.527344 C 316.992188 307.242188 313.164062 315.808594 306.511719 321.71875 C 302.5 325.285156 296.007812 327.652344 291.980469 324.097656 C 288.726562 321.238281 288.941406 316.199219 289.277344 311.878906 C 291.539062 282.984375 287.132812 253.59375 276.507812 226.636719 C 274.074219 220.449219 271.316406 214.378906 267.917969 208.660156 C 265.480469 204.570312 262.738281 200.652344 260.621094 196.390625 C 258.441406 191.953125 256.980469 187.222656 255.296875 182.570312 C 251.292969 170.769531 244.816406 162.230469 237.804688 151.925781 C 236.585938 152.136719 233.535156 153.78125 232.464844 154.25 C 235.074219 164.140625 240.574219 168.375 243.265625 178.347656 " fill-opacity="1" fill-rule="nonzero"/><path fill="#9e1b21" d="M 301.011719 197.527344 C 303.636719 213.59375 304.171875 229.882812 306.835938 245.988281 C 309.308594 260.972656 310.660156 277.265625 316.457031 291.417969 C 316.84375 292.339844 318.332031 292.058594 318.382812 291.085938 C 319.132812 276.089844 315.238281 260.609375 312.695312 245.921875 C 309.871094 229.589844 304.988281 213.753906 302.136719 197.472656 C 302.015625 196.777344 300.890625 196.816406 301.011719 197.527344 " fill-opacity="1" fill-rule="nonzero"/><path fill="#576a25" d="M 201.777344 44.789062 C 201.964844 47.660156 202.113281 50.75 202.875 53.527344 C 202.941406 53.769531 203.355469 53.730469 203.371094 53.488281 C 203.515625 50.589844 202.980469 47.566406 202.554688 44.707031 C 202.488281 44.265625 201.75 44.332031 201.777344 44.789062 " fill-opacity="1" fill-rule="nonzero"/><path fill="#576a25" d="M 204.132812 43.691406 C 203.945312 47.03125 203.878906 50.667969 204.292969 53.996094 C 204.332031 54.355469 204.894531 54.332031 204.921875 53.96875 C 205.242188 50.628906 205.042969 47.019531 204.761719 43.679688 C 204.722656 43.332031 204.160156 43.34375 204.132812 43.691406 " fill-opacity="1" fill-rule="nonzero"/><path fill="#576a25" d="M 252.03125 131.59375 C 246.957031 124.484375 240.65625 118.191406 235.316406 111.28125 C 229.816406 104.15625 224.449219 96.914062 219.777344 89.199219 C 212.457031 77.132812 201.804688 61.347656 207.4375 46.644531 C 207.570312 46.3125 207.078125 46.082031 206.929688 46.417969 C 203.851562 53.703125 205.324219 61.546875 208.105469 68.699219 C 211.679688 77.878906 216.953125 86.472656 222.078125 94.855469 C 226.644531 102.3125 231.40625 109.582031 236.800781 116.464844 C 241.097656 121.972656 245.527344 127.960938 250.917969 132.410156 C 251.46875 132.863281 252.539062 132.289062 252.03125 131.59375 " fill-opacity="1" fill-rule="nonzero"/><path fill="#576a25" d="M 223.683594 129.628906 C 225.8125 136.191406 226.1875 143.195312 227.820312 149.90625 C 228.195312 151.429688 229 153.234375 230.5625 153.300781 C 230.511719 152.527344 230.28125 151.765625 229.910156 151.082031 C 230.539062 151.296875 231.167969 151.496094 231.796875 151.695312 C 231.621094 151.296875 231.59375 150.828125 231.742188 150.414062 C 233.121094 150.226562 234.339844 149.476562 235.515625 148.730469 C 239.476562 146.257812 243.4375 143.769531 247.386719 141.285156 C 250.078125 139.601562 252.914062 137.742188 254.160156 134.828125 C 247.304688 133.441406 242.929688 126.917969 239.304688 120.957031 C 239.679688 124.832031 242.101562 128.160156 244.457031 131.273438 C 245.59375 132.785156 246.730469 134.296875 247.867188 135.804688 C 247.855469 136.886719 246.503906 137.53125 245.460938 137.234375 C 244.429688 136.941406 243.679688 136.058594 243.039062 135.191406 C 236.292969 126.316406 232.023438 115.824219 225.894531 106.507812 C 229.144531 117.292969 233.722656 127.691406 239.476562 137.394531 C 237.175781 134.761719 234.859375 132.128906 232.558594 129.496094 C 232.800781 133.347656 233.523438 137.183594 234.714844 140.859375 C 233.214844 138.519531 231.714844 136.179688 230.214844 133.839844 C 230.214844 136.367188 230.550781 138.90625 231.207031 141.351562 C 227.324219 135.777344 227.859375 128.308594 225.519531 121.945312 C 224.246094 118.511719 222.144531 115.4375 220.714844 112.070312 C 219.28125 108.699219 218.574219 104.730469 220.164062 101.429688 C 218.933594 103.984375 216.804688 103.875 216.660156 107.015625 C 216.539062 109.597656 217.113281 112.203125 217.851562 114.648438 C 219.402344 119.792969 222.027344 124.523438 223.683594 129.628906 " fill-opacity="1" fill-rule="nonzero"/><path fill="#ee7283" d="M 255.925781 151.738281 C 255 151.347656 254.320312 152.605469 255.1875 153.125 C 266.191406 159.675781 273.148438 174.257812 276.75 186.085938 C 280.84375 199.542969 283.238281 213.738281 285.929688 227.53125 C 288.367188 240.015625 292.21875 252.175781 295.246094 264.515625 C 298.390625 277.371094 299.019531 289.722656 297.183594 302.792969 C 296.957031 304.4375 299.566406 304.929688 300.050781 303.355469 C 308.050781 276.902344 293.0625 248.730469 290.011719 222.652344 C 288.273438 207.765625 288.246094 193.222656 282.652344 179.042969 C 277.484375 165.917969 268.851562 157.269531 255.925781 151.738281 " fill-opacity="1" fill-rule="nonzero"/><path fill="#d51f26" d="M 211.226562 144.800781 C 217.273438 167.253906 220.5 190.628906 229.601562 212.042969 C 235.515625 225.96875 243.894531 239 247.375 253.726562 C 248.511719 258.484375 248.214844 264.914062 243.585938 266.492188 C 240.347656 267.589844 236.976562 265.476562 234.230469 263.429688 C 217.273438 250.734375 201.507812 236.234375 188.796875 219.285156 C 176.082031 202.351562 166.460938 182.878906 162.351562 162.109375 C 160.117188 150.734375 159.527344 139.09375 157.453125 127.679688 C 156.300781 121.359375 154.695312 115.074219 154.523438 108.660156 C 154.347656 102.230469 155.78125 95.480469 160.023438 90.644531 C 183.363281 64.046875 207.382812 130.527344 211.226562 144.800781 " fill-opacity="1" fill-rule="nonzero"/><path fill="#80a431" d="M 156.195312 120.488281 C 151.765625 112.816406 152.167969 103.21875 154.480469 94.679688 C 156.796875 86.140625 160.851562 78.160156 163.488281 69.714844 C 166.753906 59.25 167.8125 48.25 169.324219 37.394531 C 169.914062 33.171875 170.59375 28.910156 172.242188 24.980469 C 173.832031 21.199219 176.28125 17.855469 178.71875 14.554688 C 181.421875 10.851562 184.207031 7.097656 187.859375 4.316406 C 191.527344 1.550781 196.261719 -0.160156 200.746094 0.816406 C 198.765625 3.582031 197.414062 6.789062 196.796875 10.132812 C 191.980469 8.980469 186.855469 11.242188 183.363281 14.742188 C 177.207031 20.917969 175.492188 30.125 174.074219 38.734375 C 172.601562 47.648438 171.128906 56.574219 169.65625 65.503906 C 169.148438 68.589844 168.640625 71.796875 169.363281 74.859375 C 170.996094 81.6875 177.980469 85.539062 183.523438 89.882812 C 187.5625 93.0625 191.097656 96.914062 193.933594 101.203125 C 197.894531 107.164062 196.597656 106.347656 191.136719 108.328125 C 179.292969 112.617188 168.789062 118.097656 156.195312 120.488281 " fill-opacity="1" fill-rule="nonzero"/><path fill="#ee232b" d="M 206.863281 184.28125 C 213.769531 206.496094 222.132812 228.265625 231.863281 249.398438 C 227.324219 250.386719 223.617188 245.910156 221.140625 241.980469 C 208.589844 222.078125 196.050781 202.191406 183.496094 182.304688 C 180.914062 178.199219 178.304688 174.042969 176.9375 169.394531 C 175.425781 164.261719 175.519531 158.808594 175.117188 153.460938 C 174.382812 143.746094 171.90625 134.148438 167.863281 125.273438 C 167.300781 124.042969 166.699219 122.773438 166.726562 121.425781 C 166.753906 119.3125 177.902344 115.210938 179.789062 114.273438 C 192.972656 107.765625 203.382812 173.066406 206.863281 184.28125 " fill-opacity="1" fill-rule="nonzero"/><path fill="#9e1b21" d="M 167.8125 156.1875 C 169.109375 163.820312 170.40625 171.464844 172.710938 178.855469 C 180.710938 204.558594 199.957031 224.953125 218.601562 244.386719 C 201.121094 231.167969 185.234375 215.234375 175.078125 195.828125 C 162.898438 172.558594 160.316406 148.140625 157.386719 122.066406 C 160.074219 122.386719 161.46875 122.414062 162.296875 124.980469 C 165.414062 134.628906 166.097656 146.125 167.8125 156.1875 " fill-opacity="1" fill-rule="nonzero"/><path fill="#9e1b21" d="M 217.234375 203.3125 C 223.496094 226.140625 231.019531 241.617188 241.472656 262.871094 C 244.628906 261.050781 246.625 255.25 245.792969 251.722656 C 240.960938 231.152344 227.96875 220.996094 221.410156 200.921875 C 218.960938 193.421875 217.554688 185.632812 215.921875 177.90625 C 210.984375 154.636719 203.824219 131.835938 194.578125 109.917969 C 194.324219 109.316406 194 108.648438 193.386719 108.417969 C 192.890625 108.234375 192.34375 108.394531 191.832031 108.554688 C 189.652344 109.25 187.417969 109.863281 185.328125 110.746094 C 188.78125 116.828125 194 121.265625 197.1875 127.839844 C 200.921875 135.523438 203.597656 143.664062 205.765625 151.910156 C 210.261719 168.898438 212.578125 186.367188 217.234375 203.3125 " fill-opacity="1" fill-rule="nonzero"/><path fill="#576a25" d="M 194.925781 3.808594 C 190.871094 5.746094 186.28125 8.003906 182.785156 10.839844 C 182.371094 11.171875 182.652344 11.988281 183.226562 11.75 C 187.445312 10.039062 191.699219 7.109375 195.378906 4.464844 C 195.769531 4.195312 195.328125 3.636719 194.925781 3.808594 " fill-opacity="1" fill-rule="nonzero"/><path fill="#576a25" d="M 194.832031 5.878906 C 193.386719 6.722656 191.765625 7.496094 190.496094 8.59375 C 190.269531 8.792969 190.457031 9.207031 190.761719 9.074219 C 192.34375 8.421875 193.761719 7.285156 195.179688 6.347656 C 195.5 6.132812 195.152344 5.695312 194.832031 5.878906 " fill-opacity="1" fill-rule="nonzero"/><path fill="#576a25" d="M 172.09375 85.257812 C 174.664062 88.613281 177.234375 91.96875 179.800781 95.320312 C 181.554688 97.621094 183.390625 100.121094 183.46875 103.007812 C 177.285156 98.328125 172.082031 92.382812 168.292969 85.644531 C 169.738281 92.40625 172.375 98.917969 176.054688 104.769531 C 170.863281 101.949219 167.035156 96.765625 165.855469 90.992188 C 166.835938 96.617188 168.226562 102.179688 170.019531 107.617188 C 168.574219 105.292969 167.128906 102.953125 165.683594 100.628906 C 165.683594 103.6875 165.683594 106.734375 165.667969 109.796875 C 164.386719 107.859375 163.382812 105.71875 162.710938 103.488281 C 162.605469 106.175781 162.496094 108.859375 162.390625 111.546875 C 159.902344 104.328125 158.992188 96.605469 159.660156 89.011719 C 161.507812 84.296875 162.859375 79.308594 164.171875 74.457031 C 165.816406 68.417969 167.394531 62.375 168.695312 56.269531 C 171.050781 45.082031 168.480469 38.066406 172.441406 27.34375 C 173.363281 24.871094 173.804688 22.292969 173.78125 22.453125 C 172.453125 34.507812 170.472656 46.445312 167.597656 58.234375 C 166.179688 64.085938 164.613281 69.925781 162.726562 75.648438 C 160.972656 81.007812 159.140625 85.699219 159.351562 85.445312 C 159.511719 86.59375 156.769531 90.511719 156.742188 91.097656 C 156.664062 93.8125 156.636719 96.523438 156.621094 99.238281 C 156.101562 104.796875 155.59375 116.160156 158.9375 117.269531 C 159.6875 117.507812 160.464844 117.027344 161.144531 116.597656 C 167.609375 112.507812 175.90625 112.738281 182.933594 109.730469 C 186.398438 108.257812 189.519531 106.015625 193.078125 104.8125 C 187.015625 97.367188 179.9375 90.777344 172.09375 85.257812 " fill-opacity="1" fill-rule="nonzero"/><path fill="#ee7283" d="M 217.300781 230.632812 C 213.609375 221.972656 209.152344 213.632812 205.214844 205.066406 C 200.960938 195.800781 198.6875 185.832031 195.460938 176.167969 C 192.625 167.628906 189.613281 159.15625 187.003906 150.535156 C 184.21875 141.390625 182.128906 131.835938 177.886719 123.230469 C 177.097656 121.636719 174.703125 122.414062 174.648438 124.058594 C 174.382812 133.558594 176.910156 142.984375 179.453125 152.085938 C 182.050781 161.386719 184.953125 170.714844 188.648438 179.65625 C 192.234375 188.332031 197.375 196.230469 201.375 204.691406 C 205.683594 213.777344 210.128906 223 215.921875 231.246094 C 216.378906 231.914062 217.664062 231.476562 217.300781 230.632812 " fill-opacity="1" fill-rule="nonzero"/><path fill="#d51f26" d="M 106.769531 225.5 C 126.191406 252.765625 147.414062 279.121094 173.390625 300.238281 C 181.824219 307.097656 190.734375 313.390625 198.523438 320.96875 C 207.183594 329.363281 214.304688 339.199219 222.882812 347.671875 C 231.929688 356.601562 242.433594 363.886719 252.902344 371.117188 C 254.894531 372.492188 256.957031 373.910156 259.324219 374.390625 C 261.707031 374.871094 264.492188 374.175781 265.761719 372.132812 C 266.9375 370.234375 266.550781 367.816406 266.027344 365.664062 C 261.640625 347.808594 249.96875 332.796875 240.667969 316.933594 C 232.585938 303.140625 226.203125 288.410156 218.398438 274.457031 C 210.597656 260.492188 201.160156 247.070312 188.328125 237.527344 C 183.65625 234.054688 178.585938 231.128906 174.085938 227.453125 C 165.550781 220.515625 159.3125 211.144531 151.109375 203.820312 C 143.144531 196.710938 133.5625 191.726562 123.941406 187.074219 C 119.589844 184.976562 115.136719 182.890625 110.34375 182.195312 C 105.554688 181.488281 100.320312 182.34375 96.679688 185.511719 C 85.078125 195.65625 100.585938 216.828125 106.769531 225.5 " fill-opacity="1" fill-rule="nonzero"/><path fill="#80a431" d="M 133.347656 191.527344 C 129.523438 187.140625 126.75 185.472656 123.191406 183.414062 C 119.632812 181.367188 116.515625 182.34375 112.605469 181.101562 C 109.394531 180.070312 105.941406 180.113281 102.664062 179.308594 C 92.933594 176.945312 86.523438 167.921875 81.167969 159.460938 C 73.941406 148.074219 66.96875 136.527344 60.265625 124.832031 C 56.933594 119.019531 53.625 113.097656 51.792969 106.65625 C 50.882812 103.488281 50.359375 100.039062 51.445312 96.925781 C 52.542969 93.8125 55.6875 91.230469 58.953125 91.738281 C 60.988281 92.046875 63.195312 93.4375 64.910156 92.300781 C 66.273438 91.40625 66.339844 89.359375 65.632812 87.902344 C 64.292969 85.109375 60.828125 83.761719 57.777344 84.308594 C 54.722656 84.84375 52.140625 86.953125 50.347656 89.480469 C 46.828125 94.453125 46.066406 100.988281 47.097656 107.003906 C 48.113281 113.015625 50.734375 118.617188 53.507812 124.058594 C 62.554688 141.753906 73.460938 158.5 86 173.9375 C 87.714844 176.046875 89.492188 178.199219 90.351562 180.78125 C 91.097656 183.039062 91.085938 185.472656 91.191406 187.851562 C 91.515625 194.507812 92.933594 201.109375 95.328125 207.324219 C 96.601562 210.625 98.113281 213.9375 100 216.933594 C 101.175781 218.789062 101.726562 219.765625 102.476562 220.085938 C 102.476562 220.085938 104.175781 220.0625 106.15625 219.285156 C 118.855469 214.3125 127.984375 203.621094 133.347656 191.527344 " fill-opacity="1" fill-rule="nonzero"/><path fill="#ee232b" d="M 167.15625 233.066406 C 172.1875 236.03125 177.421875 238.773438 181.835938 242.59375 C 189.183594 248.96875 193.734375 257.871094 199.140625 265.945312 C 204.960938 274.632812 211.921875 282.53125 217.636719 291.296875 C 223.632812 300.507812 228.195312 310.570312 233.882812 319.980469 C 242.382812 334.039062 253.625 347.058594 257.195312 363.082031 C 244.976562 353.78125 237.082031 340.082031 229.09375 326.984375 C 221.585938 314.6875 213.6875 302.589844 204.375 291.605469 C 179.386719 262.203125 145.367188 242.21875 115.09375 218.28125 C 117.304688 220.261719 127.582031 204.261719 128.289062 202.511719 C 140.925781 213.21875 152.566406 224.511719 167.15625 233.066406 " fill-opacity="1" fill-rule="nonzero"/><path fill="#9e1b21" d="M 192.167969 285.726562 C 200.332031 294.132812 207.199219 303.660156 214.050781 313.164062 C 223.070312 325.6875 232.089844 338.210938 241.125 350.734375 C 245.324219 356.574219 249.582031 362.46875 255.027344 367.1875 C 239.210938 358.070312 225.625 345.132812 215.734375 329.804688 C 210.046875 320.996094 205.578125 311.398438 199.328125 302.964844 C 192.636719 293.957031 184.097656 286.5 175.558594 279.214844 C 160.558594 266.4375 145.3125 253.914062 129.683594 241.914062 C 121.503906 235.617188 112.992188 229.230469 107.746094 220.355469 C 107.117188 219.285156 111.667969 219.578125 111.921875 219.644531 C 113.609375 220.0625 114.652344 221.542969 115.75 222.734375 C 118.011719 225.191406 119.605469 227.773438 122.121094 230.097656 C 129.441406 236.847656 136.949219 243.195312 145.007812 249.078125 C 161.066406 260.8125 178.222656 271.371094 192.167969 285.726562 " fill-opacity="1" fill-rule="nonzero"/><path fill="#9e1b21" d="M 161.226562 272.625 C 159.339844 271.023438 157.480469 269.40625 155.617188 267.773438 C 155.671875 267.800781 155.738281 267.84375 155.804688 267.867188 C 157.613281 269.460938 159.417969 271.050781 161.226562 272.625 Z M 165.015625 283.574219 C 177.527344 294.894531 191.3125 305.292969 205.632812 314.246094 C 208.84375 316.265625 212.136719 311.546875 209.511719 309.019531 C 184.648438 285.015625 159.957031 259.15625 130.738281 240.375 C 130.179688 240.027344 129.5625 240.042969 129.054688 240.28125 C 127.195312 238.519531 125.332031 236.742188 123.445312 235.003906 C 122.761719 234.375 121.398438 235.082031 121.988281 235.992188 C 124.984375 240.65625 128.519531 245.242188 132.464844 249.53125 C 141.96875 261.988281 153.4375 273.09375 165.015625 283.574219 " fill-opacity="1" fill-rule="nonzero"/><path fill="#9e1b21" d="M 260.328125 367.988281 C 260.730469 368.203125 261.117188 368.296875 261.503906 368.324219 C 253.53125 350.894531 245.472656 333.507812 236.359375 316.613281 C 228.222656 301.523438 219.109375 286.953125 211.492188 271.609375 C 211.210938 271.050781 211.949219 270.515625 212.335938 271.050781 C 223.125 286.191406 231.769531 302.886719 240.5625 319.246094 C 249.40625 335.722656 258.695312 347.40625 263.714844 358.460938 C 265.75 362.9375 263.714844 358.460938 265.761719 371.476562 C 266.230469 374.496094 261.089844 373.453125 258.613281 371.746094 C 256.914062 370.566406 258.308594 367.425781 260.328125 367.988281 " fill-opacity="1" fill-rule="nonzero"/><path fill="#576a25" d="M 67.359375 142.195312 C 62.859375 134.414062 58.644531 126.449219 54.777344 118.324219 C 51.914062 112.28125 48.582031 105.492188 49.359375 98.609375 C 49.988281 92.914062 53.601562 87.851562 59.339844 86.566406 C 59.757812 86.472656 60.117188 86.875 60.011719 87.277344 C 59.675781 88.503906 60.492188 89.453125 61.507812 89.734375 C 61.441406 89.589844 61.414062 89.441406 61.429688 89.28125 C 61.320312 89.011719 61.242188 88.71875 61.203125 88.425781 C 61.109375 87.675781 61.320312 87.222656 61.644531 86.566406 C 61.84375 86.152344 62.59375 86.285156 62.566406 86.78125 C 62.511719 87.464844 62.765625 88.210938 63.195312 88.8125 C 64.050781 89.121094 64.882812 89.65625 65.671875 90.054688 C 66.460938 90.445312 66.460938 91.898438 65.402344 91.914062 C 64.359375 91.925781 63.421875 91.578125 62.660156 90.9375 C 60.785156 91.351562 58.871094 89.816406 58.804688 87.878906 C 51.566406 89.976562 49.117188 98.582031 50.265625 105.332031 C 51.445312 112.347656 55.515625 118.910156 58.832031 125.101562 C 62.339844 131.6875 66.167969 138.089844 70.113281 144.425781 C 74.289062 151.09375 79.136719 157.457031 83.070312 164.273438 C 83.308594 164.703125 82.734375 165.277344 82.375 164.863281 C 76.5 158.152344 71.800781 149.890625 67.359375 142.195312 " fill-opacity="1" fill-rule="nonzero"/><path fill="#576a25" d="M 96.183594 198.703125 C 97.015625 205.144531 99.691406 211.332031 103.8125 216.359375 C 104.09375 216.691406 104.414062 217.054688 104.84375 217.132812 C 105.203125 217.199219 105.566406 217.082031 105.902344 216.933594 C 116.246094 212.816406 124.929688 204.703125 129.734375 194.667969 C 130.230469 193.636719 130.699219 192.488281 130.5 191.367188 C 130.324219 190.441406 129.75 189.667969 129.105469 189 C 125.839844 185.605469 120.929688 184.429688 116.285156 183.585938 C 110.636719 182.558594 104.9375 181.78125 99.222656 181.246094 C 104.226562 182.851562 109.234375 184.441406 114.25 186.03125 C 116.808594 186.847656 119.445312 187.703125 121.464844 189.46875 C 123.5 191.246094 124.746094 194.171875 123.753906 196.65625 C 120.96875 193.730469 117.382812 191.578125 113.488281 190.511719 C 116.769531 192.421875 119.3125 195.574219 120.476562 199.199219 C 115.042969 195.535156 109.609375 191.875 104.175781 188.210938 C 109.03125 193.023438 113.902344 197.835938 118.761719 202.644531 C 110.503906 197.914062 104.253906 190.429688 98.179688 183.117188 C 102.261719 190.164062 107.480469 196.5625 113.582031 201.992188 C 114.894531 203.167969 116.367188 205.023438 115.335938 206.453125 C 114.773438 207.230469 113.730469 207.402344 112.875 207.804688 C 111.496094 208.445312 110.210938 209.796875 108.726562 209.460938 C 107.707031 209.222656 107.039062 208.273438 106.488281 207.390625 C 100.976562 198.554688 96.464844 189.121094 93.054688 179.296875 C 95.207031 185.496094 95.339844 192.140625 96.183594 198.703125 " fill-opacity="1" fill-rule="nonzero"/><path fill="#ee7283" d="M 229.332031 322.691406 C 225.839844 316.679688 221.945312 310.984375 218.132812 305.183594 C 209.605469 292.207031 199.96875 280.605469 189.332031 269.324219 C 180.015625 259.433594 170.140625 249.90625 160.089844 240.738281 C 149.890625 231.460938 139.011719 222.988281 129.027344 213.484375 C 127.3125 211.855469 129.601562 208.5 131.742188 209.582031 C 145.355469 216.425781 157.371094 226.394531 168.574219 236.632812 C 179.507812 246.644531 189.746094 257.644531 198.5 269.632812 C 206.730469 280.898438 215.027344 292.246094 222.5625 303.996094 C 229.773438 315.25 237.75 327.851562 241.859375 340.628906 C 242.222656 341.753906 240.65625 342.21875 240.054688 341.351562 C 235.972656 335.445312 232.933594 328.894531 229.332031 322.691406 " fill-opacity="1" fill-rule="nonzero"/><path fill="#9e1b21" d="M 155.484375 306.828125 C 144.121094 306.828125 141.847656 324.5625 153.34375 324.5625 C 164.707031 324.5625 166.980469 306.828125 155.484375 306.828125 " fill-opacity="1" fill-rule="nonzero"/><path fill="#9e1b21" d="M 260.421875 284.308594 C 259.472656 281.460938 257.597656 279.203125 255.1875 277.425781 C 252.792969 275.632812 250.035156 278.132812 249.796875 280.511719 C 249.488281 283.558594 250.359375 286.257812 251.789062 288.878906 C 252.953125 291.003906 256.164062 291.417969 258.105469 290.347656 C 260.289062 289.160156 261.226562 286.6875 260.421875 284.308594 " fill-opacity="1" fill-rule="nonzero"/><path fill="#9e1b21" d="M 139.585938 151.121094 C 136.589844 151.121094 136.105469 155.8125 139.144531 155.8125 C 142.15625 155.8125 142.636719 151.121094 139.585938 151.121094 " fill-opacity="1" fill-rule="nonzero"/><path fill="#9e1b21" d="M 86.148438 276.25 C 85.613281 273.828125 84.125 271.796875 81.851562 270.6875 C 81.15625 270.460938 80.472656 270.234375 79.777344 270.007812 C 79.777344 270.007812 79.765625 270.007812 79.765625 270.007812 C 79.75 270.007812 79.75 270.007812 79.738281 270.007812 C 79.066406 269.886719 78.398438 269.886719 77.742188 269.941406 C 75.589844 269.550781 73.285156 270.046875 71.585938 271.839844 C 66.714844 276.902344 70.179688 284.921875 76.820312 285.925781 C 82.480469 286.765625 87.390625 281.941406 86.148438 276.25 " fill-opacity="1" fill-rule="nonzero"/><path fill="#9e1b21" d="M 141.902344 283.8125 C 135.636719 283.8125 136.628906 293.503906 142.851562 293.503906 C 149.128906 293.503906 148.136719 283.8125 141.902344 283.8125 " fill-opacity="1" fill-rule="nonzero"/><path fill="#9e1b21" d="M 244.253906 208.859375 C 238.191406 208.859375 239.023438 218.242188 245.070312 218.242188 C 251.121094 218.242188 250.289062 208.859375 244.253906 208.859375 " fill-opacity="1" fill-rule="nonzero"/><path fill="#9e1b21" d="M 302.351562 102.660156 C 294.976562 102.660156 293.824219 114.152344 301.28125 114.152344 C 308.65625 114.152344 309.804688 102.660156 302.351562 102.660156 " fill-opacity="1" fill-rule="nonzero"/></svg>