<svg xmlns="http://www.w3.org/2000/svg" xmlns:xlink="http://www.w3.org/1999/xlink" width="500" zoomAndPan="magnify" viewBox="0 0 375 374.999991" height="500" preserveAspectRatio="xMidYMid meet" version="1.0"><defs><clipPath id="e7fe2ca59b"><path d="M 77.34375 0 L 297.84375 0 L 297.84375 349 L 77.34375 349 Z M 77.34375 0 " clip-rule="nonzero"/></clipPath></defs><path fill="#f9a72b" d="M 237.445312 353.527344 C 237.445312 365.144531 215.378906 374.5625 188.152344 374.5625 C 160.929688 374.5625 138.863281 365.144531 138.863281 353.527344 C 138.863281 341.914062 160.929688 332.492188 188.152344 332.492188 C 215.378906 332.492188 237.445312 341.914062 237.445312 353.527344 " fill-opacity="1" fill-rule="nonzero"/><path fill="#fcd24f" d="M 236.4375 348.4375 C 236.4375 360.054688 214.597656 369.472656 187.652344 369.472656 C 160.707031 369.472656 138.863281 360.054688 138.863281 348.4375 C 138.863281 336.816406 160.707031 327.398438 187.652344 327.398438 C 214.597656 327.398438 236.4375 336.816406 236.4375 348.4375 " fill-opacity="1" fill-rule="nonzero"/><g clip-path="url(#e7fe2ca59b)"><path fill="#e33924" d="M 189.53125 0.433594 C 188.878906 0.433594 188.238281 0.472656 187.597656 0.488281 C 186.949219 0.472656 186.304688 0.433594 185.65625 0.433594 C 125.8125 0.433594 77.292969 50.972656 77.292969 113.308594 C 77.292969 123.945312 81.421875 148.542969 87.625 158.75 L 187.597656 348.4375 L 287.5625 158.75 C 293.761719 148.542969 297.890625 123.945312 297.890625 113.308594 C 297.890625 50.972656 249.382812 0.433594 189.53125 0.433594 " fill-opacity="1" fill-rule="nonzero"/></g><path fill="#ffffff" d="M 247.441406 100.734375 C 247.441406 133.757812 220.644531 160.527344 187.597656 160.527344 C 154.542969 160.527344 127.746094 133.757812 127.746094 100.734375 C 127.746094 67.707031 154.542969 40.9375 187.597656 40.9375 C 220.644531 40.9375 247.441406 67.707031 247.441406 100.734375 " fill-opacity="1" fill-rule="nonzero"/></svg>