<svg xmlns="http://www.w3.org/2000/svg" xmlns:xlink="http://www.w3.org/1999/xlink" width="500" zoomAndPan="magnify" viewBox="0 0 375 374.999991" height="500" preserveAspectRatio="xMidYMid meet" version="1.0"><defs><clipPath id="3a6673cf73"><path d="M 18 197 L 204 197 L 204 342.460938 L 18 342.460938 Z M 18 197 " clip-rule="nonzero"/></clipPath><clipPath id="72f0db21a6"><path d="M 16 32.710938 L 358.738281 32.710938 L 358.738281 316 L 16 316 Z M 16 32.710938 " clip-rule="nonzero"/></clipPath></defs><path fill="#23a636" d="M 16.46875 178.117188 C 28.269531 178.222656 40.492188 179.359375 53.105469 181.625 C 109.0625 191.667969 171.078125 223.046875 225.046875 273.480469 C 241.953125 289.285156 257.035156 306.007812 270.210938 323.222656 C 254.382812 331.292969 237.40625 336.890625 219.894531 339.84375 C 181.382812 276.515625 130.398438 228.722656 77.839844 202.359375 C 57.523438 192.152344 36.886719 185.175781 16.652344 181.808594 C 16.570312 180.578125 16.515625 179.347656 16.46875 178.117188 L 16.457031 178.117188 Z M 16.46875 178.117188 " fill-opacity="1" fill-rule="nonzero"/><g clip-path="url(#3a6673cf73)"><path fill="#69b44b" d="M 18.789062 197.886719 C 35.820312 201.21875 53.335938 207.324219 70.933594 216.148438 C 118.738281 240.136719 166.359375 283.765625 203.054688 341.867188 C 199.003906 342.199219 194.941406 342.40625 190.886719 342.464844 C 170.917969 342.40625 151.117188 338.921875 132.328125 332.164062 C 122.433594 308.191406 110.394531 286.445312 96.574219 267.617188 C 74.835938 237.988281 48.527344 215.449219 19.648438 203 C 19.339844 201.300781 19.0625 199.597656 18.789062 197.886719 Z M 18.789062 197.886719 " fill-opacity="1" fill-rule="nonzero"/></g><path fill="#b8d26f" d="M 25.101562 222.769531 C 46.65625 234.621094 66.695312 253.007812 84.144531 276.777344 C 94.3125 290.640625 103.519531 306.304688 111.574219 323.429688 C 70.679688 302.546875 39.621094 266.398438 25.101562 222.769531 Z M 25.101562 222.769531 " fill-opacity="1" fill-rule="nonzero"/><g clip-path="url(#72f0db21a6)"><path fill="#ffa500" d="M 52.039062 157.003906 C 98.273438 157.28125 149.648438 168.128906 200.277344 190.589844 C 251.355469 213.253906 294.1875 244.445312 325.523438 278.917969 C 313.644531 293.261719 299.539062 305.605469 283.765625 315.488281 C 269.742188 296.996094 253.660156 279.078125 235.582031 262.179688 C 179.640625 209.898438 115.316406 177.105469 55.839844 166.417969 C 42.304688 163.980469 29.015625 162.761719 16.089844 162.683594 C 16.125 161.476562 16.171875 160.269531 16.226562 159.050781 C 27.730469 157.636719 39.6875 156.925781 52.039062 157.003906 Z M 127.164062 129.144531 C 200.976562 129.144531 267.710938 148.589844 315.46875 179.472656 C 332.492188 190.484375 347.023438 202.898438 358.71875 216.34375 C 353.507812 234.160156 345.484375 251.03125 334.960938 266.332031 C 302.234375 230.964844 258.414062 199.496094 206.519531 176.460938 C 143.300781 148.417969 78.828125 137.671875 22.917969 142.808594 C 54.886719 134.039062 90.132812 129.144531 127.164062 129.144531 Z M 315.054688 102.15625 L 315.054688 120.132812 C 315.984375 128.269531 313.152344 136.386719 307.390625 142.167969 C 301.59375 147.960938 293.488281 150.773438 285.363281 149.820312 C 284.421875 141.695312 287.246094 133.570312 293.019531 127.800781 C 297.839844 122.996094 304.300781 120.214844 311.085938 120.007812 Z M 249.917969 102.15625 L 253.890625 120.007812 C 260.675781 120.214844 267.136719 122.996094 271.945312 127.800781 C 277.730469 133.570312 280.554688 141.683594 279.625 149.820312 C 271.507812 150.773438 263.394531 147.949219 257.597656 142.179688 C 251.824219 136.386719 248.988281 128.269531 249.917969 120.144531 Z M 80.976562 113.777344 L 80.976562 119.660156 C 81.273438 122.316406 80.355469 124.972656 78.460938 126.867188 C 76.566406 128.753906 73.925781 129.671875 71.265625 129.375 C 70.964844 126.707031 71.882812 124.050781 73.777344 122.15625 C 75.339844 120.605469 77.460938 119.683594 79.679688 119.617188 Z M 59.683594 113.777344 L 60.96875 119.617188 C 63.195312 119.683594 65.308594 120.59375 66.890625 122.15625 C 68.773438 124.050781 69.703125 126.707031 69.394531 129.363281 C 66.742188 129.671875 64.078125 128.753906 62.195312 126.855469 C 60.304688 124.960938 59.375 122.316406 59.683594 119.652344 Z M 214.085938 93.101562 L 214.085938 105.8125 C 214.738281 111.546875 212.742188 117.292969 208.667969 121.386719 C 204.582031 125.453125 198.84375 127.453125 193.101562 126.777344 C 192.449219 121.042969 194.433594 115.304688 198.519531 111.214844 C 201.917969 107.824219 206.484375 105.871094 211.296875 105.71875 Z M 168.082031 93.101562 L 170.882812 105.710938 C 175.679688 105.859375 180.234375 107.824219 183.644531 111.214844 C 187.730469 115.292969 189.730469 121.03125 189.0625 126.777344 C 183.324219 127.441406 177.597656 125.453125 173.511719 121.375 C 169.414062 117.28125 167.425781 111.546875 168.082031 105.8125 Z M 101.050781 100.515625 L 103.023438 109.421875 C 106.410156 109.523438 109.636719 110.914062 112.046875 113.304688 C 114.914062 116.191406 116.328125 120.238281 115.867188 124.292969 C 111.804688 124.765625 107.765625 123.363281 104.882812 120.476562 C 101.992188 117.59375 100.578125 113.546875 101.050781 109.488281 Z M 133.519531 100.527344 L 133.519531 109.5 C 133.992188 113.546875 132.589844 117.59375 129.699219 120.476562 C 126.816406 123.363281 122.765625 124.765625 118.714844 124.292969 C 118.253906 120.238281 119.65625 116.191406 122.546875 113.304688 C 124.933594 110.914062 128.160156 109.523438 131.558594 109.421875 Z M 80.976562 102.203125 L 80.976562 108.089844 C 81.273438 110.742188 80.355469 113.386719 78.460938 115.28125 C 76.566406 117.179688 73.925781 118.097656 71.265625 117.789062 C 70.964844 115.132812 71.882812 112.480469 73.777344 110.582031 C 75.339844 109.019531 77.460938 108.097656 79.679688 108.042969 Z M 59.683594 102.203125 L 60.96875 108.03125 C 63.195312 108.097656 65.308594 109.019531 66.890625 110.582031 C 68.773438 112.46875 69.703125 115.132812 69.394531 117.777344 C 66.742188 118.097656 64.078125 117.167969 62.195312 115.28125 C 60.304688 113.386719 59.375 110.742188 59.683594 108.078125 Z M 249.917969 66.734375 L 253.890625 84.59375 C 260.675781 84.800781 267.136719 87.582031 271.945312 92.375 C 277.730469 98.15625 280.554688 106.273438 279.625 114.410156 C 271.507812 115.363281 263.394531 112.535156 257.597656 106.765625 C 251.824219 100.972656 248.988281 92.859375 249.917969 84.734375 Z M 315.054688 66.746094 L 315.054688 84.722656 C 315.984375 92.859375 313.152344 100.972656 307.390625 106.753906 C 301.59375 112.535156 293.488281 115.351562 285.363281 114.410156 C 284.421875 106.273438 287.246094 98.15625 293.019531 92.375 C 297.839844 87.582031 304.300781 84.800781 311.085938 84.59375 Z M 70.242188 91.078125 L 71.011719 96.261719 C 72.6875 97.90625 73.652344 100.15625 73.652344 102.515625 C 73.652344 105.191406 72.425781 107.71875 70.335938 109.386719 C 68.234375 107.71875 67.019531 105.191406 67.007812 102.515625 C 67.019531 100.191406 67.925781 97.972656 69.566406 96.332031 Z M 133.519531 82.859375 L 133.519531 91.835938 C 133.992188 95.882812 132.589844 99.929688 129.699219 102.824219 C 126.816406 105.699219 122.765625 107.109375 118.714844 106.628906 C 118.253906 102.570312 119.65625 98.539062 122.546875 95.640625 C 124.933594 93.25 128.160156 91.859375 131.558594 91.757812 Z M 101.050781 82.859375 L 103.023438 91.757812 C 106.410156 91.859375 109.636719 93.25 112.046875 95.640625 C 114.914062 98.527344 116.328125 102.570312 115.867188 106.628906 C 111.804688 107.101562 107.765625 105.699219 104.882812 102.824219 C 101.992188 99.929688 100.578125 95.882812 101.050781 91.824219 Z M 214.085938 68.089844 L 214.085938 80.792969 C 214.738281 86.539062 212.742188 92.273438 208.667969 96.351562 C 204.582031 100.433594 198.84375 102.433594 193.101562 101.765625 C 192.449219 96.019531 194.433594 90.285156 198.519531 86.191406 C 201.917969 82.8125 206.484375 80.847656 211.296875 80.710938 Z M 168.082031 68.078125 L 170.882812 80.699219 C 175.679688 80.835938 180.234375 82.800781 183.644531 86.191406 C 187.730469 90.285156 189.730469 96.019531 189.0625 101.753906 C 183.324219 102.433594 177.597656 100.433594 173.511719 96.351562 C 169.414062 92.273438 167.425781 86.539062 168.082031 80.792969 Z M 117.140625 65.882812 L 118.335938 73.78125 C 120.894531 76.296875 122.339844 79.746094 122.351562 83.332031 C 122.351562 87.421875 120.492188 91.273438 117.300781 93.824219 C 114.101562 91.285156 112.230469 87.421875 112.230469 83.332031 C 112.230469 79.804688 113.628906 76.402344 116.121094 73.894531 Z M 282.207031 32.726562 L 284.570312 48.5625 C 289.722656 53.609375 292.628906 60.492188 292.640625 67.710938 C 292.640625 75.882812 288.910156 83.628906 282.503906 88.722656 C 276.101562 83.640625 272.347656 75.894531 272.335938 67.710938 C 272.347656 60.609375 275.160156 53.792969 280.164062 48.769531 Z M 190.886719 44.058594 L 192.550781 55.253906 C 196.191406 58.804688 198.246094 63.675781 198.257812 68.769531 C 198.257812 74.550781 195.617188 80.007812 191.09375 83.605469 C 186.5625 80.019531 183.910156 74.550781 183.910156 68.769531 C 183.910156 63.757812 185.90625 58.941406 189.441406 55.402344 Z M 190.886719 44.058594 " fill-opacity="1" fill-rule="nonzero"/></g></svg>