<svg xmlns="http://www.w3.org/2000/svg" xmlns:xlink="http://www.w3.org/1999/xlink" width="500" zoomAndPan="magnify" viewBox="0 0 375 374.999991" height="500" preserveAspectRatio="xMidYMid meet" version="1.0"><path fill="#ef302b" d="M 344.046875 259.0625 C 324.980469 339.300781 248.460938 374.929688 168.136719 355.882812 C 87.816406 336.84375 12.160156 254.546875 46.042969 153.671875 C 79.78125 53.210938 177.953125 82.640625 258.273438 101.6875 C 338.59375 120.730469 363.113281 178.835938 344.046875 259.0625 " fill-opacity="1" fill-rule="nonzero"/><path fill="#cccbcb" d="M 210.148438 360.917969 L 210.144531 360.917969 L 210.148438 360.917969 M 210.148438 360.917969 C 273.761719 360.914062 328.355469 325.089844 344.046875 259.0625 C 344.054688 259.03125 344.066406 259 344.070312 258.960938 C 344.066406 258.996094 344.054688 259.03125 344.046875 259.0625 C 328.355469 325.101562 273.765625 360.917969 210.148438 360.917969 M 168.46875 355.960938 C 168.464844 355.960938 168.460938 355.960938 168.457031 355.960938 C 168.460938 355.960938 168.464844 355.960938 168.46875 355.960938 M 168.304688 355.925781 C 168.25 355.910156 168.191406 355.898438 168.136719 355.882812 C 168.191406 355.898438 168.25 355.910156 168.304688 355.925781 M 168.019531 355.855469 C 168.015625 355.855469 168.015625 355.855469 168.015625 355.855469 L 168.019531 355.855469 M 167.902344 355.828125 C 167.902344 355.828125 167.898438 355.828125 167.894531 355.824219 C 167.898438 355.828125 167.898438 355.828125 167.902344 355.828125 M 167.78125 355.800781 C 167.78125 355.800781 167.773438 355.796875 167.773438 355.796875 C 167.777344 355.796875 167.777344 355.800781 167.78125 355.800781 M 167.667969 355.773438 C 167.660156 355.769531 167.660156 355.769531 167.648438 355.769531 C 167.65625 355.769531 167.664062 355.769531 167.667969 355.773438 M 167.550781 355.746094 C 167.539062 355.742188 167.539062 355.742188 167.53125 355.742188 C 167.535156 355.742188 167.542969 355.742188 167.550781 355.746094 M 167.429688 355.714844 C 167.425781 355.714844 167.417969 355.714844 167.410156 355.710938 C 167.417969 355.710938 167.425781 355.714844 167.429688 355.714844 M 167.3125 355.6875 C 167.304688 355.683594 167.300781 355.683594 167.292969 355.683594 C 167.296875 355.683594 167.304688 355.6875 167.3125 355.6875 M 167.191406 355.660156 C 167.1875 355.65625 167.183594 355.65625 167.171875 355.65625 C 167.183594 355.65625 167.1875 355.65625 167.191406 355.660156 M 167.074219 355.628906 C 167.070312 355.628906 167.0625 355.628906 167.058594 355.625 C 167.0625 355.628906 167.070312 355.628906 167.074219 355.628906 M 166.953125 355.601562 C 166.949219 355.601562 166.945312 355.601562 166.941406 355.597656 C 166.945312 355.601562 166.949219 355.601562 166.953125 355.601562 M 166.835938 355.570312 C 166.832031 355.570312 166.832031 355.570312 166.824219 355.570312 L 166.835938 355.570312 M 344.078125 258.929688 C 344.082031 258.902344 344.09375 258.875 344.097656 258.847656 C 344.09375 258.875 344.082031 258.90625 344.078125 258.929688 M 344.105469 258.808594 C 344.113281 258.777344 344.121094 258.761719 344.125 258.734375 C 344.121094 258.761719 344.113281 258.785156 344.105469 258.808594 M 344.132812 258.691406 C 344.140625 258.664062 344.140625 258.652344 344.148438 258.628906 C 344.140625 258.652344 344.136719 258.667969 344.132812 258.691406 M 344.164062 258.554688 C 344.167969 258.542969 344.175781 258.519531 344.179688 258.503906 C 344.175781 258.523438 344.167969 258.535156 344.164062 258.554688 M 344.191406 258.449219 C 344.191406 258.4375 344.199219 258.421875 344.203125 258.410156 C 344.199219 258.421875 344.191406 258.4375 344.191406 258.449219 M 344.226562 258.304688 C 344.230469 258.289062 344.230469 258.289062 344.230469 258.28125 C 344.230469 258.289062 344.230469 258.289062 344.226562 258.304688 M 344.246094 258.207031 C 344.253906 258.203125 344.246094 258.210938 344.246094 258.207031 " fill-opacity="1" fill-rule="nonzero"/><path fill="#bf2621" d="M 210.148438 360.917969 L 210.144531 360.917969 C 196.570312 360.914062 182.574219 359.28125 168.46875 355.960938 C 168.464844 355.960938 168.460938 355.960938 168.457031 355.960938 C 168.402344 355.949219 168.359375 355.9375 168.304688 355.925781 C 168.25 355.910156 168.191406 355.898438 168.136719 355.882812 C 168.097656 355.875 168.0625 355.867188 168.019531 355.855469 L 168.015625 355.855469 C 167.976562 355.847656 167.9375 355.839844 167.902344 355.828125 C 167.898438 355.828125 167.898438 355.828125 167.894531 355.824219 C 167.855469 355.820312 167.824219 355.8125 167.78125 355.800781 C 167.777344 355.800781 167.777344 355.796875 167.773438 355.796875 C 167.738281 355.789062 167.699219 355.777344 167.667969 355.773438 C 167.664062 355.769531 167.65625 355.769531 167.648438 355.769531 C 167.617188 355.761719 167.582031 355.75 167.550781 355.746094 C 167.542969 355.742188 167.535156 355.742188 167.53125 355.742188 C 167.5 355.734375 167.460938 355.722656 167.429688 355.714844 C 167.425781 355.714844 167.417969 355.710938 167.410156 355.710938 C 167.378906 355.703125 167.34375 355.695312 167.3125 355.6875 C 167.304688 355.6875 167.296875 355.683594 167.292969 355.683594 C 167.261719 355.671875 167.222656 355.664062 167.191406 355.660156 C 167.1875 355.65625 167.183594 355.65625 167.171875 355.65625 C 167.140625 355.644531 167.105469 355.636719 167.074219 355.628906 C 167.070312 355.628906 167.0625 355.628906 167.058594 355.625 C 167.023438 355.617188 166.992188 355.609375 166.953125 355.601562 C 166.949219 355.601562 166.945312 355.601562 166.941406 355.597656 C 166.902344 355.585938 166.871094 355.578125 166.835938 355.570312 L 166.824219 355.570312 C 166.789062 355.558594 166.753906 355.550781 166.710938 355.542969 C 126.640625 345.660156 87.914062 320.0625 63.527344 284.339844 C 93.082031 311.640625 132.527344 328.050781 170.785156 330.808594 C 175.402344 331.140625 179.976562 331.300781 184.507812 331.300781 C 260.75 331.300781 323.261719 284.6875 328.863281 207.054688 C 330.898438 178.867188 328.296875 154.0625 320.679688 133.398438 C 349.945312 162.050781 356.644531 205.269531 344.246094 258.207031 C 344.246094 258.210938 344.253906 258.203125 344.246094 258.207031 C 344.242188 258.230469 344.238281 258.253906 344.230469 258.28125 C 344.230469 258.289062 344.230469 258.289062 344.226562 258.304688 C 344.21875 258.335938 344.210938 258.371094 344.203125 258.410156 C 344.199219 258.421875 344.191406 258.4375 344.191406 258.449219 C 344.1875 258.472656 344.183594 258.488281 344.179688 258.503906 C 344.175781 258.519531 344.167969 258.542969 344.164062 258.554688 C 344.160156 258.578125 344.15625 258.605469 344.148438 258.628906 C 344.140625 258.652344 344.140625 258.664062 344.132812 258.691406 C 344.132812 258.707031 344.128906 258.71875 344.125 258.734375 C 344.121094 258.761719 344.113281 258.777344 344.105469 258.808594 C 344.105469 258.820312 344.101562 258.835938 344.097656 258.847656 C 344.09375 258.875 344.082031 258.902344 344.078125 258.929688 C 344.074219 258.945312 344.074219 258.949219 344.070312 258.960938 C 344.066406 259 344.054688 259.03125 344.046875 259.0625 C 328.355469 325.089844 273.761719 360.914062 210.148438 360.917969 " fill-opacity="1" fill-rule="nonzero"/><path fill="#f1493a" d="M 127.777344 203.613281 C 122.925781 224.027344 102.429688 236.652344 81.984375 231.808594 C 61.546875 226.957031 48.910156 206.480469 53.761719 186.058594 C 66.578125 132.140625 84.148438 111.308594 104.59375 116.15625 C 125.03125 121 95.601562 174.527344 127.777344 203.613281 " fill-opacity="1" fill-rule="nonzero"/><path fill="#2e5223" d="M 247.726562 124.582031 C 289.207031 142.3125 260.964844 198.8125 253.449219 211.957031 C 258.332031 169.226562 246.660156 137.796875 200.632812 139.171875 C 169.855469 103.421875 104.179688 155.496094 104.179688 155.496094 C 104.179688 155.496094 139.105469 83.417969 204.148438 108.101562 C 204.148438 108.101562 123.757812 58.3125 90.675781 101.382812 C 113.464844 64.652344 168.3125 50.382812 217.359375 87.617188 C 217.359375 87.617188 306.765625 101.707031 334.742188 65.332031 C 305.921875 126.582031 272.824219 109.457031 268.710938 111.992188 C 268.710938 111.992188 331.304688 128.007812 349.464844 169.769531 C 314.953125 141.101562 247.726562 124.582031 247.726562 124.582031 " fill-opacity="1" fill-rule="nonzero"/><path fill="#447a2e" d="M 169.238281 168.171875 C 169.238281 168.171875 186.765625 129.074219 218.945312 141.195312 C 251.121094 153.328125 228.820312 176.039062 224.898438 181.371094 C 224.898438 181.371094 268.867188 166.519531 258.976562 143.988281 C 249.085938 121.453125 305.230469 160.210938 301.730469 168.3125 C 306.570312 147.890625 272.414062 122.8125 256.523438 117.699219 C 256.523438 117.699219 297.84375 108.144531 315.191406 134.839844 C 303.585938 99.882812 247.128906 92.082031 237.09375 100.003906 C 237.09375 100.003906 257.960938 80.347656 262.652344 31.734375 C 242.859375 58.777344 228.160156 77.820312 210.46875 87.027344 C 210.46875 87.027344 184.207031 42.953125 209.957031 0.0273438 C 169.007812 19.152344 176.875 79.28125 193.28125 89.839844 C 193.28125 89.839844 148.574219 83.789062 130.957031 111.089844 C 161.1875 100.605469 183.214844 104.625 204.484375 112.359375 C 204.484375 112.359375 162.371094 129.46875 169.238281 168.171875 " fill-opacity="1" fill-rule="nonzero"/><path fill="#5dab33" d="M 234.234375 117.957031 L 229.929688 112.652344 L 312.316406 20.445312 L 329.082031 41.089844 L 234.234375 117.957031 " fill-opacity="1" fill-rule="nonzero"/></svg>