<svg xmlns="http://www.w3.org/2000/svg" xmlns:xlink="http://www.w3.org/1999/xlink" width="500" zoomAndPan="magnify" viewBox="0 0 375 374.999991" height="500" preserveAspectRatio="xMidYMid meet" version="1.0"><defs><clipPath id="cbaf7131b8"><path d="M 55.78125 55 L 76 55 L 76 81 L 55.78125 81 Z M 55.78125 55 " clip-rule="nonzero"/></clipPath><clipPath id="a686ce9660"><path d="M 55.78125 96 L 84 96 L 84 122 L 55.78125 122 Z M 55.78125 96 " clip-rule="nonzero"/></clipPath></defs><g clip-path="url(#cbaf7131b8)"><path fill="#bd9013" d="M 55.792969 55.675781 C 55.792969 55.675781 57.738281 56.507812 60.109375 58.378906 C 61.320312 59.289062 62.675781 60.425781 64.050781 61.714844 C 65.378906 63.039062 66.667969 64.5625 67.964844 66.082031 C 69.15625 67.6875 70.5 69.167969 71.363281 70.867188 C 72.3125 72.507812 73.109375 74.089844 73.71875 75.472656 C 74.980469 78.238281 75.449219 80.257812 75.449219 80.257812 C 75.453125 80.257812 73.671875 79.046875 71.550781 76.957031 C 70.472656 75.921875 69.304688 74.671875 68.136719 73.273438 C 67.003906 71.859375 65.640625 70.449219 64.40625 68.945312 C 63.222656 67.414062 62.023438 65.882812 61.015625 64.335938 C 59.925781 62.882812 58.96875 61.453125 58.207031 60.164062 C 56.671875 57.601562 55.792969 55.675781 55.792969 55.675781 " fill-opacity="1" fill-rule="nonzero"/></g><g clip-path="url(#a686ce9660)"><path fill="#bd9013" d="M 55.792969 96.460938 C 55.792969 96.460938 57.953125 97.648438 60.78125 99.761719 C 62.230469 100.792969 63.8125 102.09375 65.496094 103.488281 C 67.1875 104.875 68.863281 106.488281 70.605469 108.011719 C 72.261719 109.617188 73.921875 111.226562 75.472656 112.734375 C 76.984375 114.316406 78.402344 115.707031 79.613281 116.941406 C 80.808594 118.273438 81.832031 119.171875 82.617188 119.84375 C 83.40625 120.582031 83.855469 121.003906 83.855469 121.003906 C 83.855469 121.003906 83.289062 120.917969 82.246094 120.667969 C 81.183594 120.441406 79.617188 119.988281 78.089844 119.070312 C 74.78125 117.453125 70.953125 114.566406 67.496094 111.347656 C 64.03125 108.121094 60.980469 104.503906 58.921875 101.589844 C 56.835938 98.6875 55.792969 96.460938 55.792969 96.460938 " fill-opacity="1" fill-rule="nonzero"/></g><path fill="#bd9013" d="M 91.480469 51.640625 C 91.480469 51.640625 93.136719 52.832031 94.96875 55.109375 C 95.933594 56.21875 96.902344 57.609375 97.839844 59.160156 C 98.851562 60.671875 99.582031 62.480469 100.414062 64.234375 C 101.113281 66.046875 101.675781 67.9375 102.117188 69.707031 C 102.441406 71.542969 102.597656 73.289062 102.660156 74.757812 C 102.472656 77.816406 101.847656 79.6875 101.847656 79.6875 C 101.847656 79.6875 100.914062 77.785156 100.082031 75.234375 C 99.453125 73.957031 98.855469 72.480469 98.277344 70.894531 C 97.496094 69.347656 96.933594 67.628906 96.1875 65.957031 C 95.480469 64.261719 94.867188 62.53125 94.234375 60.910156 C 93.621094 59.28125 93.109375 57.71875 92.679688 56.359375 C 91.839844 53.644531 91.480469 51.640625 91.480469 51.640625 " fill-opacity="1" fill-rule="nonzero"/><path fill="#bd9013" d="M 118.074219 82.417969 C 118.074219 82.417969 119.621094 84.023438 121.132812 86.847656 C 122.738281 89.640625 124.238281 93.652344 125.144531 97.835938 C 125.414062 99.964844 125.855469 102.066406 125.824219 104.09375 C 125.84375 105.109375 125.78125 106.089844 125.734375 107.015625 C 125.679688 107.9375 125.679688 108.804688 125.46875 109.609375 C 124.785156 112.832031 123.925781 114.804688 123.925781 114.804688 C 123.925781 114.804688 123.253906 112.628906 122.84375 109.628906 C 122.769531 108.878906 122.464844 108.0625 122.332031 107.207031 C 122.152344 106.351562 121.949219 105.457031 121.824219 104.53125 C 121.742188 103.59375 121.382812 102.65625 121.238281 101.679688 C 121.050781 100.707031 120.859375 99.71875 120.671875 98.730469 C 120.507812 97.742188 120.261719 96.757812 120.070312 95.785156 C 119.832031 94.8125 119.777344 93.820312 119.550781 92.898438 C 119.148438 91.03125 118.921875 89.238281 118.664062 87.699219 C 118.210938 84.617188 118.074219 82.417969 118.074219 82.417969 " fill-opacity="1" fill-rule="nonzero"/><path fill="#bd9013" d="M 80.859375 130.625 C 80.859375 130.625 82.699219 131.175781 85.105469 132.390625 C 87.539062 133.570312 90.480469 135.480469 93.324219 137.507812 C 94.695312 138.582031 96.078125 139.640625 97.28125 140.777344 C 98.527344 141.832031 99.675781 142.8125 100.609375 143.78125 C 102.503906 145.648438 103.621094 147.273438 103.621094 147.273438 C 103.621094 147.273438 101.765625 146.996094 99.210938 146 C 97.933594 145.511719 96.4375 144.890625 94.960938 144.066406 C 93.507812 143.226562 92.054688 142.191406 90.597656 141.164062 C 87.710938 139.066406 85.183594 136.511719 83.457031 134.417969 C 81.714844 132.347656 80.859375 130.625 80.859375 130.625 " fill-opacity="1" fill-rule="nonzero"/><path fill="#bd9013" d="M 139.554688 114.804688 C 139.554688 114.804688 140.789062 116.347656 141.761719 119.011719 C 142.042969 119.671875 142.25 120.402344 142.453125 121.183594 C 142.644531 121.957031 142.9375 122.78125 143.023438 123.648438 C 143.296875 125.378906 143.539062 127.246094 143.5 129.117188 C 143.460938 130.054688 143.421875 130.988281 143.382812 131.90625 C 143.386719 132.828125 143.097656 133.71875 142.980469 134.582031 C 142.628906 136.308594 142.320312 137.90625 141.703125 139.210938 C 140.640625 141.847656 139.554688 143.429688 139.554688 143.429688 C 139.554688 143.429688 139.148438 141.46875 139.113281 138.785156 C 139.136719 137.449219 138.953125 135.878906 138.976562 134.234375 C 138.960938 132.605469 138.949219 130.859375 138.9375 129.113281 C 139.070312 127.371094 138.902344 125.636719 139.027344 123.984375 C 139.046875 122.335938 139.09375 120.785156 139.1875 119.433594 C 139.308594 116.742188 139.554688 114.804688 139.554688 114.804688 " fill-opacity="1" fill-rule="nonzero"/><path fill="#bd9013" d="M 159.617188 138.957031 C 159.617188 138.957031 160.6875 140.664062 161.519531 143.414062 C 162.433594 146.144531 163.058594 149.910156 163.191406 153.714844 C 163.109375 155.621094 163.113281 157.53125 162.824219 159.308594 C 162.515625 161.09375 162.171875 162.742188 161.714844 164.121094 C 160.6875 166.886719 159.617188 168.527344 159.617188 168.527344 C 159.617188 168.527344 159.1875 166.511719 159.117188 163.785156 C 158.976562 162.398438 158.820312 160.796875 158.808594 159.109375 C 158.832031 158.269531 158.652344 157.382812 158.675781 156.492188 C 158.660156 155.601562 158.644531 154.695312 158.625 153.792969 C 158.53125 150.167969 158.683594 146.511719 158.929688 143.707031 C 159.179688 140.910156 159.617188 138.957031 159.617188 138.957031 " fill-opacity="1" fill-rule="nonzero"/><path fill="#bd9013" d="M 95.285156 160.519531 C 95.285156 160.519531 97.035156 161.542969 99.292969 163.25 C 100.421875 164.113281 101.71875 165.117188 103.035156 166.242188 C 104.339844 167.386719 105.753906 168.542969 107.101562 169.78125 C 108.429688 171.023438 109.839844 172.152344 111.035156 173.402344 C 112.339844 174.457031 113.515625 175.542969 114.5 176.5625 C 116.628906 178.195312 118.074219 179.738281 118.074219 179.738281 C 118.074219 179.738281 116.117188 179.664062 113.175781 178.824219 C 111.816406 178.273438 110.253906 177.523438 108.625 176.621094 C 107.105469 175.617188 105.539062 174.4375 104.050781 173.183594 C 102.699219 171.800781 101.242188 170.511719 100.164062 169.050781 C 99.027344 167.640625 98.046875 166.261719 97.335938 164.980469 C 95.828125 162.480469 95.285156 160.519531 95.285156 160.519531 " fill-opacity="1" fill-rule="nonzero"/><path fill="#bd9013" d="M 112.316406 193.914062 C 112.316406 193.914062 114.113281 194.480469 116.40625 195.785156 C 118.730469 197.039062 121.527344 199.121094 124.191406 201.1875 C 126.808594 203.335938 129.199219 205.777344 130.835938 207.855469 C 132.492188 209.90625 133.382812 211.621094 133.382812 211.621094 C 133.382812 211.621094 131.605469 211.164062 129.261719 209.953125 C 126.894531 208.777344 123.953125 206.863281 121.238281 204.667969 C 119.917969 203.53125 118.570312 202.410156 117.511719 201.183594 C 116.414062 199.996094 115.449219 198.816406 114.675781 197.738281 C 113.101562 195.625 112.316406 193.914062 112.316406 193.914062 " fill-opacity="1" fill-rule="nonzero"/><path fill="#bd9013" d="M 169.382812 168.527344 C 169.382812 168.527344 169.847656 168.710938 170.570312 169.246094 C 171.347656 169.757812 172.226562 170.648438 173.222656 171.828125 C 174.097656 173.046875 175.171875 174.542969 175.8125 176.324219 C 176.136719 177.210938 176.621094 178.105469 176.832031 179.078125 C 177.039062 180.046875 177.246094 181.03125 177.449219 182.019531 C 177.863281 184.003906 177.796875 186.007812 177.726562 187.871094 C 177.734375 189.742188 177.410156 191.453125 176.964844 192.890625 C 176.210938 195.78125 175.308594 197.574219 175.308594 197.574219 C 175.3125 197.574219 174.683594 195.566406 174.34375 192.753906 C 174.253906 192.046875 174.160156 191.296875 174.117188 190.5 C 174.003906 189.707031 173.796875 188.882812 173.707031 188.027344 C 173.398438 186.332031 173.417969 184.5 172.945312 182.757812 C 172.710938 180.96875 172.410156 179.207031 172.003906 177.578125 C 171.789062 176.777344 171.742188 175.917969 171.476562 175.199219 C 171.246094 174.464844 171.078125 173.734375 170.917969 173.054688 C 170.480469 171.773438 170.1875 170.566406 169.871094 169.816406 C 169.601562 169.011719 169.382812 168.527344 169.382812 168.527344 " fill-opacity="1" fill-rule="nonzero"/><path fill="#bd9013" d="M 185.277344 200.105469 C 185.277344 200.105469 186.144531 202.046875 186.722656 205.015625 C 187.035156 206.503906 187.300781 208.246094 187.488281 210.121094 C 187.746094 211.996094 187.664062 214 187.667969 216.007812 C 187.5625 218.011719 187.472656 220.015625 187.222656 221.878906 C 187.140625 222.816406 186.839844 223.730469 186.640625 224.585938 C 186.445312 225.441406 186.203125 226.242188 185.972656 226.976562 C 185.078125 229.917969 184.09375 231.726562 184.09375 231.726562 C 184.097656 231.726562 183.570312 229.59375 183.371094 226.636719 C 183.230469 225.144531 183.238281 223.464844 183.210938 221.644531 C 183.070312 219.800781 183.097656 217.839844 183.109375 215.886719 C 183.308594 211.980469 183.5625 208.070312 184.113281 205.097656 C 184.621094 202.125 185.277344 200.105469 185.277344 200.105469 " fill-opacity="1" fill-rule="nonzero"/><path fill="#bd9013" d="M 124.1875 224.019531 C 124.1875 224.019531 125.980469 224.761719 128.238281 226.269531 C 130.523438 227.746094 133.300781 229.980469 135.867188 232.402344 C 137.109375 233.652344 138.363281 234.902344 139.460938 236.128906 C 140.570312 237.363281 141.546875 238.570312 142.375 239.597656 C 143.210938 240.671875 143.84375 241.574219 144.351562 242.148438 C 144.863281 242.820312 145.15625 243.203125 145.15625 243.203125 C 145.273438 243.171875 143.117188 243.042969 140.722656 241.632812 C 138.207031 240.359375 135.324219 238.167969 132.714844 235.703125 C 130.125 233.214844 127.863281 230.417969 126.382812 228.109375 C 124.878906 225.824219 124.1875 224.019531 124.1875 224.019531 " fill-opacity="1" fill-rule="nonzero"/><path fill="#d5a315" d="M 94.476562 97.882812 C 94.476562 97.882812 95.132812 98.578125 96.367188 99.878906 C 97.574219 101.199219 99.394531 103.121094 101.542969 105.691406 C 105.90625 110.796875 111.902344 118.289062 118.472656 127.761719 C 121.777344 132.480469 125.261719 137.664062 128.710938 143.300781 C 132.195312 148.910156 135.761719 154.902344 139.171875 161.261719 C 142.570312 167.625 146.078125 174.21875 149.214844 181.128906 C 152.386719 188.011719 155.460938 195.085938 158.289062 202.269531 C 161.078125 209.457031 163.566406 216.761719 165.90625 223.996094 C 167.054688 227.613281 168.074219 231.246094 169.085938 234.828125 C 169.996094 238.4375 170.894531 242.003906 171.785156 245.511719 C 172.546875 249.050781 173.367188 252.511719 174.039062 255.929688 C 174.628906 259.359375 175.21875 262.714844 175.78125 265.984375 C 176.277344 269.265625 176.710938 272.453125 177.105469 275.546875 C 177.535156 278.632812 177.691406 281.652344 177.976562 284.523438 C 178.605469 290.261719 178.589844 295.585938 178.8125 300.257812 C 178.8125 304.945312 178.777344 309.023438 178.652344 312.375 C 178.265625 319.097656 177.929688 322.902344 177.929688 322.902344 C 177.929688 322.902344 177.441406 319.078125 176.777344 312.449219 C 176.34375 309.144531 175.816406 305.140625 175.207031 300.542969 C 174.832031 298.257812 174.433594 295.832031 174.003906 293.269531 C 173.800781 292.003906 173.597656 290.6875 173.394531 289.339844 C 173.128906 288.007812 172.871094 286.648438 172.605469 285.238281 C 171.605469 279.65625 170.230469 273.667969 168.863281 267.332031 C 168.082031 264.1875 167.273438 260.953125 166.460938 257.65625 C 165.511719 254.375 164.664062 251.007812 163.738281 247.605469 C 162.722656 244.214844 161.695312 240.78125 160.65625 237.292969 C 159.476562 233.847656 158.382812 230.339844 157.234375 226.816406 C 154.859375 219.78125 152.308594 212.695312 149.503906 205.699219 C 146.835938 198.640625 143.933594 191.675781 140.921875 184.886719 C 139.402344 181.496094 137.890625 178.140625 136.402344 174.808594 C 134.863281 171.511719 133.359375 168.242188 131.800781 165.058594 C 128.652344 158.710938 125.652344 152.535156 122.617188 146.78125 C 119.566406 141.035156 116.675781 135.59375 113.90625 130.625 C 108.34375 120.6875 103.519531 112.488281 100.03125 106.792969 C 98.28125 103.945312 96.902344 101.714844 95.964844 100.1875 C 94.988281 98.675781 94.476562 97.882812 94.476562 97.882812 " fill-opacity="1" fill-rule="nonzero"/><path fill="#e5b22d" d="M 112.664062 116.960938 C 112.664062 116.960938 86.316406 102.40625 98.507812 65.402344 C 98.507812 65.402344 124.859375 83.910156 112.664062 116.960938 " fill-opacity="1" fill-rule="nonzero"/><path fill="#e5b22d" d="M 70.871094 111.15625 C 70.871094 111.15625 116.304688 103.777344 118.074219 138.902344 C 118.074219 138.902344 94.773438 146.875 70.871094 111.15625 " fill-opacity="1" fill-rule="nonzero"/><path fill="#e5b22d" d="M 64.097656 63.933594 C 64.097656 63.933594 61.144531 103.964844 100.964844 110.511719 C 100.964844 110.511719 99.195312 79.28125 64.097656 63.933594 " fill-opacity="1" fill-rule="nonzero"/><path fill="#e5b22d" d="M 122.789062 97.882812 C 122.789062 97.882812 104.503906 131.820312 129.570312 151.300781 C 129.570312 151.300781 148.144531 126.796875 122.789062 97.882812 " fill-opacity="1" fill-rule="nonzero"/><path fill="#e5b22d" d="M 89.75 138.019531 C 89.75 138.019531 129.570312 136.542969 134.886719 172.257812 C 134.886719 172.257812 100.078125 171.367188 89.75 138.019531 " fill-opacity="1" fill-rule="nonzero"/><path fill="#e5b22d" d="M 141.078125 124.585938 C 141.078125 124.585938 121.605469 156.613281 144.617188 176.683594 C 144.617188 176.683594 164.378906 156.324219 141.078125 124.585938 " fill-opacity="1" fill-rule="nonzero"/><path fill="#e5b22d" d="M 103.621094 170.191406 C 103.621094 170.191406 145.5 169.015625 148.75 197.941406 C 148.75 197.941406 116.460938 199.382812 103.621094 170.191406 " fill-opacity="1" fill-rule="nonzero"/><path fill="#e5b22d" d="M 161.425781 155.136719 C 161.425781 155.136719 136.0625 180.230469 157.003906 201.777344 C 157.003906 201.777344 170.867188 192.027344 161.425781 155.136719 " fill-opacity="1" fill-rule="nonzero"/><path fill="#e5b22d" d="M 175.289062 182 C 175.289062 182 151.785156 201.183594 164.71875 230.113281 C 164.71875 230.113281 185.027344 221.84375 175.289062 182 " fill-opacity="1" fill-rule="nonzero"/><path fill="#e5b22d" d="M 121.605469 201.777344 C 121.605469 201.777344 158.472656 202.066406 160.832031 230.113281 C 160.832031 230.113281 141.078125 237.484375 121.605469 201.777344 " fill-opacity="1" fill-rule="nonzero"/><path fill="#e5b22d" d="M 185.613281 213.875 C 185.613281 213.875 165.558594 231.878906 171.75 259.917969 C 171.75 259.917969 199.476562 250.476562 185.613281 213.875 " fill-opacity="1" fill-rule="nonzero"/><path fill="#e5b22d" d="M 131.9375 230.742188 C 131.9375 230.742188 166.726562 229.21875 170.566406 258.445312 C 170.566406 258.445312 145.796875 267.671875 131.9375 230.742188 " fill-opacity="1" fill-rule="nonzero"/><path fill="#d5a315" d="M 110.960938 80.257812 C 113.554688 88.210938 114.1875 98.238281 109.789062 110.164062 C 109.789062 110.164062 102.335938 106.050781 97.183594 96.621094 C 101.691406 110.878906 112.664062 116.960938 112.664062 116.960938 C 118.425781 101.328125 115.574219 88.964844 110.960938 80.257812 " fill-opacity="1" fill-rule="nonzero"/><path fill="#d5a315" d="M 114.042969 124.832031 C 114.644531 127.035156 115.058594 129.4375 115.195312 132.113281 C 115.195312 132.113281 94.890625 139.039062 72.757812 110.917969 C 71.566406 111.046875 70.871094 111.15625 70.871094 111.15625 C 94.773438 146.875 118.074219 138.902344 118.074219 138.902344 C 117.78125 133.136719 116.292969 128.527344 114.042969 124.832031 " fill-opacity="1" fill-rule="nonzero"/><path fill="#d5a315" d="M 95.582031 92.769531 C 97.828125 99.210938 98.085938 103.714844 98.085938 103.714844 C 80.890625 100.890625 71.679688 91.8125 66.757812 82.417969 C 70.558594 93.855469 79.609375 107 100.964844 110.511719 C 100.964844 110.511719 100.511719 102.59375 95.582031 92.769531 " fill-opacity="1" fill-rule="nonzero"/><path fill="#d5a315" d="M 131.144531 109.964844 C 137.734375 129.914062 126.699219 144.507812 126.699219 144.507812 C 122.769531 141.449219 119.898438 138.042969 117.859375 134.460938 C 119.644531 140.46875 123.207031 146.351562 129.570312 151.300781 C 129.570312 151.300781 143.183594 133.300781 131.144531 109.964844 " fill-opacity="1" fill-rule="nonzero"/><path fill="#d5a315" d="M 147.25 134.597656 C 154.695312 156.535156 141.738281 169.894531 141.738281 169.894531 C 138.707031 167.25 136.441406 164.402344 134.738281 161.449219 C 136.292969 166.800781 139.316406 172.0625 144.617188 176.683594 C 144.617188 176.683594 160.253906 160.53125 147.25 134.597656 " fill-opacity="1" fill-rule="nonzero"/><path fill="#d5a315" d="M 145.097656 187.136719 C 145.433594 188.410156 145.714844 189.734375 145.871094 191.148438 C 145.871094 191.148438 118.855469 192.335938 104.417969 170.1875 C 103.917969 170.1875 103.621094 170.191406 103.621094 170.191406 C 116.460938 199.382812 148.75 197.941406 148.75 197.941406 C 148.277344 193.726562 146.960938 190.171875 145.097656 187.136719 " fill-opacity="1" fill-rule="nonzero"/><path fill="#d5a315" d="M 161.425781 155.136719 C 161.425781 155.136719 161 155.5625 160.316406 156.328125 C 165.9375 186.644531 154.128906 194.980469 154.128906 194.980469 C 152.238281 193.035156 150.730469 191.058594 149.546875 189.078125 C 150.648438 193.304688 152.953125 197.605469 157.003906 201.777344 C 157.003906 201.777344 170.867188 192.027344 161.425781 155.136719 " fill-opacity="1" fill-rule="nonzero"/><path fill="#d5a315" d="M 175.289062 182 C 175.289062 182 174.808594 182.398438 174.03125 183.144531 C 178.898438 213.222656 164.789062 221.832031 162.242188 223.121094 C 162.847656 225.386719 163.644531 227.714844 164.71875 230.113281 C 164.71875 230.113281 185.027344 221.84375 175.289062 182 " fill-opacity="1" fill-rule="nonzero"/><path fill="#d5a315" d="M 157.105469 218.3125 C 157.519531 219.871094 157.808594 221.535156 157.960938 223.316406 C 157.960938 223.316406 140.863281 229.679688 122.808594 201.824219 C 122.050781 201.777344 121.605469 201.777344 121.605469 201.777344 C 141.078125 237.484375 160.832031 230.113281 160.832031 230.113281 C 160.445312 225.445312 159.085938 221.566406 157.105469 218.3125 " fill-opacity="1" fill-rule="nonzero"/><path fill="#d5a315" d="M 185.613281 213.875 C 185.613281 213.875 185.40625 214.058594 185.054688 214.402344 C 191.492188 239.78125 176.082031 249.71875 170.667969 252.355469 C 170.824219 254.785156 171.179688 257.320312 171.75 259.917969 C 171.75 259.917969 199.476562 250.476562 185.613281 213.875 " fill-opacity="1" fill-rule="nonzero"/><path fill="#d5a315" d="M 166.683594 246.769531 C 167.117188 248.296875 167.460938 249.921875 167.6875 251.652344 C 167.6875 251.652344 146.125 259.671875 131.980469 230.734375 C 131.960938 230.734375 131.9375 230.742188 131.9375 230.742188 C 145.796875 267.671875 170.566406 258.445312 170.566406 258.445312 C 169.957031 253.832031 168.578125 249.984375 166.683594 246.769531 " fill-opacity="1" fill-rule="nonzero"/><path fill="#d5a315" d="M 122.394531 148.785156 C 126.273438 153.507812 129.253906 159.664062 130.460938 167.761719 C 130.460938 167.761719 112.871094 167.300781 98.992188 155.0625 C 113.207031 171.6875 134.886719 172.257812 134.886719 172.257812 C 133.253906 161.300781 128.371094 153.855469 122.394531 148.785156 " fill-opacity="1" fill-rule="nonzero"/><path fill="#bd9013" d="M 149.589844 0.273438 C 149.589844 0.273438 151.304688 1.519531 153.199219 3.871094 C 154.179688 5.027344 155.246094 6.4375 156.300781 8.003906 C 157.300781 9.585938 158.214844 11.363281 159.144531 13.132812 C 159.953125 14.964844 160.929688 16.710938 161.394531 18.5625 C 161.953125 20.363281 162.382812 22.082031 162.667969 23.578125 C 163.285156 26.550781 163.296875 28.625 163.296875 28.625 C 163.296875 28.625 161.828125 27.046875 160.226562 24.535156 C 159.40625 23.289062 158.539062 21.804688 157.714844 20.1875 C 156.921875 18.554688 155.90625 16.875 155.039062 15.136719 C 154.226562 13.375 153.394531 11.613281 152.757812 9.886719 C 152.015625 8.222656 151.402344 6.617188 150.941406 5.195312 C 150.019531 2.351562 149.589844 0.273438 149.589844 0.273438 " fill-opacity="1" fill-rule="nonzero"/><path fill="#bd9013" d="M 140.523438 40.042969 C 140.523438 40.042969 142.363281 41.679688 144.652344 44.371094 C 145.832031 45.703125 147.085938 47.324219 148.417969 49.058594 C 149.757812 50.789062 151.03125 52.730469 152.394531 54.601562 C 153.648438 56.542969 154.90625 58.476562 156.085938 60.292969 C 157.210938 62.167969 158.28125 63.839844 159.191406 65.316406 C 160.054688 66.875 160.859375 67.984375 161.480469 68.8125 C 162.082031 69.707031 162.429688 70.21875 162.429688 70.21875 C 162.429688 70.21875 161.890625 70.007812 160.925781 69.535156 C 159.945312 69.078125 158.515625 68.289062 157.230469 67.054688 C 154.363281 64.742188 151.277344 61.074219 148.617188 57.164062 C 145.953125 53.246094 143.792969 49.039062 142.429688 45.742188 C 141.042969 42.449219 140.523438 40.042969 140.523438 40.042969 " fill-opacity="1" fill-rule="nonzero"/><path fill="#bd9013" d="M 185.28125 4.285156 C 185.28125 4.285156 186.632812 5.816406 187.917969 8.445312 C 188.609375 9.734375 189.242188 11.3125 189.8125 13.03125 C 190.464844 14.734375 190.769531 16.65625 191.195312 18.546875 C 191.476562 20.472656 191.601562 22.445312 191.636719 24.269531 C 191.546875 26.128906 191.308594 27.863281 191.042969 29.304688 C 190.179688 32.253906 189.15625 33.9375 189.15625 33.9375 C 189.15625 33.9375 188.671875 31.875 188.425781 29.203125 C 188.097656 27.816406 187.839844 26.242188 187.628906 24.570312 C 187.214844 22.886719 187.042969 21.089844 186.691406 19.289062 C 186.378906 17.476562 186.160156 15.65625 185.902344 13.933594 C 185.671875 12.214844 185.519531 10.574219 185.40625 9.152344 C 185.191406 6.320312 185.285156 4.285156 185.28125 4.285156 " fill-opacity="1" fill-rule="nonzero"/><path fill="#bd9013" d="M 204.359375 40.214844 C 204.359375 40.214844 205.515625 42.117188 206.359375 45.21875 C 207.300781 48.289062 207.875 52.539062 207.832031 56.816406 C 207.621094 58.949219 207.585938 61.097656 207.101562 63.070312 C 206.898438 64.0625 206.617188 65.007812 206.367188 65.894531 C 206.101562 66.785156 205.914062 67.625 205.53125 68.367188 C 204.144531 71.355469 202.871094 73.085938 202.871094 73.085938 C 202.871094 73.085938 202.699219 70.816406 202.96875 67.804688 C 203.0625 67.054688 202.945312 66.1875 203.007812 65.328125 C 203.023438 64.453125 203.023438 63.535156 203.109375 62.601562 C 203.230469 61.671875 203.09375 60.675781 203.167969 59.691406 C 203.199219 58.707031 203.238281 57.703125 203.269531 56.699219 C 203.332031 55.691406 203.3125 54.679688 203.339844 53.6875 C 203.324219 52.691406 203.492188 51.707031 203.472656 50.753906 C 203.5 48.847656 203.675781 47.046875 203.765625 45.492188 C 204.007812 42.390625 204.363281 40.214844 204.359375 40.214844 " fill-opacity="1" fill-rule="nonzero"/><path fill="#bd9013" d="M 157.367188 78.9375 C 157.363281 78.9375 159.035156 79.882812 161.113281 81.601562 C 163.226562 83.292969 165.667969 85.808594 167.984375 88.414062 C 169.085938 89.769531 170.199219 91.109375 171.121094 92.484375 C 172.097656 93.789062 173 95.003906 173.695312 96.148438 C 175.128906 98.386719 175.851562 100.226562 175.851562 100.226562 C 175.851562 100.226562 174.105469 99.546875 171.839844 98.003906 C 170.703125 97.246094 169.382812 96.308594 168.128906 95.171875 C 166.898438 94.03125 165.714844 92.703125 164.515625 91.378906 C 162.171875 88.6875 160.277344 85.636719 159.058594 83.214844 C 157.820312 80.808594 157.367188 78.9375 157.367188 78.9375 " fill-opacity="1" fill-rule="nonzero"/><path fill="#bd9013" d="M 218.109375 76.578125 C 218.109375 76.578125 218.96875 78.359375 219.324219 81.171875 C 219.453125 81.878906 219.488281 82.632812 219.515625 83.4375 C 219.527344 84.238281 219.632812 85.105469 219.527344 85.972656 C 219.398438 87.71875 219.226562 89.589844 218.773438 91.410156 C 218.527344 92.3125 218.28125 93.214844 218.039062 94.101562 C 217.835938 94.996094 217.355469 95.804688 217.046875 96.621094 C 216.324219 98.226562 215.664062 99.71875 214.773438 100.847656 C 213.152344 103.183594 211.742188 104.484375 211.742188 104.484375 C 211.742188 104.484375 211.785156 102.480469 212.34375 99.859375 C 212.667969 98.558594 212.832031 96.984375 213.21875 95.390625 C 213.570312 93.792969 213.945312 92.089844 214.324219 90.390625 C 214.84375 88.71875 215.0625 86.988281 215.554688 85.40625 C 215.941406 83.808594 216.332031 82.304688 216.722656 81.003906 C 217.4375 78.410156 218.113281 76.578125 218.109375 76.578125 " fill-opacity="1" fill-rule="nonzero"/><path fill="#bd9013" d="M 232.296875 104.582031 C 232.296875 104.582031 232.960938 106.488281 233.160156 109.351562 C 233.449219 112.222656 233.21875 116.027344 232.5 119.765625 C 231.996094 121.613281 231.574219 123.46875 230.898438 125.140625 C 230.199219 126.808594 229.5 128.34375 228.75 129.585938 C 227.125 132.054688 225.71875 133.414062 225.71875 133.414062 C 225.71875 133.414062 225.75 131.351562 226.289062 128.679688 C 226.460938 127.292969 226.664062 125.699219 227.027344 124.054688 C 227.234375 123.238281 227.257812 122.328125 227.480469 121.46875 C 227.660156 120.597656 227.851562 119.714844 228.03125 118.828125 C 228.746094 115.273438 229.710938 111.742188 230.570312 109.0625 C 231.433594 106.394531 232.296875 104.582031 232.296875 104.582031 " fill-opacity="1" fill-rule="nonzero"/><path fill="#bd9013" d="M 164.78125 111.285156 C 164.78125 111.285156 166.261719 112.671875 168.082031 114.84375 C 168.988281 115.933594 170.03125 117.199219 171.0625 118.59375 C 172.082031 119.996094 173.207031 121.4375 174.242188 122.949219 C 175.265625 124.453125 176.386719 125.867188 177.269531 127.351562 C 178.308594 128.667969 179.207031 129.992188 179.945312 131.203125 C 181.660156 133.273438 182.722656 135.09375 182.722656 135.09375 C 182.722656 135.09375 180.832031 134.589844 178.152344 133.113281 C 176.953125 132.277344 175.59375 131.195312 174.207031 129.957031 C 172.949219 128.632812 171.679688 127.136719 170.515625 125.582031 C 169.503906 123.933594 168.367188 122.355469 167.644531 120.6875 C 166.847656 119.0625 166.199219 117.496094 165.792969 116.089844 C 164.875 113.320312 164.78125 111.285156 164.78125 111.285156 " fill-opacity="1" fill-rule="nonzero"/><path fill="#bd9013" d="M 173.960938 147.632812 C 173.960938 147.632812 175.589844 148.585938 177.535156 150.367188 C 179.523438 152.105469 181.785156 154.761719 183.921875 157.371094 C 186 160.046875 187.789062 162.960938 188.921875 165.351562 C 190.082031 167.722656 190.566406 169.589844 190.566406 169.589844 C 190.566406 169.589844 188.933594 168.746094 186.917969 167.046875 C 184.875 165.367188 182.429688 162.851562 180.269531 160.101562 C 179.234375 158.699219 178.167969 157.308594 177.414062 155.878906 C 176.605469 154.472656 175.925781 153.105469 175.410156 151.886719 C 174.34375 149.472656 173.960938 147.632812 173.960938 147.632812 " fill-opacity="1" fill-rule="nonzero"/><path fill="#bd9013" d="M 235.242188 135.582031 C 235.242188 135.582031 235.660156 135.863281 236.242188 136.546875 C 236.886719 137.21875 237.542969 138.285156 238.257812 139.65625 C 238.832031 141.042969 239.550781 142.742188 239.777344 144.617188 C 239.894531 145.554688 240.167969 146.539062 240.160156 147.527344 C 240.144531 148.519531 240.128906 149.527344 240.105469 150.535156 C 240.070312 152.566406 239.5625 154.503906 239.074219 156.304688 C 238.664062 158.132812 237.972656 159.730469 237.21875 161.03125 C 235.839844 163.683594 234.5625 165.230469 234.5625 165.230469 C 234.5625 165.230469 234.398438 163.132812 234.695312 160.316406 C 234.761719 159.609375 234.835938 158.847656 234.976562 158.0625 C 235.042969 157.265625 235.019531 156.417969 235.121094 155.5625 C 235.199219 153.84375 235.625 152.058594 235.550781 150.253906 C 235.71875 148.457031 235.820312 146.671875 235.785156 144.992188 C 235.753906 144.160156 235.898438 143.316406 235.800781 142.554688 C 235.738281 141.789062 235.738281 141.042969 235.734375 140.335938 C 235.59375 138.992188 235.574219 137.75 235.429688 136.953125 C 235.351562 136.101562 235.242188 135.582031 235.242188 135.582031 " fill-opacity="1" fill-rule="nonzero"/><path fill="#bd9013" d="M 243.710938 169.910156 C 243.710938 169.910156 244.128906 171.996094 244.03125 175.019531 C 244.007812 176.535156 243.882812 178.300781 243.644531 180.171875 C 243.480469 182.054688 242.953125 183.996094 242.511719 185.949219 C 241.960938 187.878906 241.429688 189.8125 240.773438 191.582031 C 240.484375 192.472656 239.988281 193.300781 239.605469 194.089844 C 239.21875 194.878906 238.804688 195.605469 238.414062 196.265625 C 236.890625 198.9375 235.527344 200.484375 235.53125 200.484375 C 235.53125 200.484375 235.492188 198.292969 235.953125 195.359375 C 236.148438 193.875 236.535156 192.234375 236.914062 190.457031 C 237.183594 188.625 237.644531 186.726562 238.085938 184.820312 C 239.15625 181.058594 240.273438 177.292969 241.472656 174.519531 C 242.621094 171.734375 243.710938 169.910156 243.710938 169.910156 " fill-opacity="1" fill-rule="nonzero"/><path fill="#bd9013" d="M 178.847656 179.625 C 178.847656 179.625 180.425781 180.753906 182.292969 182.722656 C 184.195312 184.679688 186.40625 187.472656 188.367188 190.402344 C 189.304688 191.902344 190.246094 193.394531 191.042969 194.839844 C 191.847656 196.292969 192.535156 197.683594 193.113281 198.871094 C 193.6875 200.105469 194.105469 201.125 194.472656 201.804688 C 194.820312 202.570312 195.023438 203.011719 195.023438 203.011719 C 195.144531 203.003906 193.066406 202.398438 191.046875 200.488281 C 188.878906 198.6875 186.558594 195.910156 184.558594 192.917969 C 182.589844 189.914062 181.007812 186.679688 180.078125 184.105469 C 179.117188 181.539062 178.847656 179.625 178.847656 179.625 " fill-opacity="1" fill-rule="nonzero"/><path fill="#d5a315" d="M 177.921875 50.027344 C 177.921875 50.027344 178.402344 50.859375 179.320312 52.402344 C 180.207031 53.964844 181.550781 56.242188 183.074219 59.226562 C 186.1875 65.171875 190.375 73.820312 194.675781 84.511719 C 196.851562 89.84375 199.097656 95.683594 201.199219 101.941406 C 203.351562 108.179688 205.496094 114.824219 207.402344 121.777344 C 209.300781 128.742188 211.25 135.953125 212.78125 143.378906 C 214.34375 150.800781 215.761719 158.386719 216.929688 166.011719 C 218.042969 173.636719 218.847656 181.328125 219.519531 188.890625 C 219.839844 192.671875 220.023438 196.445312 220.207031 200.160156 C 220.296875 203.886719 220.382812 207.554688 220.464844 211.179688 C 220.421875 214.792969 220.453125 218.355469 220.347656 221.832031 C 220.167969 225.3125 219.988281 228.71875 219.808594 232.03125 C 219.5625 235.335938 219.277344 238.542969 218.976562 241.648438 C 218.703125 244.753906 218.183594 247.722656 217.828125 250.589844 C 217.167969 256.324219 215.96875 261.515625 215.148438 266.113281 C 214.101562 270.6875 213.160156 274.660156 212.292969 277.902344 C 210.421875 284.351562 209.257812 287.992188 209.257812 287.992188 C 209.257812 287.992188 209.621094 284.15625 210.453125 277.550781 C 210.757812 274.234375 211.132812 270.214844 211.570312 265.59375 C 211.707031 263.285156 211.859375 260.828125 212.011719 258.234375 C 212.097656 256.945312 212.1875 255.621094 212.28125 254.265625 C 212.332031 252.90625 212.378906 251.523438 212.429688 250.097656 C 212.699219 244.433594 212.691406 238.28125 212.769531 231.804688 C 212.703125 228.5625 212.636719 225.230469 212.570312 221.832031 C 212.375 218.425781 212.300781 214.960938 212.160156 211.429688 C 211.921875 207.898438 211.683594 204.320312 211.441406 200.691406 C 211.054688 197.0625 210.773438 193.402344 210.441406 189.710938 C 209.679688 182.328125 208.773438 174.847656 207.59375 167.402344 C 206.5625 159.933594 205.28125 152.492188 203.855469 145.199219 C 203.125 141.5625 202.40625 137.941406 201.695312 134.367188 C 200.921875 130.8125 200.179688 127.285156 199.375 123.832031 C 197.71875 116.949219 196.164062 110.269531 194.484375 103.976562 C 192.792969 97.699219 191.175781 91.746094 189.582031 86.289062 C 186.378906 75.355469 183.484375 66.289062 181.355469 59.964844 C 180.285156 56.792969 179.4375 54.316406 178.855469 52.617188 C 178.246094 50.925781 177.921875 50.027344 177.921875 50.027344 " fill-opacity="1" fill-rule="nonzero"/><path fill="#e5b22d" d="M 191.414062 72.6875 C 191.414062 72.6875 168.964844 52.625 189.066406 19.277344 C 189.066406 19.277344 210.652344 43.175781 191.414062 72.6875 " fill-opacity="1" fill-rule="nonzero"/><path fill="#e5b22d" d="M 151.96875 57.730469 C 151.96875 57.730469 197.890625 60.652344 191.804688 95.277344 C 191.804688 95.277344 167.308594 97.863281 151.96875 57.730469 " fill-opacity="1" fill-rule="nonzero"/><path fill="#e5b22d" d="M 155.851562 10.171875 C 155.851562 10.171875 144.074219 48.542969 181.441406 63.796875 C 181.441406 63.796875 186.65625 32.953125 155.851562 10.171875 " fill-opacity="1" fill-rule="nonzero"/><path fill="#e5b22d" d="M 205.527344 56.335938 C 205.527344 56.335938 180.148438 85.359375 200.261719 109.933594 C 200.261719 109.933594 223.8125 90.179688 205.527344 56.335938 " fill-opacity="1" fill-rule="nonzero"/><path fill="#e5b22d" d="M 164.394531 88.117188 C 164.394531 88.117188 203.546875 95.550781 200.777344 131.546875 C 200.777344 131.546875 167.042969 122.933594 164.394531 88.117188 " fill-opacity="1" fill-rule="nonzero"/><path fill="#e5b22d" d="M 217.417969 86.453125 C 217.417969 86.453125 191.316406 113.339844 209.28125 138.023438 C 209.28125 138.023438 233.078125 122.578125 217.417969 86.453125 " fill-opacity="1" fill-rule="nonzero"/><path fill="#e5b22d" d="M 170.753906 122.570312 C 170.753906 122.570312 211.855469 130.746094 208.582031 159.664062 C 208.582031 159.664062 176.789062 153.890625 170.753906 122.570312 " fill-opacity="1" fill-rule="nonzero"/><path fill="#e5b22d" d="M 230.464844 120.761719 C 230.464844 120.761719 200.160156 139.578125 215.78125 165.246094 C 215.78125 165.246094 231.46875 158.828125 230.464844 120.761719 " fill-opacity="1" fill-rule="nonzero"/><path fill="#e5b22d" d="M 238.007812 150.039062 C 238.007812 150.039062 210.828125 163.511719 217.003906 194.589844 C 217.003906 194.589844 238.640625 191.058594 238.007812 150.039062 " fill-opacity="1" fill-rule="nonzero"/><path fill="#e5b22d" d="M 181.273438 157.363281 C 181.273438 157.363281 217.144531 165.863281 213.214844 193.726562 C 213.214844 193.726562 192.308594 196.515625 181.273438 157.363281 " fill-opacity="1" fill-rule="nonzero"/><path fill="#e5b22d" d="M 240.984375 183.414062 C 240.984375 183.414062 217.429688 196.496094 217.230469 225.21875 C 217.230469 225.21875 246.363281 222.183594 240.984375 183.414062 " fill-opacity="1" fill-rule="nonzero"/><path fill="#e5b22d" d="M 184.898438 187.90625 C 184.898438 187.90625 219.15625 194.171875 216.402344 223.519531 C 216.402344 223.519531 190.199219 227 184.898438 187.90625 " fill-opacity="1" fill-rule="nonzero"/><path fill="#d5a315" d="M 197.914062 36.519531 C 198.671875 44.855469 197.058594 54.765625 190.113281 65.425781 C 190.113281 65.425781 183.769531 59.746094 180.84375 49.414062 C 182.066406 64.316406 191.414062 72.6875 191.414062 72.6875 C 200.503906 58.734375 200.46875 46.035156 197.914062 36.519531 " fill-opacity="1" fill-rule="nonzero"/><path fill="#d5a315" d="M 191.007812 80.671875 C 191.101562 82.953125 190.972656 85.386719 190.507812 88.027344 C 190.507812 88.027344 169.171875 90.261719 153.847656 57.914062 C 152.65625 57.773438 151.96875 57.730469 151.96875 57.730469 C 167.308594 97.863281 191.804688 95.277344 191.804688 95.277344 C 192.800781 89.589844 192.375 84.773438 191.007812 80.671875 " fill-opacity="1" fill-rule="nonzero"/><path fill="#d5a315" d="M 180.136719 45.296875 C 180.898438 52.070312 180.140625 56.542969 180.140625 56.542969 C 164.007812 49.941406 157.046875 39.042969 154.335938 28.792969 C 155.503906 40.777344 161.394531 55.617188 181.441406 63.796875 C 181.441406 63.796875 182.757812 55.976562 180.136719 45.296875 " fill-opacity="1" fill-rule="nonzero"/><path fill="#d5a315" d="M 210.976562 69.988281 C 212.976562 90.902344 198.96875 102.667969 198.96875 102.667969 C 195.8125 98.808594 193.777344 94.851562 192.585938 90.902344 C 192.992188 97.175781 195.15625 103.683594 200.261719 109.933594 C 200.261719 109.933594 217.527344 95.425781 210.976562 69.988281 " fill-opacity="1" fill-rule="nonzero"/><path fill="#d5a315" d="M 221.203125 97.578125 C 223.589844 120.625 207.988281 130.765625 207.988281 130.765625 C 205.625 127.519531 204.039062 124.230469 203.039062 120.980469 C 203.363281 126.542969 205.140625 132.34375 209.28125 138.023438 C 209.28125 138.023438 228.121094 125.761719 221.203125 97.578125 " fill-opacity="1" fill-rule="nonzero"/><path fill="#d5a315" d="M 207.429688 148.320312 C 207.472656 149.632812 207.445312 150.992188 207.292969 152.402344 C 207.292969 152.402344 180.6875 147.550781 171.535156 122.738281 C 171.046875 122.628906 170.753906 122.570312 170.753906 122.570312 C 176.789062 153.890625 208.582031 159.664062 208.582031 159.664062 C 209.058594 155.457031 208.570312 151.695312 207.429688 148.320312 " fill-opacity="1" fill-rule="nonzero"/><path fill="#d5a315" d="M 230.464844 120.761719 C 230.464844 120.761719 229.953125 121.082031 229.109375 121.683594 C 227.855469 152.492188 214.492188 157.988281 214.492188 157.988281 C 213.078125 155.667969 212.050781 153.410156 211.332031 151.207031 C 211.46875 155.574219 212.753906 160.277344 215.78125 165.246094 C 215.78125 165.246094 231.46875 158.828125 230.464844 120.761719 " fill-opacity="1" fill-rule="nonzero"/><path fill="#d5a315" d="M 238.007812 150.039062 C 238.007812 150.039062 237.445312 150.316406 236.519531 150.878906 C 234.582031 181.289062 218.914062 186.539062 216.140625 187.234375 C 216.222656 189.570312 216.492188 192.011719 217.003906 194.589844 C 217.003906 194.589844 238.640625 191.058594 238.007812 150.039062 " fill-opacity="1" fill-rule="nonzero"/><path fill="#d5a315" d="M 212.207031 181.398438 C 212.253906 183.003906 212.171875 184.699219 211.921875 186.457031 C 211.921875 186.457031 193.832031 188.863281 182.429688 157.679688 C 181.703125 157.46875 181.273438 157.363281 181.273438 157.363281 C 192.308594 196.515625 213.214844 193.726562 213.214844 193.726562 C 213.867188 189.085938 213.40625 185.003906 212.207031 181.398438 " fill-opacity="1" fill-rule="nonzero"/><path fill="#d5a315" d="M 240.984375 183.414062 C 240.984375 183.414062 240.746094 183.546875 240.316406 183.816406 C 240.953125 209.976562 223.722656 216.238281 217.855469 217.601562 C 217.46875 220.015625 217.246094 222.546875 217.230469 225.21875 C 217.230469 225.21875 246.363281 222.183594 240.984375 183.414062 " fill-opacity="1" fill-rule="nonzero"/><path fill="#d5a315" d="M 215.210938 211.277344 C 215.292969 212.855469 215.269531 214.507812 215.109375 216.257812 C 215.109375 216.257812 192.300781 219.273438 184.941406 187.917969 C 184.925781 187.917969 184.898438 187.90625 184.898438 187.90625 C 190.199219 227 216.402344 223.519531 216.402344 223.519531 C 216.839844 218.878906 216.347656 214.824219 215.210938 211.277344 " fill-opacity="1" fill-rule="nonzero"/><path fill="#d5a315" d="M 193.824219 105.878906 C 196.550781 111.347656 198.085938 118.023438 197.464844 126.175781 C 197.464844 126.175781 180.421875 121.808594 169.613281 106.777344 C 179.773438 126.167969 200.777344 131.546875 200.777344 131.546875 C 201.628906 120.503906 198.523438 112.15625 193.824219 105.878906 " fill-opacity="1" fill-rule="nonzero"/><path fill="#bd9013" d="M 289.691406 98.597656 C 289.691406 98.597656 290.492188 100.558594 290.867188 103.554688 C 291.09375 105.054688 291.261719 106.8125 291.339844 108.699219 C 291.355469 110.574219 291.203125 112.566406 291.0625 114.558594 C 290.785156 116.542969 290.703125 118.539062 290.125 120.359375 C 289.652344 122.1875 289.113281 123.875 288.574219 125.292969 C 287.535156 128.144531 286.453125 129.914062 286.453125 129.914062 C 286.453125 129.914062 286.035156 127.800781 285.992188 124.824219 C 285.949219 123.328125 285.992188 121.613281 286.140625 119.804688 C 286.328125 118 286.34375 116.039062 286.519531 114.105469 C 286.75 112.171875 286.96875 110.242188 287.335938 108.4375 C 287.578125 106.628906 287.894531 104.945312 288.257812 103.492188 C 288.96875 100.585938 289.691406 98.597656 289.691406 98.597656 " fill-opacity="1" fill-rule="nonzero"/><path fill="#bd9013" d="M 261.078125 127.648438 C 261.078125 127.648438 261.78125 130.015625 262.316406 133.507812 C 262.621094 135.257812 262.835938 137.296875 263.058594 139.472656 C 263.289062 141.648438 263.355469 143.972656 263.527344 146.277344 C 263.578125 148.589844 263.632812 150.902344 263.675781 153.066406 C 263.644531 155.253906 263.679688 157.238281 263.679688 158.972656 C 263.59375 160.761719 263.695312 162.117188 263.785156 163.148438 C 263.828125 164.230469 263.851562 164.847656 263.851562 164.847656 C 263.851562 164.847656 263.503906 164.386719 262.933594 163.476562 C 262.339844 162.570312 261.542969 161.148438 261.097656 159.421875 C 259.871094 155.941406 259.175781 151.199219 258.96875 146.476562 C 258.761719 141.742188 259.132812 137.023438 259.707031 133.496094 C 260.257812 129.96875 261.078125 127.648438 261.078125 127.648438 " fill-opacity="1" fill-rule="nonzero"/><path fill="#bd9013" d="M 317.941406 120.796875 C 317.941406 120.796875 318.285156 122.8125 317.996094 125.722656 C 317.902344 127.183594 317.617188 128.855469 317.195312 130.617188 C 316.855469 132.40625 316.105469 134.203125 315.472656 136.039062 C 314.699219 137.820312 313.769531 139.5625 312.84375 141.136719 C 311.789062 142.664062 310.671875 144.015625 309.6875 145.105469 C 307.410156 147.160156 305.652344 148.046875 305.652344 148.046875 C 305.652344 148.046875 306.320312 146.039062 307.519531 143.636719 C 307.96875 142.285156 308.578125 140.816406 309.277344 139.277344 C 309.804688 137.628906 310.609375 136.011719 311.253906 134.296875 C 311.9375 132.59375 312.714844 130.929688 313.398438 129.328125 C 314.101562 127.738281 314.839844 126.269531 315.484375 125 C 316.792969 122.476562 317.941406 120.796875 317.941406 120.796875 " fill-opacity="1" fill-rule="nonzero"/><path fill="#bd9013" d="M 315.285156 161.398438 C 315.285156 161.398438 315.261719 163.625 314.351562 166.707031 C 313.539062 169.816406 311.792969 173.730469 309.507812 177.34375 C 308.203125 179.054688 307.046875 180.859375 305.597656 182.28125 C 304.898438 183.015625 304.167969 183.675781 303.488281 184.296875 C 302.796875 184.917969 302.195312 185.53125 301.476562 185.957031 C 298.730469 187.777344 296.730469 188.578125 296.730469 188.578125 C 296.730469 188.578125 297.78125 186.554688 299.59375 184.132812 C 300.066406 183.542969 300.421875 182.75 300.925781 182.042969 C 301.398438 181.308594 301.882812 180.53125 302.449219 179.785156 C 303.039062 179.058594 303.445312 178.140625 304.027344 177.335938 C 304.574219 176.515625 305.132812 175.675781 305.691406 174.84375 C 306.269531 174.019531 306.785156 173.152344 307.332031 172.316406 C 307.839844 171.464844 308.503906 170.714844 308.984375 169.894531 C 310.011719 168.289062 311.109375 166.851562 312.003906 165.574219 C 313.839844 163.0625 315.285156 161.398438 315.285156 161.398438 " fill-opacity="1" fill-rule="nonzero"/><path fill="#bd9013" d="M 254.964844 169.601562 C 254.960938 169.601562 255.886719 171.285156 256.75 173.839844 C 257.660156 176.386719 258.414062 179.8125 259.015625 183.25 C 259.242188 184.980469 259.480469 186.710938 259.542969 188.363281 C 259.691406 189.988281 259.820312 191.492188 259.804688 192.835938 C 259.84375 195.5 259.496094 197.441406 259.496094 197.441406 C 259.496094 197.441406 258.371094 195.941406 257.253906 193.4375 C 256.683594 192.191406 256.054688 190.703125 255.585938 189.074219 C 255.136719 187.457031 254.828125 185.699219 254.507812 183.945312 C 253.921875 180.425781 253.917969 176.828125 254.15625 174.121094 C 254.367188 171.429688 254.964844 169.601562 254.964844 169.601562 " fill-opacity="1" fill-rule="nonzero"/><path fill="#bd9013" d="M 307.867188 199.558594 C 307.867188 199.558594 307.660156 201.527344 306.488281 204.105469 C 306.222656 204.777344 305.855469 205.433594 305.457031 206.136719 C 305.042969 206.824219 304.679688 207.613281 304.132812 208.296875 C 303.109375 209.714844 301.972656 211.214844 300.632812 212.523438 L 298.59375 214.429688 C 297.953125 215.082031 297.125 215.515625 296.425781 216.046875 C 294.96875 217.03125 293.628906 217.953125 292.273438 218.449219 C 289.667969 219.582031 287.785156 219.945312 287.785156 219.945312 C 287.785156 219.945312 288.875 218.265625 290.730469 216.328125 C 291.683594 215.390625 292.652344 214.140625 293.820312 212.984375 C 294.957031 211.8125 296.175781 210.5625 297.386719 209.316406 C 298.707031 208.167969 299.804688 206.808594 301.050781 205.722656 C 302.21875 204.566406 303.34375 203.496094 304.359375 202.59375 C 306.332031 200.765625 307.871094 199.558594 307.867188 199.558594 " fill-opacity="1" fill-rule="nonzero"/><path fill="#bd9013" d="M 305.214844 230.84375 C 305.214844 230.84375 304.78125 232.8125 303.445312 235.359375 C 302.179688 237.949219 299.984375 241.066406 297.410156 243.867188 C 296.015625 245.167969 294.675781 246.53125 293.222656 247.59375 C 291.75 248.644531 290.351562 249.578125 289.0625 250.242188 C 286.382812 251.484375 284.472656 251.902344 284.472656 251.902344 C 284.472656 251.902344 285.582031 250.164062 287.441406 248.175781 C 288.316406 247.09375 289.332031 245.84375 290.503906 244.628906 C 291.109375 244.042969 291.605469 243.292969 292.242188 242.671875 L 294.105469 240.722656 C 296.578125 238.070312 299.253906 235.570312 301.394531 233.746094 C 303.53125 231.933594 305.214844 230.84375 305.214844 230.84375 " fill-opacity="1" fill-rule="nonzero"/><path fill="#bd9013" d="M 244.269531 201.015625 C 244.269531 201.015625 244.800781 202.972656 245.210938 205.777344 C 245.40625 207.1875 245.625 208.804688 245.769531 210.535156 C 245.898438 212.269531 246.097656 214.085938 246.183594 215.914062 C 246.261719 217.734375 246.472656 219.527344 246.449219 221.253906 C 246.632812 222.925781 246.707031 224.515625 246.695312 225.933594 C 247.0625 228.597656 247.011719 230.710938 247.011719 230.710938 C 247.011719 230.710938 245.667969 229.285156 244.164062 226.621094 C 243.585938 225.273438 243 223.640625 242.472656 221.851562 C 242.089844 220.066406 241.808594 218.125 241.628906 216.195312 C 241.632812 214.257812 241.5 212.316406 241.761719 210.519531 C 241.941406 208.714844 242.210938 207.042969 242.605469 205.632812 C 243.28125 202.796875 244.269531 201.015625 244.269531 201.015625 " fill-opacity="1" fill-rule="nonzero"/><path fill="#bd9013" d="M 232.980469 236.757812 C 232.980469 236.757812 233.859375 238.421875 234.582031 240.960938 C 235.355469 243.488281 235.882812 246.941406 236.332031 250.285156 C 236.6875 253.652344 236.679688 257.066406 236.386719 259.699219 C 236.125 262.324219 235.558594 264.171875 235.558594 264.171875 C 235.558594 264.171875 234.613281 262.59375 233.789062 260.085938 C 232.933594 257.582031 232.179688 254.15625 231.785156 250.683594 C 231.644531 248.945312 231.46875 247.199219 231.578125 245.585938 C 231.632812 243.964844 231.769531 242.445312 231.972656 241.140625 C 232.335938 238.523438 232.984375 236.757812 232.980469 236.757812 " fill-opacity="1" fill-rule="nonzero"/><path fill="#bd9013" d="M 291.425781 258.769531 C 291.425781 258.769531 291.632812 259.230469 291.769531 260.113281 C 291.964844 261.027344 291.964844 262.277344 291.847656 263.820312 C 291.613281 265.304688 291.332031 267.125 290.535156 268.84375 C 290.140625 269.699219 289.859375 270.679688 289.335938 271.519531 C 288.796875 272.351562 288.253906 273.195312 287.707031 274.042969 C 286.609375 275.75 285.15625 277.128906 283.796875 278.410156 C 282.488281 279.75 281.058594 280.738281 279.734375 281.449219 C 277.171875 282.980469 275.269531 283.621094 275.269531 283.621094 C 275.269531 283.621094 276.230469 281.75 277.960938 279.511719 C 278.390625 278.941406 278.851562 278.339844 279.382812 277.746094 C 279.863281 277.101562 280.292969 276.363281 280.824219 275.695312 C 281.792969 274.273438 283.09375 272.976562 283.976562 271.40625 C 285.066406 269.972656 286.089844 268.5 286.945312 267.058594 C 287.355469 266.335938 287.921875 265.691406 288.238281 264.988281 C 288.585938 264.308594 288.980469 263.671875 289.347656 263.070312 C 289.929688 261.851562 290.570312 260.792969 290.871094 260.03125 C 291.246094 259.265625 291.425781 258.769531 291.425781 258.769531 " fill-opacity="1" fill-rule="nonzero"/><path fill="#bd9013" d="M 280.585938 292.425781 C 280.585938 292.425781 279.84375 294.417969 278.171875 296.9375 C 277.351562 298.214844 276.320312 299.644531 275.140625 301.113281 C 274.003906 302.625 272.542969 304 271.136719 305.433594 C 269.65625 306.785156 268.183594 308.148438 266.695312 309.300781 C 265.980469 309.914062 265.125 310.351562 264.386719 310.820312 C 263.644531 311.292969 262.90625 311.6875 262.230469 312.050781 C 259.527344 313.515625 257.5625 314.117188 257.5625 314.117188 C 257.5625 314.117188 258.679688 312.234375 260.613281 309.984375 C 261.558594 308.824219 262.742188 307.628906 264.003906 306.316406 C 265.199219 304.902344 266.589844 303.527344 267.96875 302.140625 C 270.855469 299.503906 273.78125 296.890625 276.261719 295.164062 C 278.703125 293.402344 280.589844 292.425781 280.585938 292.425781 " fill-opacity="1" fill-rule="nonzero"/><path fill="#bd9013" d="M 220.316406 266.539062 C 220.316406 266.539062 221.066406 268.328125 221.617188 270.988281 C 222.210938 273.648438 222.621094 277.1875 222.75 280.714844 C 222.757812 282.480469 222.777344 284.25 222.691406 285.894531 C 222.621094 287.558594 222.46875 289.101562 222.335938 290.414062 C 222.175781 291.765625 221.996094 292.851562 221.953125 293.625 C 221.847656 294.460938 221.789062 294.9375 221.789062 294.9375 C 221.890625 295 220.445312 293.390625 219.730469 290.703125 C 218.832031 288.03125 218.316406 284.441406 218.1875 280.855469 C 218.09375 277.257812 218.445312 273.679688 219.007812 270.996094 C 219.539062 268.3125 220.320312 266.539062 220.316406 266.539062 " fill-opacity="1" fill-rule="nonzero"/><path fill="#d5a315" d="M 287.640625 155.828125 C 287.640625 155.828125 287.617188 156.792969 287.578125 158.589844 C 287.515625 160.375 287.460938 163.027344 287.183594 166.367188 C 286.710938 173.058594 285.726562 182.621094 283.761719 193.972656 C 282.816406 199.660156 281.660156 205.792969 280.152344 212.238281 C 278.699219 218.671875 277.039062 225.449219 275 232.375 C 272.960938 239.289062 270.828125 246.453125 268.21875 253.582031 C 265.648438 260.710938 262.871094 267.90625 259.859375 275.003906 C 256.796875 282.089844 253.445312 289.039062 250.039062 295.824219 C 248.316406 299.21875 246.503906 302.515625 244.703125 305.777344 C 242.820312 308.984375 240.960938 312.160156 239.128906 315.28125 C 237.191406 318.335938 235.34375 321.378906 233.433594 324.285156 C 231.441406 327.144531 229.503906 329.945312 227.609375 332.667969 C 225.664062 335.347656 223.734375 337.929688 221.847656 340.410156 C 219.988281 342.902344 217.984375 345.171875 216.171875 347.414062 C 212.597656 351.953125 208.851562 355.722656 205.730469 359.203125 C 202.445312 362.546875 199.558594 365.417969 197.117188 367.730469 C 192.128906 372.234375 189.222656 374.710938 189.222656 374.710938 C 189.222656 374.710938 191.550781 371.644531 195.726562 366.460938 C 197.730469 363.808594 200.167969 360.578125 202.964844 356.882812 C 204.292969 354.996094 205.714844 352.980469 207.207031 350.867188 C 207.960938 349.8125 208.730469 348.730469 209.523438 347.628906 C 210.28125 346.496094 211.054688 345.335938 211.839844 344.15625 C 215.042969 339.472656 218.273438 334.25 221.746094 328.769531 C 223.390625 325.984375 225.089844 323.113281 226.816406 320.183594 C 228.441406 317.191406 230.199219 314.195312 231.929688 311.121094 C 233.578125 308 235.261719 304.820312 236.964844 301.609375 C 238.546875 298.328125 240.230469 295.058594 241.886719 291.742188 C 245.117188 285.0625 248.28125 278.226562 251.195312 271.269531 C 254.242188 264.378906 257.0625 257.382812 259.679688 250.421875 C 260.976562 246.941406 262.261719 243.496094 263.53125 240.078125 C 264.746094 236.640625 265.972656 233.257812 267.089844 229.890625 C 269.304688 223.164062 271.496094 216.660156 273.371094 210.429688 C 275.238281 204.195312 276.992188 198.292969 278.5 192.800781 C 281.515625 181.820312 283.824219 172.585938 285.339844 166.089844 C 286.089844 162.824219 286.671875 160.269531 287.074219 158.519531 C 287.445312 156.769531 287.640625 155.828125 287.640625 155.828125 " fill-opacity="1" fill-rule="nonzero"/><path fill="#e5b22d" d="M 287.199219 182.207031 C 287.199219 182.207031 278.652344 153.328125 313.28125 135.535156 C 313.28125 135.535156 319.074219 167.222656 287.199219 182.207031 " fill-opacity="1" fill-rule="nonzero"/><path fill="#e5b22d" d="M 261.515625 148.714844 C 261.515625 148.714844 299.039062 175.363281 275.660156 201.628906 C 275.660156 201.628906 253.480469 190.929688 261.515625 148.714844 " fill-opacity="1" fill-rule="nonzero"/><path fill="#e5b22d" d="M 289.816406 110.316406 C 289.816406 110.316406 259.628906 136.753906 283.394531 169.386719 C 283.394531 169.386719 304.046875 145.898438 289.816406 110.316406 " fill-opacity="1" fill-rule="nonzero"/><path fill="#e5b22d" d="M 307.800781 175.71875 C 307.800781 175.71875 270.964844 187.050781 275.152344 218.542969 C 275.152344 218.542969 305.574219 214.128906 307.800781 175.71875 " fill-opacity="1" fill-rule="nonzero"/><path fill="#e5b22d" d="M 256.117188 181.101562 C 256.117188 181.101562 285.511719 208.023438 264.234375 237.1875 C 264.234375 237.1875 240.070312 212.109375 256.117188 181.101562 " fill-opacity="1" fill-rule="nonzero"/><path fill="#e5b22d" d="M 302.09375 207.589844 C 302.09375 207.589844 265.761719 216.722656 268.058594 247.175781 C 268.058594 247.175781 296.425781 246.554688 302.09375 207.589844 " fill-opacity="1" fill-rule="nonzero"/><path fill="#e5b22d" d="M 243.425781 213.75 C 243.425781 213.75 274.074219 242.335938 256.097656 265.214844 C 256.097656 265.214844 232.089844 243.566406 243.425781 213.75 " fill-opacity="1" fill-rule="nonzero"/><path fill="#e5b22d" d="M 295.15625 243.644531 C 295.15625 243.644531 259.484375 243.691406 259.289062 273.75 C 259.289062 273.75 275.996094 276.546875 295.15625 243.644531 " fill-opacity="1" fill-rule="nonzero"/><path fill="#e5b22d" d="M 286.183594 272.515625 C 286.183594 272.515625 255.988281 269.660156 244.902344 299.355469 C 244.902344 299.355469 265.160156 307.722656 286.183594 272.515625 " fill-opacity="1" fill-rule="nonzero"/><path fill="#e5b22d" d="M 234.082031 248.890625 C 234.082031 248.890625 260.125 274.996094 242.140625 296.625 C 242.140625 296.625 222.886719 287.996094 234.082031 248.890625 " fill-opacity="1" fill-rule="nonzero"/><path fill="#e5b22d" d="M 271.167969 302.46875 C 271.167969 302.46875 244.257812 301.207031 229 325.519531 C 229 325.519531 255.367188 338.273438 271.167969 302.46875 " fill-opacity="1" fill-rule="nonzero"/><path fill="#e5b22d" d="M 221.113281 276.761719 C 221.113281 276.761719 246.953125 300.128906 229.1875 323.644531 C 229.1875 323.644531 205.070312 312.8125 221.113281 276.761719 " fill-opacity="1" fill-rule="nonzero"/><path fill="#d5a315" d="M 311.742188 154.867188 C 308.007812 162.347656 301.421875 169.933594 289.917969 175.347656 C 289.917969 175.347656 287.5 167.167969 290.441406 156.851562 C 283.65625 170.160156 287.199219 182.207031 287.199219 182.207031 C 302.273438 175.117188 308.921875 164.296875 311.742188 154.867188 " fill-opacity="1" fill-rule="nonzero"/><path fill="#d5a315" d="M 282.664062 188.773438 C 281.546875 190.769531 280.160156 192.769531 278.378906 194.761719 C 278.378906 194.761719 259.058594 185.4375 263.019531 149.863281 C 262.082031 149.117188 261.515625 148.714844 261.515625 148.714844 C 253.480469 190.929688 275.660156 201.628906 275.660156 201.628906 C 279.503906 197.3125 281.671875 192.984375 282.664062 188.773438 " fill-opacity="1" fill-rule="nonzero"/><path fill="#d5a315" d="M 292.015625 152.972656 C 289.09375 159.128906 286.109375 162.527344 286.109375 162.527344 C 275.847656 148.429688 275.65625 135.507812 278.738281 125.351562 C 273.425781 136.167969 270.648438 151.878906 283.394531 169.386719 C 283.394531 169.386719 288.632812 163.425781 292.015625 152.972656 " fill-opacity="1" fill-rule="nonzero"/><path fill="#d5a315" d="M 305.269531 190.199219 C 295.972656 209.035156 277.875 211.675781 277.875 211.675781 C 277.21875 206.734375 277.570312 202.296875 278.632812 198.320312 C 275.679688 203.851562 274.09375 210.539062 275.152344 218.542969 C 275.152344 218.542969 297.46875 215.285156 305.269531 190.199219 " fill-opacity="1" fill-rule="nonzero"/><path fill="#d5a315" d="M 299.460938 219.0625 C 289.378906 239.90625 270.785156 240.320312 270.785156 240.320312 C 270.476562 236.3125 270.859375 232.6875 271.71875 229.394531 C 269.066406 234.296875 267.53125 240.15625 268.058594 247.175781 C 268.058594 247.175781 290.53125 246.664062 299.460938 219.0625 " fill-opacity="1" fill-rule="nonzero"/><path fill="#d5a315" d="M 261.078125 254.953125 C 260.417969 256.105469 259.691406 257.238281 258.808594 258.355469 C 258.808594 258.355469 238.734375 240.234375 243.992188 214.316406 C 243.632812 213.957031 243.425781 213.75 243.425781 213.75 C 232.089844 243.566406 256.097656 265.214844 256.097656 265.214844 C 258.714844 261.890625 260.277344 258.429688 261.078125 254.953125 " fill-opacity="1" fill-rule="nonzero"/><path fill="#d5a315" d="M 295.15625 243.644531 C 295.15625 243.644531 294.554688 243.644531 293.519531 243.71875 C 276.253906 269.25 262.003906 266.890625 262.003906 266.890625 C 262.023438 264.171875 262.335938 261.710938 262.878906 259.460938 C 260.699219 263.253906 259.324219 267.933594 259.289062 273.75 C 259.289062 273.75 275.996094 276.546875 295.15625 243.644531 " fill-opacity="1" fill-rule="nonzero"/><path fill="#d5a315" d="M 286.183594 272.515625 C 286.183594 272.515625 285.550781 272.460938 284.476562 272.445312 C 266.847656 297.285156 250.757812 293.503906 248.039062 292.628906 C 246.882812 294.675781 245.824219 296.890625 244.902344 299.355469 C 244.902344 299.355469 265.160156 307.722656 286.183594 272.515625 " fill-opacity="1" fill-rule="nonzero"/><path fill="#d5a315" d="M 247.757812 285.605469 C 246.953125 287.003906 246 288.390625 244.851562 289.761719 C 244.851562 289.761719 228.210938 282.277344 234.898438 249.757812 C 234.386719 249.203125 234.082031 248.890625 234.082031 248.890625 C 222.886719 287.996094 242.140625 296.625 242.140625 296.625 C 245.125 293.027344 246.878906 289.304688 247.757812 285.605469 " fill-opacity="1" fill-rule="nonzero"/><path fill="#d5a315" d="M 271.167969 302.46875 C 271.167969 302.46875 270.894531 302.449219 270.398438 302.457031 C 257.1875 325.046875 239.242188 321.300781 233.535156 319.375 C 231.949219 321.214844 230.421875 323.261719 229 325.519531 C 229 325.519531 255.367188 338.273438 271.167969 302.46875 " fill-opacity="1" fill-rule="nonzero"/><path fill="#d5a315" d="M 234.613281 312.605469 C 233.851562 313.980469 232.960938 315.382812 231.910156 316.78125 C 231.910156 316.78125 210.917969 307.34375 221.144531 276.792969 C 221.132812 276.785156 221.113281 276.761719 221.113281 276.761719 C 205.070312 312.8125 229.1875 323.644531 229.1875 323.644531 C 231.992188 319.921875 233.707031 316.214844 234.613281 312.605469 " fill-opacity="1" fill-rule="nonzero"/><path fill="#d5a315" d="M 271.8125 211.691406 C 271.261719 217.792969 269.0625 224.269531 264.238281 230.875 C 264.238281 230.875 252.042969 218.199219 250.742188 199.734375 C 249.199219 221.558594 264.234375 237.1875 264.234375 237.1875 C 270.757812 228.242188 272.511719 219.511719 271.8125 211.691406 " fill-opacity="1" fill-rule="nonzero"/></svg>